<?xml version="1.0" encoding="UTF-8"?>
<svg id="Layer_1" xmlns="http://www.w3.org/2000/svg" version="1.1" viewBox="0 0 500 283">
  <!-- Generator: Adobe Illustrator 30.1.0, SVG Export Plug-In . SVG Version: 2.1.1 Build 136)  -->
  <defs>
    <style>
    :root { color-scheme: light dark; }
    @media (prefers-color-scheme: dark) {
        :root { filter: invert(1) hue-rotate(180deg); }
    }
      .st0 {
        fill: #fff;
      }

      .st1 {
        fill: none;
      }
    </style>
  </defs>
  <g>
    <path class="st1" d="M500,37.3s-140.5,0-140.5,0c-1.2,0,0,245.3-.5,245.7" vector-effect="non-scaling-stroke"/>
    <path class="st1" d="M349.7,283V37.8c.2-1.6-200.9,0-201.4-.5-1.7-.1,0,245.1-.6,245.7" vector-effect="non-scaling-stroke"/>
    <path class="st1" d="M141.1,283c-.5-.5.9-245.8-.5-245.7,0,0-140.6,0-140.6,0" vector-effect="non-scaling-stroke"/>
    <path class="st1" d="M310.4,11.3c.9,0,4.5-.2,2.7-1.9-.9-.8-3,.8-3.5-.7-.1-1.2-1-3.8,1-4,0,0,3.9-.5,3.9-.5.9-.2,1.5,1.1,2.3.3,2.6-3.9-10.8-2-9.3,1.3,1.4,5.8.3,14.7,3.1,10.5.1-.4-1.1-5-.2-5" vector-effect="non-scaling-stroke"/>
    <path class="st1" d="M356.6,3.8c-3-2.4-7.5,1-11.2,0-1.2,0-.8,1.9.2,1.9,1,.1,3.4-.5,3.4,1.1.2.4-.2,10,.8,9.7,2.7,1.4-.4-11.3,1.1-11.4.4.1,4.2-1,4.2,0,.2.8-.5,10.5.6,10.8,0,1.3,13.1,2,9.9-1.1,0,0-7.3.2-7.3.2-1.8.1-1-3.4-1.3-4.3,0-2,4.4,0,4.6-1.7,0-.6-.4-1.2-1.1-1.2-.5-.2-4.4.8-3.5-.8,2-3.1,7.2-.9,8.6-2.6-.9-4.1-7.5,1.3-9-.6" vector-effect="non-scaling-stroke"/>
    <path class="st1" d="M181.3,5.2c.3-2-8.9-.3-9.7-.7-4-4.1-12.4,1.9-7.8,6.1.4.6,4.8,1.1,5.5,1.4,2.2,1.3-.7,4.9-2.4,4.6-1.2.1-4.2-4.2-4-.8,3.3,6.3,12.6-1.6,7.7-5-1.2-.7-6.7-.7-5.9-3.1,1.6-5.2,6-.6,9.5-1.4,1.2-.6.7,10.3.9,10.6,0,.9,1.7,1.2,1.8.2,0,0-.3-10.3-.3-10.3.7-2.2,4.8.7,4.6-1.6" vector-effect="non-scaling-stroke"/>
    <path class="st1" d="M326.2,4.2c-1.7-.8-4.5-.2-6.5-.5-.5.5-4,1.2-3.8,2.3.3.5-.3,11.2,1,10.9,3.7,1.3,8.9-.2,11.9-2,.1-.5-1-3.4.3-3,3.7.8,4.2,5,7.8,5,1.8-.1-.4-4.1,1.6-4.2.7.2,7.2-1.7,7.1,0,.2.7.2,6.7,2,3.6.7-4.7-3.2-14.3-8.9-12-4,4.8-.3,14.7-6.6,7.3-4.2-1.8,3.9-2.2,2.9-6-.2-3-6.2-3.2-7.9-1.3-.2.3-.6.3-.8,0" vector-effect="non-scaling-stroke"/>
    <path class="st1" d="M124.6,10.3c-8.2.8-7.9,3.1-8-6.1,0-.4-.4-.8-.8-.8-2.4-1.4-.6,14.1-1.2,14.6,0,.6.6.7,1,.5,1.5-.3,1-4.2,1.3-5.2,7.4-.5,8.2-3.6,8.7,4.4,3.4,3.6.2-10.6,1.8-13,.3-1.2-1.9-1.7-2-.5-.2.4,0,6.4-.9,6.2" vector-effect="non-scaling-stroke"/>
    <path class="st1" d="M194.2,9.4c.8.2,6.6,10.6,7.3,6.6-.5-1.3.8-12.7-1.5-12.8-.5-.1-1.2.2-1.1.8,0,0,1,8.2,1,8.2-2.2,3-7-12-8.7-6.5.4,0,.7,14.5,2.6,10.3.2-.1-.8-7.5.2-6.7" vector-effect="non-scaling-stroke"/>
    <path class="st1" d="M276.3,7.2c-1-4.6-6.5-3.8-9.5-3.1-.9.2-1.5,1.3-1.1,2.2,1.5,1.6-.3,8.3,1.8,12.6.5,0,1.1-.3,1-.9.3-.5-1.3-5.7-.2-5.7,2.2.5,7.3,0,8.4-3.1,1.4-.3-1.1,9.3,1.6,8.1,1.3,0,0-4.1.1-4.7,0-1.9,6.1,4.8,6.4,4.7.5.4,1.1.1,1.4-.3,1-.9-4.2-4.2-4.5-4.8,6.8-4.9.7,3.2,8.5,5.6,3.4,1.8,3.5-4.1,4.9-2.8,0,5.2,5.8.2,8,1.9.7.3,2.4-1.3,3-1.5,1.1,0-.9-9.3-.7-9.8,0-.4-.4-.4-.8-.4-2-.4.5,8.8.2,9.5.6.9-7.7.2-7.8.4-1.6-.8,1.9-9.8-.8-10.1-1.3-.5-.8,2.3-1,2.8-.8.6-1.6-2.9-2.8-2.7-3.7-.8-4-.1-6.4,1.4-2.3-3.8-9.2-4.2-9.2,1-.1.2-.5.2-.5,0" vector-effect="non-scaling-stroke"/>
    <path class="st1" d="M181.3,17.6c1-1-.5-4.8,1.7-5.1,1.1.2,5.3-1,5.5.9.3.6.2,4.4,1.5,4.1,3-.1-1.9-12.5-5-13.6-4.2-1.9-7.2,15.9-3.6,13.7" vector-effect="non-scaling-stroke"/>
    <path class="st1" d="M222.8,12.9c.4.6.9,5.5,2.3,5,.6,0,1.1-.7.8-1.3-4.9-18-10.3-16.2-11.5,1.3,0,.6.6.8,1.1.9,1.3.3.7-3.7,1-4.2,0-.4.4-.8.8-.7,2.8.2,4.3-.9,5.5-.9" vector-effect="non-scaling-stroke"/>
    <path class="st1" d="M228.4,14.6c.7.5,7.3,7.2,6.2,2.8,0-.3-5.8-4.2-4.6-4.5,11-3.1-.4-13.2-5-7.9,0,0,1.5,12,1.5,12,0,.4.5.6.9.7,1.8.4-.7-3.7,1-3.2" vector-effect="non-scaling-stroke"/>
    <path class="st1" d="M144.9,14.8c1.9,1.8,4,4.1,5,0,.6-3.3,3.4-13-.3-10.3,0,0-1.3,9.9-1.3,9.9-.6,2-2.6-2-3.2-2.4-1.1-1.2-1.8,1.1-2.7,1-.4-.2-1.4-7.4-1.6-7.7-.1-.9-2.1-.7-2,.2,0,0,3.1,10.2,3.1,10.3,1.5,2.4,2.1-1.5,3.1-1.2" vector-effect="non-scaling-stroke"/>
    <path class="st1" d="M203.7,17.4c3.5,5.4,12.9-3.2,9.6-9.4-1.5-2.2-5.6-5.3-8.4-3.7-.8.3-2.3-1.2-2.4.3-.1.4,2.1,12.6,1.1,12.7" vector-effect="non-scaling-stroke"/>
    <path class="st1" d="M133.2,4.2c-6.9.1-6.4,14.9.6,14.5,6.9-.1,6.4-14.9-.6-14.5" vector-effect="non-scaling-stroke"/>
    <path class="st1" d="M255.4,4.3c-3.4.2-10.7,2.4-6.4,7.1,1.8.9,7.5-.5,6.1,3.7-1.1,3.1-4.3,1.3-7.5.9.2,4.4,7.9,3.3,8.9.4,3-4.9-2.6-6.3-6.1-6.5-.4,0-.6-.4-.6-.7.1-3.5,9.8-2.1,5.7-4.8" vector-effect="non-scaling-stroke"/>
    <path class="st1" d="M235.2,5c.3.3.6,13.4,1.4,13.2,14.3-.8,11.9-15.9-1.4-13.2" vector-effect="non-scaling-stroke"/>
    <path class="st1" d="M366.8,6.9c1.1,1.5,2.9-1,2.2-1.8-.6-.8-3.4.4-2.2,1.8" vector-effect="non-scaling-stroke"/>
    <path class="st1" d="M368.1,9.7c-1.5-.2-1.9,3.4-.4,3.5,1.5.2,1.9-3.4.4-3.5" vector-effect="non-scaling-stroke"/>
    <path class="st1" d="M65.5,36.1c.4,0,.6-.6.3-.9-6.6-5.5-.7-13.1,1.8-17.3-5.9-.4-10.1,17.8-2.1,18.3" vector-effect="non-scaling-stroke"/>
    <path class="st1" d="M419.1,19.3c8.9,4.2,6.6,9.6,1,15.2,5.9,1,8.7-9.2,4.7-12.6-.6-1.7-7-5.8-5.8-2.6" vector-effect="non-scaling-stroke"/>
    <path class="st1" d="M380.3,23.6c6.4,17.2,5.7-4.9,3.8-3.3-1.3,1.9-.3,4.6-.7,6-.3.5-2.4-4.9-2.6-4.9-3.4-3.4-3.1,7.2-1.1,8,1.6-.7-.8-5.5.5-5.8" vector-effect="non-scaling-stroke"/>
    <path class="st1" d="M243.5,27.3c-1-1,1.1-8.3-1.9-6.1-.9.8.1,4.2-.9,4.1,0,0-1.7-2.5-1.7-2.5.1-.6-6.9-.2-7.2-.3-.6,0-1.1.6-1,1.2.9,7.9-.3,7.2,7.8,6.8.3,0,.5-.2.4-.5,0-.2-.8-4.4-.5-4.5.4-.4,2.7,5,2.9,5,.5,1,2.2.6,2.1-.5.1-.1-.2-2.1.2-1.7.5.6,1.1,2.1,2,2.1,2.5.6,4-.5,6-.5,1.3.5,2.8,0,3.4-1.3.8.1-.9,2.5,1,2.5,1.8-.8,3.3-.9,4.9-3.2,3.3-4-5.7-8.1-6-3.1-3-4.5-7-.9-5.6,3.5,0,.3-.2.7-.5.7-4.2,1-4.5-3.1-1.8-5.5.6-.6,2,.8,2-.5-3.2-3.5-4.7,2.7-5.7,4.2h0" vector-effect="non-scaling-stroke"/>
    <path class="st1" d="M337.8,23.9c2.1,4,3.7,2.6,5-.3.3.6-.7,7,.7,6.8,2.7-.6.7-6.2,1.4-7.9-.4-2.9-3.5-2-4.3,1-.7,1.5-3.5-5.6-4.9-.5.3.2.1,10.2,1.8,8,.9-1.9-.9-6.1.2-7.2" vector-effect="non-scaling-stroke"/>
    <path class="st1" d="M390.1,25.1c-1.2,1,2.5.6,1.8,2-2.8,4.8-6-4.1-3.2-4.9,7.7,2.3-1.6-4.1-2.5,0-2,14.9,13.6,4.3,3.9,3" vector-effect="non-scaling-stroke"/>
    <path class="st1" d="M153.3,26.6c1.9.8,2.2,3.6,3.9,3.4,1.2-1.2-.2-3.1-1.6-3.7-.2-.1-.2-.4,0-.5,4.3-1.6-1.5-7.4-4.1-3.7-1.2,1.3-5.4-1.3-6.4.4-.8.8-.3,2.2-.6,3.2-.6-.3-2.7-1.4-3.3-.1.2.4.2.3.9.3,2.3.2.9,3.1-.4,3.3-2.2.2-3.2-5-1.1-5.7.7-.1,4.1-.1,2.5-1.5-8.1-3-5,14.1,1,7.1.2-.3.6-.2.6.1-.4,2.7,5.2.1,6.2.3.5,0,.6.8,1.2.3,1-.3-.5-3.7,1-3.2" vector-effect="non-scaling-stroke"/>
    <path class="st1" d="M97.3,31.3c.2-1.9-2.8-13.5-5.8-9,0,0-2.3,8.7-2.3,8.7-.2.8.7.7,1.2.5,1.2-.1.8-2.4,1-3.2.4-1,1.5,0,2.6-.4,2.3-.5.8,6.6,3.4,3.3" vector-effect="non-scaling-stroke"/>
    <path class="st1" d="M180,30.2c1.4,2.4.8-1.8.7-2.3-.2-1.2,1.9-.6,2.5-.8.9,0,.6,2.7.8,3.2,0,1,1.6.7,1.6-.2-.4-.6.9-7.8-.8-7.3-2.1,1.4,1.8,3.4-3.6,3.1-1,0,.3-3-1.4-1.6-.8,1.5.2,3.6-.6,4.9-1.8,1.2-3.3,1.2-4.4,0-1.1-2.5,1.5-7.2,4.5-6,.3-.4.3-1-.1-1.2-3.7-2.3-7.4,5.3-6,8.1,1.1,2.3,5.7,2.8,6.5.1,0-.3.5-.2.5,0" vector-effect="non-scaling-stroke"/>
    <path class="st1" d="M192.4,29.8c-1.8-16.8-8.3,2.5-5.1.8.4-3.5,3.4-2.3,3.7.6.2.5.8.8,1.3.4.5-.4,1.6.5,1.7-.5,0,0,0-4.4,0-4.4,1.3-.2,2.9,2.5,3.4,3.1.9,1.6,3.9,1.1,3.4-1.1.1-1,2.7-.7,2.8.2-.4,1.7,2.3,3.4,1.8.7-.9-8.6-5.2-9.3-5.7-1-.6,1.2-1.8-2.4-3.1-2.1-.3,0-.3-.5,0-.6,5.3-.4,3.5-3.4-1-4.1-5.8-1.3-.9,8.5-3,8.1" vector-effect="non-scaling-stroke"/>
    <path class="st1" d="M299.1,28.1c-8-14.6-4.3,6.3-3.1,2.3-.9-7.4.7-2.8,2.5-.3.7,1.1,3,1.3,2.6-.7-.4-2.1.5-5.9-.7-8.2-3.2.4.3,7.1-1.3,6.8" vector-effect="non-scaling-stroke"/>
    <path class="st1" d="M322.1,27.5c6.2,8,2.9-1.5,5.1-3,.4-.3,1.2-.3,1.2.4.2.7-1.3,5,.1,5,1.8.7.7-4.6,1-5.2,0-.8,1.6-.6,2.1-.8,2.1-2.3-5.3.2-5.1-.9,0-.4.2-1.5-.5-1.5-.6,0-1.2.3-1.2.9,0,0,0,5,0,5-1.5,1.9-2.6-6.9-4.6-3.6.3.2-.7,9.3,1,6.8.2-.2,0-4,.9-3.1" vector-effect="non-scaling-stroke"/>
    <path class="st1" d="M372.8,26.2c1.9-1.3,2,1.2.3,1.2-2,.6-4.3-4.6-1.2-4.7.3,0,3.2.8,3.2,0,.3-2.1-7.9-2.6-6,2.8.4,5.4,9.8,3,5.4-.6-.9-.5-3.8.8-1.7,1.2" vector-effect="non-scaling-stroke"/>
    <path class="st1" d="M99.1,33.4c0-.1,3.4-11.6,3.1-11.6-1.9-.9-5.5,11.9-3.1,11.6" vector-effect="non-scaling-stroke"/>
    <path class="st1" d="M347.3,26.3c.9.6,3.5-.1,1.7-1-.8-.2-3,0-2.2-1.4.9-1.6,3.5.2,4.8-.6,2.4-2-3.6-1.2-4.2-1.4-1.1,0-2,.9-2,2,.4,1.2-1,6.8,1.3,6.6.8-.3,5.5,0,5.6-1.4,0-2.9-5.9,2.3-5.4-2.5,0-.3.2-.5.5-.4" vector-effect="non-scaling-stroke"/>
    <path class="st1" d="M358.7,29.5c-1.2,2.4,5.6.3,3.6-2.2-.9-1.9-4.5-1.9-1.4-4.4,0-3.5-6.1,2.1-2.6,3.6,2.1,1,4.5,2.5.4,3" vector-effect="non-scaling-stroke"/>
    <path class="st1" d="M123.6,27.1c-.4.6,0,4.1,1.1,2.5,0-1,1.8-9.6-.9-6.4.6,2.1-.3,2.1-2.1,2-.9,0-.8-3.5-1.9-1.4-.2.5.5,6.1-.5,6-7.5,2.7-3.5-8.2-1-5.8,1.8.4.3-2.4-1.1-1.8-6.1,1.4-3.6,14,2.7,8.3,2.1-1.3,1.6-.6,1.6-3.3-.1-.9,2.4-1,2.2-.1" vector-effect="non-scaling-stroke"/>
    <path class="st1" d="M131.2,27c-1.9-8.5-5.6-2.7-5.3,2.9,0,.4.4.5.7.5.5,0,.4-1.2.6-1.4,1.3-2.8,3.1,0,2.9,1.8.5,1.5,3,.1,2.8-1.1,0-.8-.6-2.4.6-2.6,2.2.2,2.1,3.2,3.7,3.3,2.3-.4-.4-3-1.4-3.7-.5-.8,1-.9,1.6-1.8,1.5-4.4-8.8-3.2-5.7,2.1.1.3-.4.5-.5.2" vector-effect="non-scaling-stroke"/>
    <path class="st1" d="M221.7,30.3c-.2,1.6,1.4,2.1,1.6.8.1-.2-.9-3.7,0-3.2.7.2,3.8,4.4,4.4,2.4,1-1.6-3.4-2.5-2-3.4,2-.1,2.8-2.7,1.1-3.6-.7,0-3.9-1.4-4.5-.8-1.6,2.2-8.6.5-10.8.6-4.6-4-9.1,5.9-3,6.9,1.4.8,4-1.3,1.8-1.7-6.1,1.4-2.1-7.1-.4-4.2.6,1,1.5-.8,2.2-.1.3.6-.9,4.9.9,7,.4,0,1-.2.9-.8.2-.6-1.5-6.1,0-5.9.4,0,1.6-.1,1.6.6-.8,8.7,1,4.6,6.3,5.4" vector-effect="non-scaling-stroke"/>
    <path class="st1" d="M276.9,28.7c2-3.1-2.9-4.2-2.6-2.1.9-.3,2.4,0,1.5,1.4-2.3,3-6.1-2.6-3.9-4,1.1.2,4,.1,2.5-1.2-1.8-.8-3.2.5-4.4,0-.3-.5-.8-1.1-1.4-.7-1,.2.4,4.8-.8,4.3-4.3-7.9-3.1,2.5-4.2-2.7,0-.5-1-.6-1.1-.1.4.7-.8,7.6.8,7.4,1.8-.1.2-3.5,1.3-4.1.1.5-.3,4.3,1.2,3.7.6-.2-.2-2.4.4-3.6.2-.2,2,2.9,2.1,2.9.5.7,1.7.4,1.7-.5.1-.3-.1-1.5.4-1.4,1.6,2.6,3.7,2.4,6.4,1.9,5.2,3.6,6.3-2.7,2.5-5.8,0-1.1,3.6.8,3.3.2.6-2.6-5.3-2.7-5.1-.5,2.2,3.7,4.9,6.1-.7,5" vector-effect="non-scaling-stroke"/>
    <path class="st1" d="M293.3,22.9c0-1.1-1.8-1-1.7,0,.4.7-.5,9.1,1.2,8.8,1.8.3.2-8.1.5-8.8" vector-effect="non-scaling-stroke"/>
    <path class="st1" d="M353.5,24.8c.4-.5,4.3-1.6,3.1-2.7-.4-1.1-3.6,1.6-4.2,1.6-.8.4-1.1,1.4-.6,2.2.4,1.2,4.3,1.5,4.4,2.7-.8.8-1.9.7-2.5-.1-2.8-.4.2,3.6,3.7.7,2.7-2.6-4.6-2.7-3.9-4.4" vector-effect="non-scaling-stroke"/>
    <path class="st1" d="M367.4,27.8c3.2,9.9,1.4-10.6-2.9-4.8.2.5-3,7.9-.6,6.7.4-.6.3-2.6,1.3-2.6.6,0,2.2-.4,2.2.6" vector-effect="non-scaling-stroke"/>
    <path class="st1" d="M378.2,29.3c-.2-.1-.7-7.4-1.2-7.2-1.9.3-.9,8.2,1.2,7.2" vector-effect="non-scaling-stroke"/>
    <path class="st1" d="M162,28.1c.7,0,.7,1,.1,1.1-1.5.7-2.5-.6-3.5,0-.2.3-.2.7.1.9,2.3,1.9,7.7-.7,4.1-3.3-4.3-.8-4.6-3,0-3.2,2.9-3.5-12.8.2-1,4.5" vector-effect="non-scaling-stroke"/>
    <path class="st1" d="M413.3,23.2c-1.9,0-11.9-2.4-12.7.5.4.8-.9,7,.9,6.8.7-.3,8.8.7,6.1-1.8-.1,0-4.6.6-4.7.6-.9.1-.5-1.4-.6-1.9,0-1.2,2.6.1,2.6-1.1-.2-1.3-3.3.3-2.7-1.9,0-.4.3-.7.7-.7.5.2,6.5,0,6.4.9,0,0,.6,4.4.6,4.4,2,1.9,1-3.2,1.1-3.9-.1-1.1,2.1-1.4,1.8,0-1.5,3.8,3.3,5.7,6.1,4.1,1.4-.8,2.6-.5,1.7-2.1-.2-.2-.6-.2-.9,0-1.5,1.8-6.4,1.4-5.6-1.5,1.4-2.4,2.2-1.8,3.5-1.5.2-.2.5-.6.1-.9-1.6-1.6-2.8,0-4.4,0" vector-effect="non-scaling-stroke"/>
    <path class="st1" d="M71,28.6c-3-1.7-6.8-2.1-1.7-4.7,1.5-3.1-4.4-.4-4.3,2.2-1,3.3,4.7,1.8,4.7,4.1-1.1,2.7-3.7-.4-4.1,1.3.4,1.9,3.6,1.2,4.6.5,1.6-.3,3,.8,4.8-.3,1.9.4,3.3,1.7,6.4.8.8-.1.7-1.6-.2-1.5-.7-.1-3.3,1-3.3-.3.3-1-1-2.1-.1-2.5.3-.1,2.3,0,2.2-.6,0-.3,0-.7-.4-.7-.7,0-2.4.3-2.3-.8,0-.7.3-1.6,1-1.5.5.1,4.6-.3,4.5.4-2.5,2.1,3,1.7,1.1-.4-1.2-2-5.3-1.1-7.1-1.3-4.7-1-7.3,0-5.7,5.5" vector-effect="non-scaling-stroke"/>
    <path class="st1" d="M71,28.6c0,.2,0,.4.2.6.2-.1,0-.3-.2-.6" vector-effect="non-scaling-stroke"/>
    <path class="st1" d="M314,24.8l-1,5c.4,1.6,1.5-.3,1.6-1.5.9-1.4,3.2-.5,2.9,1.2,0,.9,1.7.5,1.5-.3-.5-.9-1-5.2-2.2-5.5-4.2-1.3-6.7,0-10.7-1-4,2.4-3.5,4.7.4,6.2,1,1.4-2.2,2.3-3.1,1.7-1.1-.2-.7,1.5.1,1.5,2.2.5,6.4-1.8,4.1-4.2-1.7-.9-3-1.7-1.8-3.4.8-.9,2-.4,3,0,.8,0,1,6.2,1.3,6.6,2.9,1.8-.2-5.8.9-6.2.3.1,3.3-.8,3.1,0" vector-effect="non-scaling-stroke"/>
    <path class="st1" d="M107.5,30.1c-6.3,2.7-4.2-7.9,0-5.6.5.2.9-.4.6-.8-5-5.2-9.8,9.5-1.2,8.3.7,0,1.5-1.8.7-1.9" vector-effect="non-scaling-stroke"/>
    <path class="st1" d="M83.1,27.8c-1.1.3-.5,2.3.5,2,1.1-.3.5-2.3-.5-2" vector-effect="non-scaling-stroke"/>
    <path class="st1" d="M283.7,28.5l-2.1,3.2c1.1,2.4,4.8-3.1,2.1-3.2" vector-effect="non-scaling-stroke"/>
    <path class="st1" d="M394.1,29.6c-1.8,1.1,0,2.5,1.1.7,1.2-1.7-.6-2.9-1.1-.7" vector-effect="non-scaling-stroke"/>
    <path class="st1" d="M164.9,31c-1.6,1.9,0,2.6,1.2.6.9-2.2-.7-3.1-1.2-.6" vector-effect="non-scaling-stroke"/>
    <path class="st1" d="M329.4,8.5c6.7-1.2,3.4-5.8-.7-3.1.2.5-.5,3.3.7,3.1" vector-effect="non-scaling-stroke"/>
    <path class="st1" d="M339.5,5.9c-3.8,7.5-.3,4.5,4.9,4.1,2-1-4.3-5.7-4.9-4.1" vector-effect="non-scaling-stroke"/>
    <path class="st1" d="M317.6,12c0,4.8,3.9,3.5,6.6,3.3,3.4-.7,2.8-5.1,2.8-7.7-.5-3.2-6.7-2.2-8.8-1.4-.6,0-1.4,3.2,0,3.5,0,0,2.2-.4,2.2-.4.9-.2,1.4,1.3.5,1.7-.4.3-3.7.3-3.5,1.1" vector-effect="non-scaling-stroke"/>
    <path class="st1" d="M279.5,10.3c11.4-.6-1.6-10.6-1-.9,0,.5.4,1,1,.9" vector-effect="non-scaling-stroke"/>
    <path class="st1" d="M267.6,6.2c.3.6-.5,4.7.9,4.5,2.1,0,6.4.3,6.3-2.8,0-1.5-1.3-2.6-2.9-2.6-.6.3-4.3-.5-4.2.9" vector-effect="non-scaling-stroke"/>
    <path class="st1" d="M288.8,6.7c-3,2.8-1.8,11.1,3.3,9.1,2.4-2.4,2.6-8.8-.9-9.1-.7,1.3-1.5-.9-2.4,0" vector-effect="non-scaling-stroke"/>
    <path class="st1" d="M187.6,10.4c-2-6.1-5-5.6-5.3.3.1-.2,5.5.4,5.3-.3" vector-effect="non-scaling-stroke"/>
    <path class="st1" d="M217.1,11.1c-.3,1.7,4.1.1,4.7.3,1.5-1.6-1.9-7.3-3.8-4.9,0,.1-.9,4.5-.9,4.6" vector-effect="non-scaling-stroke"/>
    <path class="st1" d="M227,5.9c.2.3,0,5.8.9,5.5,2.5,0,5.3-1.5,5-3.4.3-1.9-4.3-3.9-6-2.1" vector-effect="non-scaling-stroke"/>
    <path class="st1" d="M204.9,6.1c.3.3,0,11,.8,10.9,9,.5,7.3-13.5-.8-10.9" vector-effect="non-scaling-stroke"/>
    <path class="st1" d="M133.4,6c-4.6,0-4.3,11.4.3,11.1,4.6,0,4.3-11.4-.3-11.1" vector-effect="non-scaling-stroke"/>
    <path class="st1" d="M237,6.9c.2.2.3,9.1,1,9,9.6-.5,7.6-11.1-1-9" vector-effect="non-scaling-stroke"/>
    <path class="st1" d="M257.6,28.6c5.8-2.5,0-6.8-1-4.2.2.3,0,4.7,1,4.2" vector-effect="non-scaling-stroke"/>
    <path class="st1" d="M236.6,23.8c-.4.2-4.3-.3-4.3.5-.4,1.7,3.8.6,2.7,2.6-.5.9-1.8-1-2.3-.1-.6,3.5,1.7,2.4,4,2.4.4,0,.8-.5.7-.9-.8-1.6.3-3.7-.7-4.5" vector-effect="non-scaling-stroke"/>
    <path class="st1" d="M253.9,27.7c-.3-5.9-5.5-2.4-2.4.7,1.1.5,2.3.5,2.4-.7" vector-effect="non-scaling-stroke"/>
    <path class="st1" d="M153.7,24.6c3.3.8,1.3-3.5-.5-2.6-1.3.5-.9,2.5.5,2.6" vector-effect="non-scaling-stroke"/>
    <path class="st1" d="M151.5,24.5c.2-1.6-4.1-.9-4.8-1.2-.8,0-.8.9-.8,1.5,0,1.4,2.6.1,2.6,1.4-.4,1.1-2.6-.7-2.6.7.3.6.4,2.4,1.4,2.2,5.6-.5,3.5,1,4.3-4.5" vector-effect="non-scaling-stroke"/>
    <path class="st1" d="M94,26.2c-.3-.3-.7-4-1.6-2.6,0,.5-1.3,2.9-.2,3,.4,0,1.9.6,1.8-.3" vector-effect="non-scaling-stroke"/>
    <path class="st1" d="M193.5,23.8c-.3,2.4,4.5,0,4.1.2.4.2-4.2-2.5-4.1-.2" vector-effect="non-scaling-stroke"/>
    <path class="st1" d="M202.1,26.9c1.6.3.5-3.1,0-2.7-.4-.4-1.8,2.9,0,2.7" vector-effect="non-scaling-stroke"/>
    <path class="st1" d="M189.2,27.2c1.7.6.7-2.9.4-2.6-.2-.4-2.2,2.7-.4,2.6" vector-effect="non-scaling-stroke"/>
    <path class="st1" d="M135.9,23.9c-.8-1.9-6.4.7-1.7.9,1,0,1.8-.4,1.7-.9" vector-effect="non-scaling-stroke"/>
    <path class="st1" d="M128.6,26.9c1.8.3.3-2.8-.1-2.5-.4-.3-1.6,2.9.1,2.5" vector-effect="non-scaling-stroke"/>
    <path class="st1" d="M225.9,24.6c-.9-.6-4.6-2-3,.5.9.7,3.6.8,3-.5" vector-effect="non-scaling-stroke"/>
    <path class="st1" d="M217.6,26.9c-3.3,1.9,2,3.4,3.3,1.5,2.7-2.7-1.1-5-3.8-3.3-1.3,1.7,2,.2,2.2.9.2.9-1.3.7-1.7.9" vector-effect="non-scaling-stroke"/>
    <path class="st1" d="M365.2,25.4c.2.4.7.7,1.2.6,1.8-.8-1.6-3.1-1.2-.6" vector-effect="non-scaling-stroke"/>
    <path class="st1" d="M76.4,30c-1.9-3.4,1.7-7-3.8-5.6-.4,0-.6.4-.6.8.1.4,0,1.8.7,1.6.5-.5,3.1-.2,1.6.7-2,0-1.6,1.5-1.4,2.9,0,.4.6.5.9.2.8-.9,2.5.5,2.6-.6" vector-effect="non-scaling-stroke"/>
    <path class="st1" d="M315.1,26.1c.2.8,2,.6,1.2-.5-.5-.9-1.6-.6-1.2.5" vector-effect="non-scaling-stroke"/>
    <path class="st1" d="M139.1,39.8c.1-1.5-136.1,0-136.6-.5-1.5-.2,0,240.9-.5,241.3-.1,1.5,136.1,0,136.6.5,1.5.2,0-240.9.5-241.3" vector-effect="non-scaling-stroke"/>
    <path class="st1" d="M347.7,39.7c-.1-1.1-197.8-.5-198,0,0,0,0,241,0,241,.1,1.1,197.8.5,198,0,0,0,0-241,0-241" vector-effect="non-scaling-stroke"/>
    <path class="st1" d="M498.1,39.8c-.3-1.2-136.8-.7-137.1,0,.5.5-.9,241.5.5,241.4.5-.5,136.8.9,136.7-.5h0V39.8" vector-effect="non-scaling-stroke"/>
    <path class="st1" d="M23.6,116.8c-4.5-.1,5.2,10.1,10,2.9,4.5-6.5.4-13-7.8-8.9-.6.2-1.3-.2-1.3-.9,0-5.9,5.9-8.1,9.5-4.3.7-.1,1.3-.7,1-1.5-3.7-7-15.7.3-11.8,7.9,1.1,2.6,5.8-.2,7.6-.4,7.1.5-1.3,14.9-7.1,5.2" vector-effect="non-scaling-stroke"/>
    <path class="st1" d="M80.7,105c1.8.4,9.3.7,6.9-2.5-4.1,1.9-9.3.2-13.4,1.5-.6.2-.3.8.1,1,.7.7,2.9,0,3.8,0,1.7-.1-1.5,17,2,13.5.4-.4-.8-13.9.6-13.5" vector-effect="non-scaling-stroke"/>
    <path class="st1" d="M105.7,107.9c.3.5,1.5,4.3,1.9,4.7,11.6,18.3,6.3-2.3,7.5-9.1-3.8-4.1-1.2,11.6-2.4,12-4.5-4.5-4-6.1-6.3-11.1-4.6-3.8-2.5,14.3-3.7,14.2,3,4.2,1.9-11.8,3.1-10.7" vector-effect="non-scaling-stroke"/>
    <path class="st1" d="M47.6,105.7c.9-.3,5.6.9,5.1-1.1-1.8-2.3-5.9-.1-10.4-1.3-1-.2-2.9.6-2.1,1.7,1.4.3,4.7-.8,5.6,1.4,0,0-.9,12.4-.9,12.4,4.5,6.5.9-13.3,2.9-13.1" vector-effect="non-scaling-stroke"/>
    <path class="st1" d="M72.8,113.9c.4.7.5,7,2.1,6.5,2.7.5-1.2-10.6-.8-11.5-1-2.4-3-7.6-6.3-4.7-2,2.9-7.1,19.3-3.2,15.8.4-.6,1.1-6.6,2.4-6.4.4.2,6-.7,6,.3" vector-effect="non-scaling-stroke"/>
    <path class="st1" d="M100.4,108.4c-7.2-8.5-13.3-2.8-12.8,5,1.4,11.2,16.8,3.8,12.8-5" vector-effect="non-scaling-stroke"/>
    <path class="st1" d="M52,108.1c-.4,0-.8,0-.9.5-3.6,12,7.8,15.5,11.7,5.2.1-3.4,1.6-8.9-2-8.8-1.1.8,1.5,7.7-1.1,10.4-2.7,3.4-7.8,3.2-7.5-1.5,0-3.1.7-4.8-.2-5.7" vector-effect="non-scaling-stroke"/>
    <path class="st1" d="M39.8,106.4c0-1-1.8-1.1-1.8,0,.3.5-.9,12.9.7,12.3,2.2,1,.7-11.7,1.2-12.3" vector-effect="non-scaling-stroke"/>
    <path class="st1" d="M119.1,106.6c-1.4-.7-2.7,1.9-1.3,2.6,1.4.7,2.7-1.9,1.3-2.6h0" vector-effect="non-scaling-stroke"/>
    <path class="st1" d="M84.9,108.4c0-1.2-1.9-1.2-1.9,0,.4.8-1,11.1.9,10.7,2,.5.6-10,1-10.7" vector-effect="non-scaling-stroke"/>
    <path class="st1" d="M119.5,115.5c-.9-1.2-3.4.8-2.5,2,.9,1.2,3.4-.8,2.5-2" vector-effect="non-scaling-stroke"/>
    <path class="st1" d="M36.1,131.9c.3-.6-11.7.9-11.2,1.4.1.3,0,1.6.5,1.5,0,0,10.6-1.3,10.6-1.3.6,0,0-1.3.1-1.6" vector-effect="non-scaling-stroke"/>
    <path class="st1" d="M47.9,140.1c.6-.1,3.3.7,3.3-.4,0-.6-.1-1.3-.8-1.3-.6-.2-3.8.2-3.8-.8.1-1-1.5-2-.8-2.9,3.1-2.7,6.5.1,7.5-1.8.8-2.6-7.7-.9-8.2.3-2.5,3,1.2,6.7.7,10.8,0,1.4,1.2,2.4,2.6,2.4,1-.2,9.3.5,6.4-2.2-.9-.4-7.6,1.2-7.5-.8.2-.6-.6-3.4.6-3.3" vector-effect="non-scaling-stroke"/>
    <path class="st1" d="M98.4,139.8c8.6-4.3,1.7-10.5-4.7-7-2.8,3.1.9,7.5-.4,12.2-.1.8,1.3,1.3,1.5.5.3-.3-.6-5.7.6-5,.7.2,8.7,9.1,7.6,4.2-.1-.5-6-4.3-4.6-4.9" vector-effect="non-scaling-stroke"/>
    <path class="st1" d="M57.4,142c.8.2,5.5,5.3,6.3,3.9,1.6-1.5-6.6-4.8-5-5.9,3.2,0,4.8-1.7,4.8-5.1,0-4.1-9.2-3.8-8.9.2.4.2.6,13,2.5,9.2.1-.3-.7-2.8.2-2.3" vector-effect="non-scaling-stroke"/>
    <path class="st1" d="M90.6,140.4c.2.3.1,5.4,1.1,4.9,2.2-1.7-.3-5.9-.1-8.6-.5-3.6-2.6-5.1-6.1-4.6-2.8,4.5-3.5,9.7-3.7,13.6,0,.6.6.6,1.1.5,1.8-.6-.7-5.3,1.6-5.6.6.2,6.1-1.5,6.1-.1" vector-effect="non-scaling-stroke"/>
    <path class="st1" d="M67.6,140.8c-.2-.5,4.3-.7,4.4-.8,2-2.2-3.3-1.4-3.5-1.2-.8.7-2.5-3.3-.6-3.7.6-.3,9.2-.2,5.6-2.4-1.1.6-9.9-.5-8.7,2.4,2.3,3.7.3,8.8,2.3,11.8,1-.4,9.8,1,9.8-1,.9-1.8-8.4-.5-8.9-.9-.8.2-.2-4-.4-4.3" vector-effect="non-scaling-stroke"/>
    <path class="st1" d="M106.1,139.7c.6-.3,5.1.8,4.4-.9-.6-2.3-4.1.4-4.7-1.4,0-.7-.5-2.5.7-2.6,0,0,6.1-.3,6.1-.3,1.2,0,1.1-2-.1-1.8-3.3.8-8.9-1.5-8.7,3,1.3,3.1-.6,8.1,1.3,10.2,2.8-.2,9.3,0,7-2.2-.5-.3-6.2.6-6.1-.5.1-.6-1-3.5.2-3.4" vector-effect="non-scaling-stroke"/>
    <path class="st1" d="M36.4,139.5c-1.9,0,.1-3.7-1.8-3.8-.5,0-1.2.2-1.1.8.4.3.4,11.6,2.4,8.7.9-1.8-1-3.2.4-3.9.5.2,6-1.4,6-.2.3.5.1,5.7,1.3,5.4.5,0,1-.4,1-.9-.6-.6-.4-14.4-3.1-11.3,1.4,6.6.5,4-5,5.2" vector-effect="non-scaling-stroke"/>
    <path class="st1" d="M30.1,146.8c.3-.1,1.9.2,1.6-.4,0-16.9-3.3-14.4-1.6.4" vector-effect="non-scaling-stroke"/>
    <path class="st1" d="M46.8,165.4c-1.6.5-5.6,2.5-7,.6-1.1-4.2,2-13.7,6.9-8.5,3.7-.2-3-5.1-4.9-2.7-6,4.8-5.9,17.9,4.5,12.7.8-.1,1.9-2.2.6-2" vector-effect="non-scaling-stroke"/>
    <path class="st1" d="M22.4,161.4c0-1,.6-6.6-1.8-4.6,0,.1,0,5.3,0,5.4,0,2.9,5,.6,6.4.6,1-.3.4,4.3.7,4.7.1,1.2,1.8.4,1.8-.5-.5-1,1.5-13.8-1.8-11.9-.4,5.4,1.7,6-4.7,6.7-.3,0-.5-.2-.5-.4" vector-effect="non-scaling-stroke"/>
    <path class="st1" d="M17,155.4c.2.3-.6,14.9.2,14.8,2.9.6,1-12.2,1.6-13.5.1-1-1.2-2.2-1.8-1.3" vector-effect="non-scaling-stroke"/>
    <path class="st1" d="M80,159.1c.2.5-.6,8.7.5,8.7,1.4,1,10.3-.3,9.3-1.7-1.1-2.3-7.6,2.6-8.3-.8-.4-3.7.6-2.7,3.4-2.8.8,0,1.2-1.4.3-1.7-.1,0-2.6,0-2.8,0-4.2-2.1,3.7-4.1,5.8-2.8,1,1.2,2.5-.4,3.6,0,1.3,3.1-.7,7.4.7,10.3,2.1,1.7.9-10.3,1.3-10.7.3-1.5,7.2.8,4.9-2.2-6.4-.2-11.4,1.3-17.6.7-.9-1.2-1.4.9-2.2.3-2.2-1.8-7.3-1.6-9.3.5-.4.5-.4,1.2.2,2,1.3,1.7.8,5.9.7,8.3,0,1.1,1.7.7,1.6-.2,0,0,0-3,0-3,2.2-1.5,4.9-1.9,7-5.1.2-.3.7,0,.7.3" vector-effect="non-scaling-stroke"/>
    <path class="st1" d="M59.2,159.6c.7-2.1,2.6,2.1,3.3,1.8.6.2,1.3-.3,1.9-1.4,4.4-7.4,2,3.7,2.6,5.2-.2.9,1.7,2.6,2,1.3-1.5-3.1,2.6-11.7-3.6-10.9-.9,0-1.8,2.5-2.3,3.1-1.3,1.5-4.7-5.3-5.6-2.3.5.6-1.4,14.5,1.6,12.1.2-.3,0-8.6,0-8.9" vector-effect="non-scaling-stroke"/>
    <path class="st1" d="M109.7,165.1c-.7-.1-6.7-12.4-7.6-8.5.3.5-.8,12,.7,11.6,2,1,.6-7.1,1-7.6,3.1.9,6.2,11.9,8.1,6.6-.3-.6,1.2-15.3-1.8-10.9-.3.2,1.4,10.4-.4,8.8" vector-effect="non-scaling-stroke"/>
    <path class="st1" d="M119.4,161.3c-.9,0-1.2,1.2-.4,1.6.7.5,3.1-.3,3.2,1.4-.4,3-2.3,4.2-4.9,2.8-5.8-4.9,0-11.8,6.4-9,5.6-2.2-8.1-3.4-9.2-.4-2.9,4-1,11.4,4.5,11.6,5.5.4,7.5-9,.4-8" vector-effect="non-scaling-stroke"/>
    <path class="st1" d="M53.8,156.7c-7-3.6-8.4,14.2-.7,11.1,4.2-1.8,5.2-9,.7-11.1" vector-effect="non-scaling-stroke"/>
    <path class="st1" d="M99.6,159.3c0-1-1.8-1-1.7,0,.3.5-.9,13.2,1.9,8.9,0,0-.1-8.9-.1-8.9" vector-effect="non-scaling-stroke"/>
    <path class="st1" d="M84.7,184.6c-.5-.9-5.4-11.5-8.4-7.2.2.9-4,12.5-2,12.7,1.6.6,1.3-2.6,1.6-3.3.8-1,8-.2,5.7-2.8-1.7-.1-4.5,1.7-5.4.4.7-.8.8-8,3.2-5.2,3.7,3,3.3,7.5,4.1,11.4,3.4,0,3.5-1.2,2.7-4.3-.1-2.1,6.1,4.7,6.4,4.6,7.3,1.9,16.8-10,5.8-12.8-9.1-1.5-.9,9.1-4.4,11.1-.6.4-5-4.1-5.5-4.3-.5-1.1,1-1,2.4-1.9,5.6-4-3.8-7.5-6.9-4.3-.9,1.7,1.1,4.6.5,6" vector-effect="non-scaling-stroke"/>
    <path class="st1" d="M42,179.5c.8-.4,4.8-.1,4.1-1.9.3-1.7-9.3,1.3-9.8,1-3.8-4.1-12.3,5-6.2,7,1.3.5,7.4-.2,6.2,2.7-4,7.6-5.9-2.6-7.1,1.4,1.8,8.1,12.7-1.4,7-4.6-2.8-.8-9.2-.4-4.3-4.7,1.9-2.5,4.6.5,6.7-.3.4-.1.8,0,.9.4.5.9-1.4,11.3.6,11.1,1.9-.5,0-11.6,1.8-12.1" vector-effect="non-scaling-stroke"/>
    <path class="st1" d="M54.8,189.1l-3.8-10.2c-5-6.9-10.5,15.9-5.8,11.1.3-.6,0-4,1.2-3.9,3.6.6,4.8-.9,6,0,1.2,7.4.7,2.3,3.1,4.7,2.9-.1.6-8.4,1.9-7.5,0,0,4.2,6.2,4.2,6.2,2.2,3.7,2.7-15.6.2-11.5,0,0,0,7.8,0,7.8-1.6.6-2.6-4-4.7-7-3.4-2.6,0,9.3-2.1,10.3" vector-effect="non-scaling-stroke"/>
    <path class="st1" d="M65.6,191c12.3-1.6,11.7-16.1-1.6-12.7-.9-.8.9,13.7,1.6,12.7" vector-effect="non-scaling-stroke"/>
    <path class="st1" d="M111.8,188.4c1.6,3.2,3.9-.5,2-2.3-.9-1.1-1.8,1-2.6.3-1.7-3.7-8.6-4.4-.9-7.5.8-2.5-5.6.4-6.2,1.6-3.1,2.9,15.7,7.6-1.7,8.8.6,3.8,7.4.6,8.8-1.2.1-.2.4-.1.5,0" vector-effect="non-scaling-stroke"/>
    <path class="st1" d="M177.7,51.1c0,.3.5.4.7.2,2.2-1.7,4.1-2.4,5.6-2,1.7.7.8,3.4-.8,4.1-.7.4-3.3.5-3,1.7,0,0,.6,3,.6,3,1,1.7,2.2-.7,1.6-2.1,7.6-5.1,4-11.6-4.6-6.4-.6.3-.3,1-.2,1.4" vector-effect="non-scaling-stroke"/>
    <path class="st1" d="M207.8,54.2c10.8-3.6.5-10.2-5.1-4.7.3.3-.2,14.1,1,13.4,2.2.9.2-11.9.7-12.5.9-1.7,4.1-1.3,5.6-1.3,2.9,1.4-1.5,4-3.4,3.6-1.1,0-1.8,1.3-1.1,2.2.5.3,6.9,10.4,6.2,5,0-.4-5.1-5.5-3.9-5.7" vector-effect="non-scaling-stroke"/>
    <path class="st1" d="M190,48.5c0-1-1.7-.8-1.6.1.2.6-.1,10.1,2.1,6.4,0,0-.5-6.5-.5-6.5" vector-effect="non-scaling-stroke"/>
    <path class="st1" d="M218.1,64.2c10.6,1.9,11.7-16.8.7-15.1-1.5.1-2.6,1.6-2.3,3.1,1.4,3.9.1,8.8,1.6,12" vector-effect="non-scaling-stroke"/>
    <path class="st1" d="M241.6,51.6c-4.2,16.2,13.3,11.6,9.5-1.6-.1-.9-1.8-.9-1.6.2,2.9,6.5-4.8,16.3-6.9,7.1-.4-1.7,2-8.3-1-5.7" vector-effect="non-scaling-stroke"/>
    <path class="st1" d="M297.5,50c0-.8-1.7-1-1.7-.1.2.5-1.2,8.5,0,8.3,2.2,1.1,1.3-7.5,1.7-8.1" vector-effect="non-scaling-stroke"/>
    <path class="st1" d="M162.6,49.6l.8,14.2c3.4.8.6-11,1.1-12.5,0-1-1.1-2.3-1.9-1.7" vector-effect="non-scaling-stroke"/>
    <path class="st1" d="M168,55.8c-.1-.8,1.4-5.1-.1-5.2-1.9-.6-1.3,6.1-1.7,6.8,0,.7.6,1.2,1.3,1,.8,0,6.4-3.2,6.8-1.7.4.4.4,10.5,2.2,6-.3-2.2-.7-15.2-3.8-12.2,0,.8,2,3.5.7,4.1-.5-.1-5.5,2.8-5.4,1.3" vector-effect="non-scaling-stroke"/>
    <path class="st1" d="M230,50.4c0-.9-1.7-.9-1.7,0,.3.3-.6,12.9.7,12.2,2.2,1.1.5-11.7.9-12.2" vector-effect="non-scaling-stroke"/>
    <path class="st1" d="M240.6,60.8c-2.3.3-6.7,1.2-6.7-1.9.7-2.3,1.8-9.6,5.6-6.5.9.3.8-1.4.2-1.7-4.7-3.4-6.1,3.1-7.1,6.9-1.3,5.6,3.8,4.8,8.2,4.4.8,0,.6-1.6-.2-1.4" vector-effect="non-scaling-stroke"/>
    <path class="st1" d="M270.9,54.8c-4-7.2-12.3-1.8-11.8,5.2.1.9-3.4.7-3.8.9-3.8.4.3-8.3,0-9.8-2-4.7-2.9,6.2-3.2,8-1.2,5.5,7.4,2.4,9.1,2.8,4.2,1.5,7.1-2.3,10.5-3.3,2.3,6.6,6.7,3.7,10.5,1,2.5-1.8,2-7.4,0-9-.5-.2-2.8,1.4-1.1,1.8,1.9.8,1.4,5,0,6.3,0,0-3.7,2.5-3.7,2.5-4.9.9-4.9-6.4-3.5-9.4.3-.8-1.3-1.2-1.4-.4-.3.3-.5,4.4-1.6,3.3" vector-effect="non-scaling-stroke"/>
    <path class="st1" d="M287.2,53.4c7.4-3.6.9-3.4-2.5-.4-1.9,2.8,6.6,3.2,5.7,6.3-1,2.3-4.1,2.6-6.6,2-4.1,4.2,17.9.4,3.5-7.2-.3-.2-.3-.6,0-.8" vector-effect="non-scaling-stroke"/>
    <path class="st1" d="M215,62.6c0-.6,0-3.5-.2-8.9,0-1-1.1-2.5-2-1.4,0,2.3,1.1,4.1.5,9-.3.9,1.2,2.7,1.6,1.3" vector-effect="non-scaling-stroke"/>
    <path class="st1" d="M190.5,61.5c1.4-1.2-1.9-2.8-2.1-2.1-.7.2.9,3.5,2.1,2.1" vector-effect="non-scaling-stroke"/>
    <path class="st1" d="M180.8,61.7c-.6,1.1.9,1.6,1.7,1.3,1.8-.9-1-2.9-1.7-1.3" vector-effect="non-scaling-stroke"/>
    <path class="st1" d="M295.1,62.6c-.7-1-2.9.6-2.2,1.5.7,1,2.9-.6,2.2-1.5" vector-effect="non-scaling-stroke"/>
    <path class="st1" d="M304.6,79.8c.4-.2-.7,3.3.6,3.4,1.5.3.7-4.5,1-5.1,5.5,2.7,14-4,5.3-8.8-3-1.2-5.3,1.9-7.1,3-.7-.4-1.9-2.2-2.8-1.3-4.6.8-7.7,3.6-6.8,8.8.3,1-2.2,1.1-2.7,1.4-5.6.2.4-7.8-1.9-9.4-2.7,1.2-3.4,12,1.4,11.4,6.5-3.2,8.9,3.3,13.1-3.4" vector-effect="non-scaling-stroke"/>
    <path class="st1" d="M262.9,75c.2-.9-.2-3.2,1.3-3,.9,0,3.7.7,4.3-.2.5-.3.6-1.2,0-1.3-3.5-1-6,.7-8.6.9-2.3-1.6-4.3-2.2-6.1-1.8-4.6,2.2-.8,9.1-1.2,13.3,2.9,1.5,6.2-3.6,8.4-4.3.4.1.1,3.5.2,3.8-.2,2.3,8.4-.3,9.3,0,4-3.2-6.3-.6-6.9-.8-1.3.2-.5-2.9-.7-3.4,0-1,1.7-.6,2.2-.7,1.1,0,.7-2.1-.4-1.9-.5,0-1.8.5-1.8-.4" vector-effect="non-scaling-stroke"/>
    <path class="st1" d="M278.4,73.4c.3,1.8-1,7.4.7,9.7,1.7,1.2,8.6,1.3,9.2-.7.2-.9-6.6,0-6.9-.2-.6,0-1.1-.4-1.2-1,.1-.7-1.2-4.2.3-4.1.5-.3,4.7.5,4.5-.8.3-2.1-3.2-.7-4.2-.8-1.4,0-.9-2.8.1-3.1,1.5-1.1,9.8.6,6.5-2.4-2.7.2-6.7-.5-8.6,1.6-.6.7-1.5-.9-2.1.1-2.1,11.1-1.4,11.5-5.4.6-.2-.7-1.7-.9-1.8,0,4,12.3,6.9,15.2,8.4,1.1.2,0,.6,0,.6.3" vector-effect="non-scaling-stroke"/>
    <path class="st1" d="M169.3,81.1c-2.2-3.4-3.2-5.9-5.1-.4-1.5,2-1.7-9.9-2.1-9.9,0-.5-.6-.6-1-.5-1.9,3.7,1.2,10,2,13.8,1.9,1.3,2.7-4.3,4-3.6,5.1,9.8,5.6-5.1,6-8.8-3-5.4-1.6,11.3-3.8,9.4" vector-effect="non-scaling-stroke"/>
    <path class="st1" d="M198.5,73c.4.8.5,10,2,10,1.7,1.1,8.6-1,4.9-2.3-5.8,3.1-5.8-4.3-.6-3,.7,0,.5-.7.4-1.1-.7-1.6-2.7-.7-4.2-.1-.4.3-.6-3.7-.7-3.7,2.2-2.6,6.8,2.5,7.2-1.8.3-1.3-7.7-.3-8.2-.6-.3,0-.6.3-.6.6h0c0,.3.1,1.9-.6,1.1,0-.8-.4-1.8-1.4-1.3-1-.3-.3,8.7-.5,9-.6,2.7-5.3-8.3-5.7-8.3-3.1-3.3-1.1,12.6-1.6,13,.2.9,1.8,0,1.7-.7,0,0,0-7.4,0-7.4.4-1.2,5,7.2,5.2,7.1,3.4.3,1.4-10.7,2.5-10.5" vector-effect="non-scaling-stroke"/>
    <path class="st1" d="M231.5,73.3c.4,0,2.1-.6,2.1.1.3.3-.6,10.7.6,10.2,2.2.6.7-9.7,1.1-10.5.5-2.1,3.6,0,4.3-1.6-.6-3-6.9.5-8.2,0-1,.1-.8,1.9.2,1.8" vector-effect="non-scaling-stroke"/>
    <path class="st1" d="M208,72.9c1.1.2-.2,7.7,0,8.4-.3,1-2.1,1.4-.7,2.5,2.6.2,8.9.8,8.4-2.3-2.9.6-7.2,2.3-6.2-2.4,0-.4.3-.8.7-.9.6-.3,3.4-.1,3.2-1.3,0-.5-.2-1.1-.8-1-.5,0-2.6.9-2.5-.2-.4-4.1,2.6-2.5,5.2-2.9,1.2.1,1.9-2.2.4-2.1-2.4,1.4-7.7-1.4-7.7,2.2" vector-effect="non-scaling-stroke"/>
    <path class="st1" d="M217.5,84.6c10.6,1,10.9-17.3,0-12.7-2.4,3.1,1.2,7.5-.6,11.8,0,.4.2.8.7.9" vector-effect="non-scaling-stroke"/>
    <path class="st1" d="M175.6,74.4c.9-2.2,4.4.3,5.9,0,0-.1,1.4-1.9.9-2,0,0-7.6-1-7.6-1-2-.8-.6,12.4-1,13,1.8,1.7,6.1-.4,8.1,0,2-.1.4-2.5-1-1.7-2.7.6-6,1.7-5.2-2.6.6-2.3,4.9,0,4.4-3,0-1.4-3,.3-3.6.3-1.3.4-.6-2.5-.8-3.1" vector-effect="non-scaling-stroke"/>
    <path class="st1" d="M241.2,72.2c-7.4,2.5-4.8,15.9,2.5,9.6,3.9-2.7,1.9-8.9-2.5-9.6" vector-effect="non-scaling-stroke"/>
    <path class="st1" d="M275.7,95.5c1.5-2.3,4-1.1,4.5-3.2-.6-3-9.4,3.2-6.5,4.7,1.3,1.2,7.2,2.8,5.7,5.5-.9,3.5-5.9.3-5.2,2.7,2,2.6,7.4-1.1,7.1-3.7-.7-3.7-5.4-3.3-5.5-5.9" vector-effect="non-scaling-stroke"/>
    <path class="st1" d="M214,96.7c.1-.5.9-.5,1,0,1.9,12,6.3,13.2,7.2.3.2-1,2-6.4-.4-4.6-.3.2-2,12.6-2.8,11.9-2.8-2.3-.4-10.1-4.6-9-.1-.8-.6-2.1-1.6-1.5-.5-.3-.9,11.6.2,10.9,2.3-.6-.2-6,1.2-8.1" vector-effect="non-scaling-stroke"/>
    <path class="st1" d="M179.2,100.8c.8-.2,6.9-1.6,3.4-2.7-.9,0-3.4,1.2-3.6-.3-.3-1-.6-2.5.8-2.8.8-.5,7.3-.4,6.4-2.4,0-.4-.6-.6-.7-.5-10.4,1.2-8.1,2.9-8,11.6-2.8,3.9,9.3,4.3,8.9,1.3-1.6-1-4.8.7-6.7,0-.8,0-.5-3.8-.5-4.2" vector-effect="non-scaling-stroke"/>
    <path class="st1" d="M298,99.2c8.6,12.4,4.4-1.6,5.1-6.3-3.1-3.7-.4,7.9-1.5,8-.4,0-4.2-5.3-4.4-5.4-.5-.6-1.5-.2-1.5.5.3.5-.4,10.4,1,9.9,2.4,0-.7-7,1.3-6.8" vector-effect="non-scaling-stroke"/>
    <path class="st1" d="M236.9,101.6l4.6,4c.7.7,2.2-1,2.5,0,1.4,2.6,6-.5,7.6,0,.3,0,.7-.2.8-.5.3-.5.6-3.6,1.5-3.5,1.9.4,3.7-1.4,4.7-.6.1.3.4,5.6,1.1,5.3.3,0,.6-.5.9-.3,2.2.9,6.9,1.4,7.5-1.2-2-1-5.9,1.7-6.1-1.1-.2-.6,3.4-11.5,0-8.6,0,0-1.3,6.6-1.3,6.6-1.3-1.5-4-12.4-7.5-5.6-.1,2.5-2.1,3.7-1.5,5.9,0,.3-.2.5-.4.5-2.1-2.9-10.5-4.8-1.7-6.2,2.1-3.3-6.7.6-6.7-.5-.8-4.3-9-4-8.5,0,0,3.1,1.5,5.4.2,6.8-5,.6-9.7,2.8-8.7-3.1,0-.4.4-.6.7-.4.4.5,5.7,1.4,3.5-.9-1.7-.1-6.3-1.2-3.2-3.3,2.1-1.3,6.1.3,6.7-1.7-.8-1.6-11.4-.2-9.6,2.1,2.4,8.3-4,12.8,10.7,8.7,1.1-.3.5,2.3.7,2.7,2.7,2.4.5-5,1.6-5.1" vector-effect="non-scaling-stroke"/>
    <path class="st1" d="M161.9,107.4c.1-.2,4.5-2.8,4.4-3.1.9-4.3,2-10.3-4.6-11.6-.4-.2-.9,0-1.1.4-3,4.8-5.5,11.5,1.3,14.3" vector-effect="non-scaling-stroke"/>
    <path class="st1" d="M174.4,102.6c-6.9-13.3-6.3-10.2-6.2,2.2,2.6,3,1.2-5.9,1.6-6.5,1.2.8,6.7,13,6.9,5.2-.5-.3.4-13.2-2.6-9.7-.3.1,2.1,10.5.3,8.8" vector-effect="non-scaling-stroke"/>
    <path class="st1" d="M193.4,94.3c-4.3,18.8,10.3,16.1,7.4-.5-.3-1.1-2.2-.3-1.8.7,1.3,3.4.6,12.3-3.7,11.1-2.8-1.7,1.6-15.1-1.9-11.3" vector-effect="non-scaling-stroke"/>
    <path class="st1" d="M209.1,102.8c-.6-.2-5.8-10.9-6.7-7.6.4,1-1.9,10.1.4,9.8,1.5.5.4-6.2.7-6.7,1.4-2.4,5.9,11.3,7.5,6.5-.4-.5,1.3-14.6-1.7-11-.3,0,.9,10.1-.2,9" vector-effect="non-scaling-stroke"/>
    <path class="st1" d="M288.4,95.8c.3.4-3.4,11.9-.4,9.1.8-1,.3-2.9,1.3-3.7.4.1,3.5-.9,3.5,0,.4.8-.1,5.5,1.7,5,1.2-2,0-11.4-3.8-13.1-.5,1.2-12.6-.8-9.7,2.4,1.6.2,1.9-.4,2.3.4,0,0,0,4.1,0,4.1-.5,1.3-1.1,2.6-.4,3.8,3.6,2.7.2-8.3,2.3-8.4.4.2,3.3-.6,3.1.4" vector-effect="non-scaling-stroke"/>
    <path class="st1" d="M312.9,103.6c-.3.9.5,2.8,1.5,1.7.3-.6-.4-2.3.6-2.4.5.2,4.9-.6,4.7.6.2.9-.6,4.1.8,4.3,3.5-1-1.3-16.7-5.6-13.9-.3.4-.8,3.1-1.7,2.2-1.6-2.7-11.5-5.1-8.6.7.3,10.3-2,10.2,8.2,6.8" vector-effect="non-scaling-stroke"/>
    <path class="st1" d="M330.8,107.1c1.4,1.2,2.9-.1,6-.9,4-1.1,4.5-6.7,1.7-9.2-1,0-5.7-3.4-6.6-2-.5.4-1.3,2-2,1.4-12.2-5.2-6.7,1.3-8.1,8.1-.3,1.2,0,2.3,1.4,2.2,1,.2.3-5,.5-5.4.6-2.1,4.4,5.8,4.8,5.8.7,1.2,1.7-1,2.3,0" vector-effect="non-scaling-stroke"/>
    <path class="st1" d="M157.7,116.3c.4,1.6,4.1-1.3,4.3.7.4.3-.8,14,1.9,10.3,0-.2-.4-10.8-.3-11.1,1.2-1.9,6,1.1,5.3-1.7.3-1.6-9.8.8-10.4.5-.6,0-.9.7-.8,1.3" vector-effect="non-scaling-stroke"/>
    <path class="st1" d="M238.2,121.7c8.8-3.6-2.9-12.2-5.9-4.3,0,0,.7,10.7.7,10.7,0,.9,1.5.9,1.5,0,.1-.3-.7-10.8-.2-10.8,1.7-3.2,8-.3,4.9,2.5-1,1-3.9.5-3.8,2.4,1.9,5.1,16.6,10.1,13.5,1.7-.1-.8-5-2.3-3.8-4,0,0,3.3-2.2,3.3-2.2.4-3.3-8.7,2.2-4.8,4.3.6.8,6.5,2.5,4.4,4.2-.8.5-2,1.6-2.9.7-1-1.2-1.8-.1-2.7-.6-.1-.5-5.3-3.7-3.9-4.4" vector-effect="non-scaling-stroke"/>
    <path class="st1" d="M177.5,127.2c.3,0,.5-.2.5-.5-.5-5.7,1.3-3.6,5.5-4.6,2.6.4,0,8.9,3,5.3,1.6-5.7-6.2-11.6.9-10,2.6-.2-1.2,13.7,2.7,10.2,0,0,0-9.7,0-9.7.6-1.4,3.3-.3,4.1-1.8.6-.6,0-1.6-.8-1.2-.8.6-7.3.6-10.4,1-1.3-1.2-4.4-2.2-5,.1-.6,4-3,9.6-.3,11.2" vector-effect="non-scaling-stroke"/>
    <path class="st1" d="M205.6,116.9c0-.7,0-1.6-.7-1.9-4.9-2.5-6.6,5.1-6.3,8.1,1.2,8,5.6,3.4,10.2,3.5,7.8,3.9,7.3-12.6.5-11.2-5.7,2.9-1.7,6.2-3,10.1-8.9,6-7-12.8-1.4-8.3.2.3.7,0,.7-.3" vector-effect="non-scaling-stroke"/>
    <path class="st1" d="M297.9,128.2c.4,0,.6-.3.6-.6-.6-5.8,1.4-7,4.1-11.6,0-5.2-4.5,4.2-5,4.8-1.3,1.2-3.3-4.9-4.6-3.9-.8,2.5,3,4.2,3.8,7.6.2.6-.6,3.9.7,3.8h.3" vector-effect="non-scaling-stroke"/>
    <path class="st1" d="M222.7,116.6c3.5,9-4,12.1,7.1,11.2.9,0,1.4-.8,1.8-1.5-.6-1.7-5.6,1.4-6.4-1.2-.3-3.9.2-3.2,3.6-3.2.9.1,1.5-1.6.4-1.7-1.8.2-6.6,0-3.7-2.7,1.3-1.3,5.8.1,6.5-2.1,0-.5-.4-.9-.9-.8-.2.3-9.1,1.1-8.5,2" vector-effect="non-scaling-stroke"/>
    <path class="st1" d="M330.6,114.8l-1.7,3.6c1.3,2.5,4.5-4.1,1.7-3.6" vector-effect="non-scaling-stroke"/>
    <path class="st1" d="M288.6,121.8c8.4-3.5.2-8.9-5.3-5.6-.7-1-6.6.3-7.5.2-.8,0-1.5.8-1.4,1.7,1.2,10.1-3.2,12.3,7.9,10.3,1-.2,1.6,1.6,2.6.6.8-.6-.4-6.5,1.5-5.7.7.1,5.9,5.7,6.6,4.3,1.3-1.8-5.5-4.2-4.2-5.7" vector-effect="non-scaling-stroke"/>
    <path class="st1" d="M218.3,124.4c-.6-1-1.7-8.7-3.5-8.5-1.7-.7,2.9,11,2.7,11.2.3,1.1,1.9,1,2.2,0-.2-.9,4.7-12.4,1.4-11.3-.3.1-1.9,9.5-2.7,8.6" vector-effect="non-scaling-stroke"/>
    <path class="st1" d="M269.9,125.6c-.7-.6-3.9-9.4-5.3-6.3,0,.2,5.2,9.3,5.2,9.5.6.6,1.3,0,1.7-1,.7-.7,4-16.1.3-11.3-.1,3,.3,8.3-1.9,9.1" vector-effect="non-scaling-stroke"/>
    <path class="st1" d="M167.7,121.1c-.1-.5.7-3.5-.2-3.5-.4-.1-1-.1-1.1.4.4.6-.9,10.2.8,9.8,1.7.2.4-2.9.5-3.6-.3-1.3,4.5-1.3,5.1-1.7,1.7.2,0,5.7,2.2,5.7,1.7-2.6-1-8.4.1-11.9,0-.6-.6-.8-1-.6-1.5,0-.5,3.5-.7,4.3.2,1.3-4.4,1.3-5,1.7-.3,0-.6-.2-.6-.5" vector-effect="non-scaling-stroke"/>
    <path class="st1" d="M310.3,123.8c.2-.2-1,6.7,1.5,4,0,0,0-5.1,0-5.1,1.1-1.9,5.3,8.6,6.4,4.6-.4-.4,1-12.5-.9-11.3-1.8-.1.5,9.2-1.2,8.5,0,0-4.8-6.1-4.8-6.1-1-.7-1,1-1.8,1.2-11.1-12.1-11.6,18.1.9,4.4" vector-effect="non-scaling-stroke"/>
    <path class="st1" d="M262.3,121.6c-.3-1.5-4,.6-4-1.3,0-.8-.3-2.4.9-2.4.9-.2,8.5.5,6.3-1.9-.3.3-9.7-.3-9.1.9,2.7,10-5.2,13.7,8.6,11.1,4.8-3.6-4-.7-6-1.1-1.3,0-.6-2.4-.8-3.1,0-1.9,4.4,0,4.1-2.2" vector-effect="non-scaling-stroke"/>
    <path class="st1" d="M322.1,122.2c-1.3-.3-1.5-2.2-.3-2.7,1.8-1.5,4.6.2,5.6-1.4.3-2.4-9-1.3-8.5,1.9.7,4.6-2.3,9.8,2.9,9.2,1.4,0,3.5-1.2,4.5-.7.5.2.9-.3.7-.8-1.4-3.5-7.3,2.8-6.2-3.1,0-1.1,2.3-.5,2.9-.7.6,0,.8-.6.7-1.1,0-1.2-2-.6-2.3-.6" vector-effect="non-scaling-stroke"/>
    <path class="st1" d="M335.1,125.3c1.9,2.8-8.8,1-5.7,3.9,2.6,0,9-1.3,6.8-4.7-3.9-3.1-5.8-4.6.5-6.6,1.2-3.4-5.6.3-6.4,2.2-1.5,2.8,3.7,3.3,4.7,5.1" vector-effect="non-scaling-stroke"/>
    <path class="st1" d="M225.4,135.4c-3.4-1.1-10.3,2.6-5.2,6,2.6,1.9,5.8,2.2,5.2,4.5-1.2,1.9-3,.2-4.5.5-.3.6-.2,1.5.5,1.7,2.6,1.4,7.3-1,5.5-4-1.1-2.5-8.1-3.5-5.9-6.1.4-.4,7-1.3,4.5-2.6" vector-effect="non-scaling-stroke"/>
    <path class="st1" d="M211.3,148.2c.2-.5.1-4,1-4.1.7,0,4.5-2.1,4.8-.7.3.4.5,5.4,1.5,5.1,3.4-1.7-3.1-15.9-6.2-12-1.7,4.3-1.1,12-8.1,9.9-4-3.5,1.8-11.3,5.5-8,.6-8.5-14.6,3.4-6.2,9.6,1.9,1.4,4.7-.9,6.2-.5.3.4,1.1,1.5,1.4.5" vector-effect="non-scaling-stroke"/>
    <path class="st1" d="M176.4,140.9c1.1,1.6,3.6,1.1,5.3,2,3,2.7,2.3,5.4-1.9,5.9-1.1.2-1.8-2.9-2.8-1.2-.4,4.1,5.3,3.3,7.1,1.2,1.4,0,2.6,2.3,3.9,1.5,2.7-1.2,6.6-.3,7.2-3,.4-1.2-7.3,1.1-7.5.9-1.6.3-1.3-2.2-1.5-3.1,0-2.1,4.7-.1,4.6-2.3-.5-1.5-1.7-.9-3.7-.5-1.2.1-.6-1.9-.5-2.4,0-.9,6.2-1,6.7-1.3.8,0,1.4-1.7.4-1.8-1.6.6-9.6-.7-9.2,2.6,0,.8.9,2.9-.2,3.8-1.5-2.5-4-2.4-6.1-3.2.6-1.6,2.4-2.4,4.1-2.3,3.5-2.9-5.5-2.4-6.5,1.9-1.3.2-1.1-3.6-2.7-3-2,1.9,4.9,7.3-1.9,11.4-6.9,1.3-2.8-7.7-5.1-10.1-2.8,2.4-1,9.9,2.4,12,6.6,1.5,6.7-5.5,7.9-9.1" vector-effect="non-scaling-stroke"/>
    <path class="st1" d="M232.8,143.6c2.2-1.8-1.4-2-2.5-1.7-1.2,0-1.4-2.8-.2-2.8-.4-.3,5.7.9,6.3-1.3,1.2-1.8-8.7-.2-9-.6.5,3.4.2,7.8.2,11.5,2.9,2.8,6.7-.1,8.9.4.4.1.6-.3.7-.7.1-.3.5-.3.6,0,2.1,4.2,7.8.3,8.2-3-.3-5-9.8-3.4-5.7-6.3,1.7-1.7,6.1.9,6.9-1.9-3.2-1.9-11-.9-10.2,4.2,1.2,2.6,9.9,1.1,6.2,5.7-4,3-3,0-5.4-.7-1.6.4-6.9,3-8.6.6-.2-4,0-2.9,3.4-3.5" vector-effect="non-scaling-stroke"/>
    <path class="st1" d="M285.7,158.6c.9-.1.3-5.5.5-6.1,0-1.3,7.7-8.8,3-8.3-3.8,4.7-2.3,9.7-7.5,2.2-3.8-1,2.1,5.1,2.4,5.7,1.3.9-1.1,7.5,1.6,6.5" vector-effect="non-scaling-stroke"/>
    <path class="st1" d="M307.9,158.1c1.8,1.7.8-4.7,1-5.1,0-.3,4.5-2.1,4.5-1.6.3.3-.4,7.5.3,7.5.3-.1,1.5.3,1.5-.3,0,0,0-13.3,0-13.3-2.8-2.7-.8,3.2-1.7,3.8-6.7,2.4-3.6,2.5-5.8-2.7-.2.1-1.3,0-1.2.5,0,0,1.4,11.1,1.4,11.1" vector-effect="non-scaling-stroke"/>
    <path class="st1" d="M299.5,156.3c.2-.7-.2-2.8.9-2.8.6.2,4.1-.7,4.1.5.3.6,0,4.3,1.2,4,1.7-1.1,0-4,0-6.6-.2-3.3-3.1-6.5-6-6-.2.2-2,10.4-2.2,10.7-.2.9,1.8,1.1,1.9.2" vector-effect="non-scaling-stroke"/>
    <path class="st1" d="M319.3,146.4c0-1.1-1.8-1.2-1.8,0,.2.7-1.5,11.4,1.4,7.5,0,0,.4-7.4.4-7.4" vector-effect="non-scaling-stroke"/>
    <path class="st1" d="M291.5,152.8c.5-.2,4.2.5,4.1-.6.3-1.7-2.8-.8-3.6-1-2.2-.7.9-3.4,1.9-3.6.7-.3,2.6.3,3.4.4,6.6-.6-10.6-8.6-8.1,9,.5,2.8,7.3,2.8,8.5.4-1.2-2.1-5.6,1.7-6.9-.8.2-.4-.2-3.9.8-3.8" vector-effect="non-scaling-stroke"/>
    <path class="st1" d="M249.5,146.5c-1.1-.6-2.5,2-1.3,2.6,1.1.6,2.5-2,1.3-2.6" vector-effect="non-scaling-stroke"/>
    <path class="st1" d="M318.4,157.2c-.6.1-.9.9-.7,1.7h0c1.3,3.6,3.5-1.7.7-1.7" vector-effect="non-scaling-stroke"/>
    <path class="st1" d="M185.6,158.2c0,6.1,2,17,9.3,16.6-9.8-6.4-6.9-19.7-9.3-16.6" vector-effect="non-scaling-stroke"/>
    <path class="st1" d="M222.5,162.2c-21.9-8.7-30,19.1-11.2,28.1,16.6,7,25.6-20.7,11.2-28.1" vector-effect="non-scaling-stroke"/>
    <path class="st1" d="M304.4,164.3c-1.7-3.4-1.8,5.3-1.8,8.1-.4,3.4-3.9,5.3-4.5,7.4,6.7-1.6,5.1-9.7,6.3-15.5" vector-effect="non-scaling-stroke"/>
    <path class="st1" d="M277.9,206.2c1.3.7,10.4,15.6,12.5,13.5,1.6-1.4-2.1-2.3-2.7-4.1-7.8-9.4-7.7-10.6-11.5-16.5-.3-.2-.3-.6,0-.7,5.9-1.9,9.6-7.4,10.8-13.2-.7-9,7-8.9,6.2,0-.6,3.7-5,6.5-5.7,9.8-.3.3-.6,3.4-1.3,3.2-1.5-1.1-.5-4-2.1-4.6-2.6,2.5,1.8,7,2,9.7.2,1.2,2.1,1,2-.2-1.3-10,11.9-17.1,4.4-26.2-2.1-1.2-5,.3-6.3,1.7-3.8-3.7-9.6-6.9-15.5-6.9-2.7-.1-9,2-7.9,4.7,1.7.2,1.5-.1-.6-.9-3.8,6.7-1.7,20.2,7.4,23.5.3.2,5.7-.7,5.6.2-4.2,7.2-7.1,15.7-12.3,21.8,2.6,6.2,11.1-17.4,12.5-16.5,0,.5-1.2,17.5-1.4,18-5,18.3-10.7,23.5-11.9,44.4.6.1,1.3-.2,1.4-.9,1.3-7.8,3.1-15.4,5.6-22.6,6-15.7,6.2-26.7,10.4-5.9,3.9,10.2,5.9,23.2,12.1,29.9-2.9-14.2-8.9-20.1-11.6-36.3-.7-3.7-3.2-9.4-3.5-11.3.4-.2-.2-14.9,1.3-13.6" vector-effect="non-scaling-stroke"/>
    <path class="st1" d="M209.7,197.2c0,.5,1.4,24.4,1.1,24.9.6.9-13.1,43-10.7,43.2,2.4-.3,2.6-5.5,3.2-6.3,4.8-15.3,6.3-28,9.4-33.4,6.5,12.8,9.1,26.4,13.3,39.6,4.1,1.3-6.1-25.4-6.8-28.3-7.2-17.6-7.6-21.9-6.9-38.2.3,0,10.5,19.1,10.6,19.1,8.2,5.9-12.3-25.3-11.3-25-4.2-5.7-11.4,26.1-9.4,25.6,3.3-.6,3.7-17.7,7.4-21.2" vector-effect="non-scaling-stroke"/>
    <path class="st1" d="M365.8,44.8c.9,6.2-3,18.7,1.6,22.9.5-.4,55.3-1,55.2-2.3.7-5.5-1-11.9-.2-17.3-.4-.5-.3-5-1.4-4.8-15.9,1.9-39.2-.3-55.2,1.5" vector-effect="non-scaling-stroke"/>
    <path class="st1" d="M384.1,116.8c-4.5-.2,5.1,10.1,10,2.9,4.5-6.5.4-13-7.8-8.9-.6.2-1.3-.2-1.3-.9,0-5.9,5.9-8.1,9.5-4.3.7-.1,1.3-.7,1-1.5-3.7-7-15.7.3-11.8,7.9,1.1,2.6,5.8-.2,7.6-.4,7.2.5-1.3,14.9-7.1,5.2" vector-effect="non-scaling-stroke"/>
    <path class="st1" d="M441.3,105c1.8.4,9.3.7,6.8-2.5-4.1,1.9-9.3.2-13.4,1.5-.3,0-.5.5-.2.7.8,1.5,3.8-.4,4.5.7.5.4-1.4,16.7,1.6,13.1h0c.4-.4-.8-13.9.7-13.4" vector-effect="non-scaling-stroke"/>
    <path class="st1" d="M466.2,107.9c.3.5,1.5,4.3,1.9,4.7,11.6,18.3,6.3-2.3,7.5-9.1-3.8-4.1-1.1,11.6-2.4,12-4.5-4.5-4-6.1-6.3-11.1-4.6-3.9-2.5,14.4-3.7,14.2,2.9,4.4,1.9-12.1,3.1-10.7" vector-effect="non-scaling-stroke"/>
    <path class="st1" d="M408.2,105.7c.8-.3,5.2.7,5.1-.8h0c.1-.7-.4-1.4-1.1-1.3-1.3,1.2-11.5-2.3-11.5,1.4,1.4.3,4.7-.8,5.6,1.5,0,0-.9,12.4-.9,12.4,4.5,6.5.9-13.3,2.9-13.1" vector-effect="non-scaling-stroke"/>
    <path class="st1" d="M433.4,113.9c.4.7.5,7,2.1,6.5.6,0,1.2-.4,1.1-1.1-1.1-3.6-1.6-19.2-8.3-15.1-2,2.9-7.1,19.3-3.2,15.8.4-.6,1.1-6.6,2.4-6.4.4.2,6-.7,6,.3" vector-effect="non-scaling-stroke"/>
    <path class="st1" d="M461,108.3c-7.2-8.5-13.3-2.7-12.7,5,1.5,11.2,16.8,3.8,12.7-5" vector-effect="non-scaling-stroke"/>
    <path class="st1" d="M412.6,108.1c-.4,0-.8,0-.9.5-3.7,11.9,7.7,15.5,11.6,5.2.1-3.4,1.6-8.9-1.9-8.8-1.1.8,1.4,7.7-1.2,10.3-2.7,3.3-7.8,3.2-7.4-1.6,0-3.1.7-4.8-.2-5.7" vector-effect="non-scaling-stroke"/>
    <path class="st1" d="M400.3,106.3c0-1-1.8-1-1.8,0,.5.6-1.3,13.4,1,12.3,1.5.7.5-11.9.8-12.3" vector-effect="non-scaling-stroke"/>
    <path class="st1" d="M479.8,106.7c-1.3-.8-2.9,1.7-1.5,2.5,1.3.8,2.9-1.7,1.5-2.5" vector-effect="non-scaling-stroke"/>
    <path class="st1" d="M445.6,108.4c0-1.2-1.9-1.2-1.9,0,.4.7-1,11.1.8,10.8,2,.5.6-10,1.1-10.7" vector-effect="non-scaling-stroke"/>
    <path class="st1" d="M480.1,115.6c-.9-1.2-3.4.7-2.5,1.9.9,1.2,3.4-.7,2.5-1.9" vector-effect="non-scaling-stroke"/>
    <path class="st1" d="M386,134.8c.2-.3,11.2-.9,11-1.6,0-.7-.2-1.6-1.1-1.5,0,0-9.5,1.2-9.5,1.2-.9,0-1.1,1.7-.4,2" vector-effect="non-scaling-stroke"/>
    <path class="st1" d="M419.2,140.1c3.8.2,5.9-3.1,4.4-6.6-1.9-2.3-7.9-1.8-8.4,1.4-.2.5,1.9,9.6.6,9.4,0,0-6.6.2-6.6.2-1.5.1-1.2-2.6-1.4-3.5,0-1.8,4.6.5,4.1-1.5-.4-2.2-3.9,0-4.6-1.7,0-1.2-1.6-2.1-.8-2.9,2.3-2.1,4.8-.9,7-1.2,2.5-2.5-2.6-1.3-4.1-2-.6-.3-2.6,1.2-3.1,1.4-2.9,1.1.6,9.3.4,11.3.2,1.1,1.1,1.9,2.2,2,1.9,0,5.9.8,7.4-1.2.3-.9,1.7,0,1.7-1.1,0-.4-.9-1.7-.2-1.9,1.2-.2,5.4,5.1,6.7,3.9,1.7-1.5-6.4-4.8-5-5.9" vector-effect="non-scaling-stroke"/>
    <path class="st1" d="M459,139.8c8.6-4.2,1.7-10.5-4.7-7-2.8,3.1.9,7.5-.4,12.2-.1.8,1.3,1.3,1.5.5.3-.3-.6-5.7.6-5,.7.2,8.6,9.1,7.6,4.2-.1-.5-6-4.3-4.6-5" vector-effect="non-scaling-stroke"/>
    <path class="st1" d="M451.1,140.4c.2.3.1,5.4,1.1,4.9,2.2-1.7-.3-5.9-.1-8.6-.5-3.6-2.6-5.1-6.1-4.6-2.8,4.5-3.4,9.7-3.7,13.6,0,.6.6.6,1.1.5,1.8-.6-.7-5.3,1.6-5.6.6.2,6.1-1.5,6.1-.1" vector-effect="non-scaling-stroke"/>
    <path class="st1" d="M428.2,140.8c.2-.8,4.8-.2,4.8-1.3-.9-3.3-5.3,2.1-5.3-3.4,0-.5.3-1,.8-1.1.6-.3,9.2-.2,5.6-2.4-1.1.6-9.9-.5-8.7,2.4,2.3,3.7.3,8.8,2.4,11.8.9-.4,11.8,1.3,9.4-1.8-.3-.2-8.3,0-8.6,0-.8.2-.2-4-.4-4.3" vector-effect="non-scaling-stroke"/>
    <path class="st1" d="M466.6,139.7c.7-.3,5.6.8,4.2-1.2-.8-1.9-4,.6-4.5-1.1,0-.7-.5-2.5.7-2.6,0,0,6.1-.3,6.1-.3,1.2,0,1.1-2,0-1.8-3.3.8-8.9-1.5-8.7,3,1.2,3.2-.6,8.1,1.3,10.2,2.8-.2,9.3,0,7-2.2-.5-.3-6.2.6-6.1-.6.1-.6-1-3.5.2-3.4" vector-effect="non-scaling-stroke"/>
    <path class="st1" d="M396.9,139.5c-1.3.2-.8-2.3-.9-3,0-1.1-2.1-1.2-2,0,.4.3.4,11.7,2.3,8.7.9-1.8-1-3.2.4-3.9.5.2,6-1.3,6-.2.3.5,0,5.7,1.3,5.4.5,0,1-.4,1-.9-.6-.6-.4-14.3-3.1-11.4,1.4,6.6.5,4.1-5,5.2" vector-effect="non-scaling-stroke"/>
    <path class="st1" d="M391.6,146.7c1.2.3,0-10.6.2-11,0-.5-.4-.9-.9-.9-2.2.3.5,8.1-.8,11.3,0,.9.9.9,1.5.6" vector-effect="non-scaling-stroke"/>
    <path class="st1" d="M383.5,159.9c.5-1.6-.7-3.1.2-3.9.2-.1,6.8.5,7.1.5,4.4-2.8-4.9-2.3-6.3-2.3-2.2,0-3.4.7-2.9,3.1.9.8-.9,8,1.6,6.6,6.2-8.2,10.7,9.7-1.1,4.2-.4.8,0,2.1.9,2.4,6.4,2.9,11.1-4.6,6.5-9.5-2-2.4-5.1.3-6-1" vector-effect="non-scaling-stroke"/>
    <path class="st1" d="M407.3,165.4c-1.6.5-5.6,2.6-7,.6-1.1-4.2,2-13.6,6.8-8.5,3.7-.2-3.1-5.1-4.9-2.7-6,4.8-5.9,17.9,4.5,12.6.8-.1,1.9-2.1.6-2" vector-effect="non-scaling-stroke"/>
    <path class="st1" d="M377.4,155.9c.4.5-.9,15,.8,14.3.9,0,1.8-1.4,1.2-2.3-1.9-.2,2-16.3-2.1-12" vector-effect="non-scaling-stroke"/>
    <path class="st1" d="M440.6,159.1c.2.6-.6,8.7.5,8.7,1.4,1,10.3-.3,9.3-1.7-1.1-2.3-8.1,2.8-8.3-1.1.1-.5-.4-2.6.5-2.5.6-.2,3.5.5,3.7-.5.8-1.8-2.4-1-3.2-1.1-4.2-2.1,3.7-4.1,5.8-2.8,1,1.3,2.8-.7,3.7.2,1.2,3.1-.8,7.3.6,10.1,2.1,1.7.9-10.3,1.3-10.7.4-1.5,4.8.4,5.2-1.1,1.6-3.1-16.6,1.2-18.1-.5-.9-.8-1.2.9-2,.5-2.2-1.9-7.4-1.7-9.4.5-.4.5-.4,1.2.2,2,1.9,1.8-.3,7.3,1.4,9,1.6,0,.8-3.1,1-4,2.2-1.5,4.9-1.9,7-5.1.2-.3.7,0,.7.3" vector-effect="non-scaling-stroke"/>
    <path class="st1" d="M419.8,159.6c.7-2.1,2.6,2.1,3.3,1.8.6.2,1.3-.3,1.9-1.4,4.4-7.4,2,3.7,2.6,5.2-.2.9,1.7,2.6,2,1.3-1.5-3.2,2.7-11.7-3.6-10.9-.9,0-1.8,2.5-2.3,3-1.3,1.5-4.7-5.3-5.6-2.3.5.6-1.4,14.5,1.5,12.1.2-.3,0-8.6,0-8.9" vector-effect="non-scaling-stroke"/>
    <path class="st1" d="M465,160.2c.7.4,5.4,9.6,6.6,8.4,1.1-.2,2.1-12.4-.4-13.2-1.2-.6,0,9.2-.3,9.5-2.5.8-6.3-11.9-8.3-8.6.4.5-1.2,15.2,1.7,11.3.3-.1-.7-8.7.6-7.5" vector-effect="non-scaling-stroke"/>
    <path class="st1" d="M480,161.3c-.9,0-1.2,1.2-.4,1.6.7.5,3.1-.3,3.1,1.4-.4,3-2.3,4.2-4.9,2.8-5.8-4.8-.1-11.8,6.3-9,5.8-2.1-8.1-3.3-9.2-.4-2.9,4-1,11.3,4.6,11.6,5.5.4,7.4-9.1.4-8" vector-effect="non-scaling-stroke"/>
    <path class="st1" d="M414.4,156.7c-7-3.6-8.4,14.2-.7,11.2,4.2-1.8,5.3-9.1.7-11.2" vector-effect="non-scaling-stroke"/>
    <path class="st1" d="M460.2,159.3c0-.4-.4-.8-.8-.8-1.9-.5-.4,9-.8,9.7,2.9,4,1.3-8.4,1.6-8.9" vector-effect="non-scaling-stroke"/>
    <path class="st1" d="M445.2,184.6c-.8-1.2-4.5-10.4-8.3-7.6-.3.4-2.6,11.3-2.8,11.7-.3,1.1,1.4,2,1.8.8,0-.1.5-2.6.5-2.8,1.5-1.1,4.5,0,6-1.6,1-3.1-5.3,1-5.7-.8.7-.8.8-8.1,3.2-5.2,3.7,3,3.3,7.5,4.1,11.4,3.4,0,3.5-1.2,2.7-4.4-.1-2.1,6.1,4.7,6.5,4.6,7.3,1.9,16.8-10,5.8-12.8-9.1-1.4-.9,9.1-4.3,11.1-.6.4-5-4.1-5.5-4.3-.5-1.1,1-1,2.4-1.9,5.6-4.1-3.8-7.5-6.9-4.3-.9,1.7,1.1,4.6.5,6" vector-effect="non-scaling-stroke"/>
    <path class="st1" d="M402.5,179.5c.6-.3,4.4-.3,4.1-1.5,0-.5-.1-1.1-.7-1.1,0,0-9,1.7-9,1.7-3.9-4.1-12.3,5-6.2,7,1.3.5,7.3-.2,6.2,2.6-4,7.6-5.9-2.6-7.1,1.4,1.8,8.1,12.6-1.4,7-4.6-2.8-.8-9.2-.4-4.3-4.6,1.9-2.5,4.5.5,6.7-.3.4-.1.8,0,.9.4.5.9-1.4,11.3.7,11,1.9-.5,0-11.5,1.7-12.1" vector-effect="non-scaling-stroke"/>
    <path class="st1" d="M415.4,189.1l-3.8-10.2c-5-6.9-10.5,15.9-5.9,11.1.3-.6,0-4,1.2-3.9,3.6.6,4.8-.9,6,0,1.2,7.5.8,2.3,3.1,4.7,2.6,0,1.1-7.9,1.6-7.5.3-.8,4.2,6.2,4.5,6.2,2.1,2.2,2.8-10.1.8-12.2-1.2-.2-.4,8-.7,8.5-1.6.7-2.7-4-4.7-7-3.4-2.6,0,9.3-2.1,10.3" vector-effect="non-scaling-stroke"/>
    <path class="st1" d="M426.2,191c12.3-1.6,11.6-16.1-1.6-12.6-.9-.8.9,13.6,1.6,12.6" vector-effect="non-scaling-stroke"/>
    <path class="st1" d="M471,179c.2-2.6-9,1.4-6,3.8,7.3,3,6.5,7.6-1.3,6.3-.5-.1-.8.5-.7.9,1.5,3,10.6,0,8.9-3.6-3-4.4-8.3-4-.9-7.4" vector-effect="non-scaling-stroke"/>
    <path class="st1" d="M473.5,185.9c-1.8.2-1.2,4.1.5,3.8,1.8-.2,1.2-4.1-.5-3.8" vector-effect="non-scaling-stroke"/>
    <path class="st1" d="M367.8,65.2c.6,1,52.6-.7,53.1-1.7.3-4.8-1.1-9.3-.2-14.5,0-.7,0-3.3-1.4-3.9-22.4,1-36.2,1.8-50.4.2-3.3,2-1,15.5-1.1,19.8" vector-effect="non-scaling-stroke"/>
    <path class="st1" d="M383.6,57.4c1.5,4.5,5.5,3.6,8.3.9,7.1,9.6,15.8-5,4.7-8.3-1.9-.9-3.1,1.3-3.8,2.7-.6,1.1-3-2-3.5-2.2-3.4-1.1-6.3.9-6.7,4.2-2.1.4-5.1-1.8-7.4-.4-3.8-.7-.4-6.5,3.7-5,1.3.2,3.2,2.8,4,.9-3.3-6.4-15.3-.6-9.6,5.6,2.2.5,4.4-1,7.5.5,1.5,1.6-.5,4.1-2.1,5-3.6,2.3-4-2-6.1-3-.2,7.8,10.3,5.9,10.3-.9,0-.3.4-.4.5-.1" vector-effect="non-scaling-stroke"/>
    <path class="st1" d="M404,52.6c1.2-1,2.7,8.7,5.3,8.5,3.4,1.3,1.4-10.7,2-11.9,0-.5-.6-.8-1-.5-1.3,0-.4,9-.7,9.7-1.5,2.3-4.3-11.2-6.1-9.9-.9-.2-1,10.2-1.2,10.6,0,.5,1.1.6,1.2,0,0-.1.5-6.2.5-6.3" vector-effect="non-scaling-stroke"/>
    <path class="st1" d="M415.2,51c-1-.7-2.5,1.6-1.5,2.2,1,.7,2.5-1.6,1.5-2.2" vector-effect="non-scaling-stroke"/>
    <path class="st1" d="M415,57c-1.1-.5-2.2,2.1-1.1,2.6,1.1.5,2.2-2.1,1.1-2.6" vector-effect="non-scaling-stroke"/>
    <path class="st1" d="M395.1,51.1c-3.2,2.7-2.5,10,2.9,8.8,5-2.2,1.2-8.5-2.9-8.8" vector-effect="non-scaling-stroke"/>
    <path class="st1" d="M390.9,54c-3.2-5-8.9-1.4-5.8,3.5,2.3,4.2,7.1-.4,5.8-3.5" vector-effect="non-scaling-stroke"/>
    <path class="st1" d="M218.3,51c.3.2.6,12.5,1.7,11.8,8.4-.7,5.5-14.8-1.7-11.8" vector-effect="non-scaling-stroke"/>
    <path class="st1" d="M270,56.5c-2.2-5.9-8.9-3.4-9.4,1.9.2,4.9,9.5,1.7,9.4-1.9" vector-effect="non-scaling-stroke"/>
    <path class="st1" d="M306.7,76.8c7.7,2.7,9.3-7.4,1.3-5.3-1.6.7-2.9,3.6-1.3,5.3" vector-effect="non-scaling-stroke"/>
    <path class="st1" d="M301.9,72.8c-5.9,1-8.1,8.8-.9,8.7,2.5-1.2,3-6.9.9-8.7" vector-effect="non-scaling-stroke"/>
    <path class="st1" d="M253.2,72.2l.6,7.2c1.6,2.9,6.2-1.4,5.5-3.9.5-2.8-4.9-6.6-6.1-3.3" vector-effect="non-scaling-stroke"/>
    <path class="st1" d="M260.8,73.7c.2,0,.6-.2.3-.4-.3-.2-.7.2-.3.4" vector-effect="non-scaling-stroke"/>
    <path class="st1" d="M261.3,76.7c-.3,0-.5.2-.3.4.3.2.4-.1.3-.4" vector-effect="non-scaling-stroke"/>
    <path class="st1" d="M219.2,82.9c7.3-.5,5.8-14-.9-9.2.2.3.2,9.3.9,9.2" vector-effect="non-scaling-stroke"/>
    <path class="st1" d="M241.7,74.8c0,1.9-3.8-.8-3.3,5.4,1.3,3.7,5.7,1,6.2-2.2,0-1.5-1.8-4.7-2.9-3.2" vector-effect="non-scaling-stroke"/>
    <path class="st1" d="M236.7,98.5c9.7-3,.4-5.5-.7-2.8.2.5-.5,3.3.7,2.8" vector-effect="non-scaling-stroke"/>
    <path class="st1" d="M254.4,99.6c.3-.2,3.1,0,2.9-.7-.1-1.6-1-3.1-2-3-.9-.2-2.1,2.8-.9,3.6" vector-effect="non-scaling-stroke"/>
    <path class="st1" d="M242.1,96.9c-.2,1.9-4.8,1.7-3.9,3.5,1.2.7,3.9,4.6,5.7,3.2,1.7.7,1.8,2.3,5.2.7,2.1-3.7-5.9-3.4-6.2-7.4-.1-.3-.6-.4-.8,0" vector-effect="non-scaling-stroke"/>
    <path class="st1" d="M162.9,95.3c-4.5.3-5.3,9.1-1.1,10,4.3-.2,5.2-11.4,1.1-10" vector-effect="non-scaling-stroke"/>
    <path class="st1" d="M289.9,99.2c.3-.2,2.8.2,2.4-.6-.2-5.2-3.7-3.2-2.4.6" vector-effect="non-scaling-stroke"/>
    <path class="st1" d="M305.9,95.5c.3.4-.5,9.1.9,8.5,8.7-.4,5.6-11.1-.9-8.5" vector-effect="non-scaling-stroke"/>
    <path class="st1" d="M314.6,100.5c2.8,1,6.5,1.8,4-2.4-2.6-4.2-3.6-.5-4,2.4" vector-effect="non-scaling-stroke"/>
    <path class="st1" d="M323.4,96.9c.3,1.1-.4,2.9,1.5,2.3,6.6-.7,2.3-4-1.5-2.3" vector-effect="non-scaling-stroke"/>
    <path class="st1" d="M332.4,97.4c.2.3-.5,8.7.6,8.1,8.3,0,6.2-10.1-.6-8.1" vector-effect="non-scaling-stroke"/>
    <path class="st1" d="M330.7,105.8c.3-5.4,1-9-4.2-4.9.4,0,3.6,6.7,4.2,4.9" vector-effect="non-scaling-stroke"/>
    <path class="st1" d="M71.8,111.6c1.7-.1-1.2-7.6-2.8-6-1.7,5.1-5.6,7.7,2.8,6" vector-effect="non-scaling-stroke"/>
    <path class="st1" d="M432.4,111.6c1.7-.1-1.2-7.6-2.8-6-1.7,5.1-5.7,7.7,2.8,6" vector-effect="non-scaling-stroke"/>
    <path class="st1" d="M94.4,106c-4.2-2.5-6.1,6.2-4.3,8.7,2.5,5.4,9.4.1,8.8-4.4-.8-1.9-3.6-2.6-4.5-4.4" vector-effect="non-scaling-stroke"/>
    <path class="st1" d="M455,106c-4.2-2.5-6.1,6.2-4.3,8.7,2.5,5.4,9.4.1,8.8-4.4-.8-1.9-3.6-2.6-4.5-4.4" vector-effect="non-scaling-stroke"/>
    <path class="st1" d="M178.9,121c.2-.2,4.5-.2,4-1-.8-6-6-3.6-4,1" vector-effect="non-scaling-stroke"/>
    <path class="st1" d="M209.7,117.2c-3.5.5-2,9.5,1.5,8.8h0c3.5-.5,2-9.5-1.5-8.8h0" vector-effect="non-scaling-stroke"/>
    <path class="st1" d="M285.1,117.9c.2,1.5,0,3.5,2.1,2.8,4.6-.4,4.2-4.3-.4-3.7-.6,0-1.8,0-1.7,1" vector-effect="non-scaling-stroke"/>
    <path class="st1" d="M276.1,123.8c.2.8-.5,3.5,1,3.4.1,0,5.5-.7,5.7-.7,2.2-2,1.5-6.2.5-8.6-.2-1.1-5.9.4-6.5.3-.5,0-.9.5-.8,1-.4,4.2,2.7.8,4.8,3-.5,2.2-4.7,0-4.6,1.6" vector-effect="non-scaling-stroke"/>
    <path class="st1" d="M308.7,122.5c.5-3.1-5.1-6.1-6.2-1.8-1.7,5.2,4.4,7.1,6.2,1.8" vector-effect="non-scaling-stroke"/>
    <path class="st1" d="M95.4,138.5c2.2-.2,5.5-.8,5.2-3.4-.3-2.5-6.5-1.8-6.1.8.2.5,0,2.7.9,2.6" vector-effect="non-scaling-stroke"/>
    <path class="st1" d="M416.8,135.2c.3.8-.1,3.5,1.3,3.3,1.7,0,5.1-.5,4.5-2.9.1-2.2-5.7-2.3-5.8-.4" vector-effect="non-scaling-stroke"/>
    <path class="st1" d="M456,138.5c2.2-.2,5.5-.8,5.2-3.4-.3-2.5-6.4-1.8-6.1.8.2.5,0,2.8.9,2.6" vector-effect="non-scaling-stroke"/>
    <path class="st1" d="M57.4,138.4c2.6.5,6.5-2,3.9-4.3-3.7-1.5-7,1.8-3.9,4.3" vector-effect="non-scaling-stroke"/>
    <path class="st1" d="M90.2,137.7c.1-2.2-2.6-5.4-4.4-3.2,0,0-1,3.9-1,3.9-.6.8,6,0,5.4-.7" vector-effect="non-scaling-stroke"/>
    <path class="st1" d="M450.7,137.6c.1-2.2-2.7-5.3-4.4-3.1,0,0-1,3.9-1,3.9-.3,1,4.7-.4,5-.2.3,0,.4-.3.4-.5" vector-effect="non-scaling-stroke"/>
    <path class="st1" d="M213.1,139.7c-1.7,3,1.9,1.8,3,1-.3-1.3-2.5-4.4-3-1" vector-effect="non-scaling-stroke"/>
    <path class="st1" d="M300.4,151.9c7.6,1.1,1.7-5.7.1-4,.1.3-1,4.1-.1,4" vector-effect="non-scaling-stroke"/>
    <path class="st1" d="M73.3,161.6c7.7-2.9,2.6-7.3-1.5-3.5.3.6.1,3.9,1.5,3.5" vector-effect="non-scaling-stroke"/>
    <path class="st1" d="M433.8,161.6c7.7-2.9,2.7-7.3-1.4-3.5.3.6.1,3.9,1.4,3.5" vector-effect="non-scaling-stroke"/>
    <path class="st1" d="M50.4,159.2c-4.4,11.7,8.5,7.8,4,.3-.6-.2-3.6-1.1-4-.3" vector-effect="non-scaling-stroke"/>
    <path class="st1" d="M411.1,159.2c-4.5,11.7,8.4,7.8,4,.3-.5-.2-3.7-1.2-4-.3" vector-effect="non-scaling-stroke"/>
    <path class="st1" d="M219.9,164.3c-10.8-7.8-21.8,7.8-15,17.9,4.7,8,17.6,10.6,21.5.5,3.1-6.8,1.5-17.4-6.5-18.3" vector-effect="non-scaling-stroke"/>
    <path class="st1" d="M278.4,175.9c0,.7-.7,1.4-1.1.6-13.3-11.9-21.1,13.6-8,20.2,13,4.6,23.2-18.6,9.2-20.9" vector-effect="non-scaling-stroke"/>
    <path class="st1" d="M279.8,182.7c-15,5.5-13.3-8.2-15.5-3.6,2.1,13,20.3-.2,14.8,11.9,2.4,4.4,4.4-8.3.7-8.3" vector-effect="non-scaling-stroke"/>
    <path class="st1" d="M87,183.1c8.8-3.7,0-5.2-1-2.6.2.4-.2,3.1,1,2.6" vector-effect="non-scaling-stroke"/>
    <path class="st1" d="M97,188.5c3.4.5,7.3-6.9,2.6-8.4-1.4-.6-3.5-.6-3.5,1.4.3.5-.4,7.3.9,7" vector-effect="non-scaling-stroke"/>
    <path class="st1" d="M447.3,183.1c7.4-2.2,3.4-5.6-.6-2.9.2.3-.3,3.2.6,2.9" vector-effect="non-scaling-stroke"/>
    <path class="st1" d="M457.5,188.5c3.4.5,7.3-6.9,2.6-8.4-1.4-.7-3.5-.6-3.5,1.4.3.5-.4,7.3.9,7" vector-effect="non-scaling-stroke"/>
    <path class="st1" d="M46.9,181.5c-.2.5-1.5,2.6-.4,3,.2-.1,4.5.1,4.5-.2.3-.2-1.6-4-1.5-4.2-.8-.9-2.2,1.1-2.6,1.5" vector-effect="non-scaling-stroke"/>
    <path class="st1" d="M407.5,181.5c-.2.5-1.5,2.6-.4,3,.2-.1,4.5.1,4.5-.2.3-.2-1.6-4.1-1.5-4.3-.8-.9-2.2,1.1-2.6,1.5" vector-effect="non-scaling-stroke"/>
    <path class="st1" d="M65.4,181.2c.4.5.3,8.4,1.7,7.9,8.5-1.6,6.3-13.7-1.7-7.9" vector-effect="non-scaling-stroke"/>
    <path class="st1" d="M426,181.2c.4.5.3,8.3,1.6,7.9,8.5-1.5,6.4-13.7-1.6-7.9" vector-effect="non-scaling-stroke"/>
  </g>
  <path d="M310,11.8c-.2.8,1.4,5.4-.2,5.4-.5.1-1.2,0-1.2-.6.2-1.5-.2-4.7-1.2-10.8-.6-3.4,7.7-4.1,9.6-2.8.5,2.4-1.2,1.4-2.5,1.1-3.2.5-6.3-.2-5,4.3.3,2.1,4.5-.7,3.9,2.1-.4,1-3.3,0-3.4,1.3Z"/>
  <path d="M357.3,4.2c.7-.1,11.1-3.2,7.5.9-3.4-1.4-13.2,3.4-4.4,2.7.6,0,1,.5,1,1,.2,2-4.5-.3-4.5,1.8.2,1-.6,4.5,1.3,4.3,0,0,7.3-.2,7.3-.2,3.3,3.1-9.8,2.4-9.8,1.1-1.1-.2-.3-10-.6-10.7.1-1-3.8.2-4.2,0-1.5.2,1.6,12.8-1.1,11.4-1,.3-.6-9.4-.8-9.7,0-1.6-2.5-1-3.4-1.1-1,0-1.3-1.9-.2-1.9,4.2.7,8.7-2.7,11.9.3Z"/>
  <path d="M180.5,6.1c-.5,0-3.5-.7-3.8.7,0,0,.3,10.3.3,10.3,0,1-1.8.7-1.8-.2-.3-.3.3-11.2-.9-10.6-3.5.9-7.8-3.7-9.5,1.3-1,2.5,4.7,2.5,5.9,3.2,4.9,3.4-4.4,11.3-7.7,5-.3-4.7,4.9,5.9,7.1-2.6-.7-3.2-10.6.3-6.7-7.9,1.7-2,5.7-3.1,8.2-.7,0,0,8.7-.3,8.7-.3,1.2-.2,1.5,2.1.2,1.9Z"/>
  <path d="M327,4.2c1.7-1.9,7.7-1.7,7.9,1.3.4,3.9-4.1,3.3-4.1,5.3,1.6.1,4.1,4.6,4.9,3.3,1-3,.7-10.7,4.8-10.5,3.3,1.7,5.6,3,6.2,7,0,1.9,1.8,4.1.5,5.9-.3.5-1.1.4-1.2-.2-.4-.7.1-4.9-1.4-4.6,0,0-6.2.8-6.2.8-1.5,0-.7,2.8-.9,3.7,0,.4-.3.6-.7.6-3.6,0-4.1-4.2-7.8-5-1.2-.3-.2,2.6-.3,3-2.9,1.8-8.2,3.3-11.9,2-1.3.4-.7-10.5-1-10.9,0-1.2,3.9-2.5,4.9-2.4,1.7.9,3.9-.5,5.4.6.2.3.6.3.8,0ZM329.4,8.5c6.7-1.2,3.4-5.8-.7-3.1.2.5-.5,3.3.7,3.1ZM339.5,5.9c-3.8,7.5-.3,4.5,4.9,4.1,2-1-4.3-5.7-4.9-4.1ZM317.6,12c0,4.8,3.9,3.5,6.6,3.3,3.4-.7,2.8-5.1,2.8-7.7-.5-3.2-6.7-2.2-8.8-1.4-.6,0-1.4,3.2,0,3.5,0,0,2.2-.4,2.2-.4.9-.2,1.4,1.3.5,1.7-.4.3-3.7.3-3.5,1.1Z"/>
  <path d="M125.1,9.8c.4-.7-.4-7.2,1.6-6.4,2,2.7-.8,10,.9,13.7.3,1-1.6,1.5-1.8.5-.5-8-1.3-4.9-8.8-4.4-.3,1,.3,4.9-1.3,5.2-.4.2-1,.1-1-.4.5-.6-1.3-15.9,1.2-14.6,2.2.3-.4,7.6,1.8,7.8.4-.2,7.6-.5,7.4-1.3Z"/>
  <path d="M193.8,9.6l.2,6.5c-2,4.2-2.3-10.3-2.7-10.3,1.7-5.4,6.5,9.6,8.7,6.5,0,0-1-8.2-1-8.2,0-.6.5-.9,1.1-.8,2.3.1,1,11.6,1.5,12.8-1.1,4.4-6.7-7.9-7.8-6.5Z"/>
  <path d="M276.8,7.3c.5-6.2,6.7-3.7,9.7-1,1.6-2.2,3-1.7,5.9-1.4,1.2,0,1.8,2.7,2.8,2.8.4-.5-.3-3.4,1.1-3,2.7.3-.7,9.3.8,10.1,0-.2,8.4.5,7.8-.4.1-.7-2-9.6-.4-9.5.3,0,.9,0,.9.4-.1.6,1.7,9.7.7,9.8-.7.2-2.2,1.9-3,1.5-2.2-1.7-7.9,3.3-8-1.9-1.3-1.3-1.5,4.6-4.9,2.8-7.9-2.7-1.4-9.1-8.3-6.2-.3,0-.5.4-.3.6.3.6,5.5,3.9,4.5,4.8-.3.5-1,.8-1.4.3-.4,0-6.3-6.6-6.4-4.7-.1.6,1.2,4.7-.1,4.7-2.7,1.2-.2-8.4-1.6-8.1-1,3-6.1,3.7-8.2,3.1-.3,0-.7.2-.6.5,0,.7,1.4,5.9,0,5.9-2.5,0-.8-12.5-2.2-12.5-.5-4.2,10.4-3.8,10.6.9,0,.3.4.3.5,0ZM279.5,10.3c11.4-.6-1.6-10.6-1-.9,0,.5.4,1,1,.9ZM267.6,6.2c.3.6-.5,4.7.9,4.5,2.1,0,6.4.3,6.3-2.8,0-1.5-1.3-2.6-2.9-2.6-.6.3-4.3-.5-4.2.9ZM288.8,6.7c-3,2.8-1.8,11.1,3.3,9.1,2.4-2.4,2.6-8.8-.9-9.1-.7,1.3-1.5-.9-2.4,0Z"/>
  <path d="M181.3,17.6c-3.6,2.1-.5-15.6,3.6-13.7,3.1,1,8,13.4,5,13.6-2,0-.4-5.2-2.8-5.1-6.6,0-4.6,0-5.9,5.2ZM187.6,10.4c-2-6.1-5-5.6-5.3.3.1-.2,5.5.4,5.3-.3Z"/>
  <path d="M222.4,12.7c-.6,1.2-4.8.1-6,1.7-.2.5.2,4.5-.9,4.3-.5,0-1.2-.2-1.1-.9,1.3-17.5,6.6-19.3,11.5-1.3.5,1-1.4,1.9-1.8.8-.2-.1-1.1-5.1-1.7-4.6ZM217.1,11.1c-.3,1.7,4.1.1,4.7.3,1.5-1.6-1.9-7.3-3.8-4.9,0,.1-.9,4.5-.9,4.6Z"/>
  <path d="M227.8,14.9c0,.5.9,3.2-.4,2.8-1.5.6-2-12.2-2.4-12.7,4.7-5.3,15.9,4.9,5,7.9-1.3.3,4.6,4.2,4.6,4.5,1,1-.8,1.9-1.5,1.1-.4,0-5.2-5.3-5.3-3.6ZM227,5.9c.2.3,0,5.8.9,5.5,2.5,0,5.3-1.5,5-3.4.3-1.9-4.3-3.9-6-2.1Z"/>
  <path d="M144.4,14.9c-2.9,7-4.7-8.1-5.7-9.1-.3-1,1.9-1.3,2-.3.3.2,1,8.1,1.9,7.7.7-.6,1.5-2,2.5-1,.5.3,2.5,4.3,3.2,2.4,0,0,1.3-9.9,1.3-9.9,3.4-4.4,1.4,14.1-2.1,12.4-.4,0-2.6-2.8-3-2.2Z"/>
  <path d="M203.7,17.4c1,0-1.3-12.2-1.1-12.7,0-1.5,1.5,0,2.4-.3,2.8-1.6,6.8,1.4,8.4,3.6,3.3,6.1-6.1,14.7-9.6,9.4ZM204.9,6.1c.3.3,0,11,.8,10.9,9,.5,7.3-13.5-.8-10.9Z"/>
  <path d="M133.2,4.2c6.9-.4,7.5,14.4.6,14.5-6.9.4-7.5-14.4-.6-14.5ZM133.4,6c-4.6,0-4.3,11.4.3,11.1,4.6,0,4.3-11.4-.3-11.1Z"/>
  <path d="M255.4,4.3c4.1,2.7-5.5,1.3-5.7,4.8,1.6,2.1,10.3.5,6.7,7.3-.5,3-10.3,3.6-8.5-.7,3.5,1.6,6.1,1.8,7.2-.6,1.4-4.2-4.3-2.8-6.1-3.7-4.3-4.7,3-6.9,6.4-7.1Z"/>
  <path d="M235.2,5c13.3-2.6,15.7,12.4,1.4,13.2-.8.1-1.1-13-1.4-13.2ZM237,6.9c.2.2.3,9.1,1,9,9.6-.5,7.6-11.1-1-9Z"/>
  <path d="M369,5.1c.7.8-1.1,3.3-2.2,1.8-1.2-1.4,1.6-2.6,2.2-1.8Z"/>
  <path d="M366.7,11.3c.2-2.3,2.6-2,2.3.2-.2,2.3-2.6,2-2.3-.2Z"/>
  <path d="M65.5,36.1c-8-.5-3.8-18.6,2.1-18.3-2.5,4.2-8.4,11.8-1.8,17.3.3.3.1.9-.3.9Z"/>
  <path d="M419.1,19.3c-1.2-3.2,5.1.9,5.8,2.6,4.1,3.3.7,14.3-4.8,12.4,6.2-4.8,7.1-11.8-1-15Z"/>
  <path d="M380.3,23.6c-1.4-.2,1.5,7.6-1.2,5.4-2-8.4.3-12.1,4.3-2.6.6-1.4-.6-4.1.8-6.1,1.9-1.6,2.5,20.5-3.8,3.2Z"/>
  <path d="M243.9,27.3c-.1-3.1,4-7.6,5.2-3.8-2.8-1-5.3,4.5-2.3,5.5.5-.2,2.9.4,2.8-.5-.5-2-.4-5.5,2.3-5.7,1.8-.7,2.7,2.5,3.5,1.9.1-4.8,9.2-.4,5.8,3.3-1.7,2.1-3.9,3.7-5.7,2.8-.7-.5.6-2.1-.2-2.1-.8,1.9-2.8,1.1-4.4,1.3-2,.9-5.9,1.3-6.9-1.6-.5-.4-.2,1.6-.3,1.7-1.4,4.1-4-3.5-4.8-4.4-.2-.3-.5,0-.4.2,1.4,7,0,4.1-5.8,4.9-1.9.3-1.4-6.1-1.9-7,0-.6.3-1.1.9-1.2.5.1,7.2-.3,7.3.3.3.1,1.6,3,2.1,2.6.3-1.4-.5-5,1.7-4.7,1.4,1.4-.6,6.2,1.1,6.5h0ZM257.6,28.6c5.8-2.5,0-6.8-1-4.2.2.3,0,4.7,1,4.2ZM236.6,23.8c-.4.2-4.3-.3-4.3.5-.4,1.7,3.8.6,2.7,2.6-.5.9-1.8-1-2.3-.1-.6,3.5,1.7,2.4,4,2.4.4,0,.8-.5.7-.9-.8-1.6.3-3.7-.7-4.5ZM253.9,27.7c-.3-5.9-5.5-2.4-2.4.7,1.1.5,2.3.5,2.4-.7Z"/>
  <path d="M337.8,23.9c-1.1,1,.7,5.3-.2,7.1-1.7,2.2-1.5-7.8-1.8-8-.1-1.2,1.2-2.1,2.2-1.6.6-.2,1.4,2.3,2.5,2.3.9-2.8,3.9-4.5,4.5-1.2-.7,1.7,1.3,7.2-1.4,7.9-1.5.2-.4-6.2-.7-6.8-1.4,2.9-2.9,4.3-5,.3Z"/>
  <path d="M390.1,25.1c9.7,1.3-5.9,11.9-3.9-3,1-4,10.2,2.4,2.5,0-2.7.8,0,9.2,3,5.3,1.4-1.8-3-1.4-1.6-2.4Z"/>
  <path d="M152.6,27c0,1.2.3,4.1-1.6,2.5-.6-.2-6,1.8-6.1.5,0-.3,0-1.1-.5-1-6.1,7.4-9.5-9.8-1.2-6.9,1.7,1.4-1.8,1.4-2.5,1.5-2.2.7-1.1,5.9,1,5.7,1.4-.3,2.7-3.1.4-3.4-.7,0-.9,0-.9-.5,1.1-1.1,2.6.2,3.4.2,0-1.1-.2-2.3.5-3.1,1-1.6,5.3.9,6.4-.4,2.6-3.7,8.4,2.1,4.1,3.7-.2,0-.2.4,0,.5,1.5.5,3.2,3.2,1.3,3.8-1.3,0-2.7-4.6-4.3-3.2ZM153.7,24.6c3.3.8,1.3-3.5-.5-2.6-1.3.5-.9,2.5.5,2.6ZM151.5,24.5c.2-1.6-4.1-.9-4.8-1.2-.8,0-.8.9-.8,1.5,0,1.4,2.6.1,2.6,1.4-.4,1.1-2.6-.7-2.6.7.3.6.4,2.4,1.4,2.2,5.6-.5,3.5,1,4.3-4.5Z"/>
  <path d="M97.3,31.3c0,.6-.6.8-1.2.8-1.2-.4-.4-2.8-1.1-3.5-.4-.8-3.6-.9-3.7-.2-.2,1.1.2,3.5-1.6,3.3-.4,0-.7-.3-.6-.6,0,0,2.3-8.7,2.3-8.7,3.1-4.5,6,7.1,5.8,9ZM94,26.2c-.3-.3-.7-4-1.6-2.6,0,.5-1.3,2.9-.2,3,.4,0,1.9.6,1.8-.3Z"/>
  <path d="M179.5,30.2c-.8,2.7-5.4,2.1-6.5-.1-1.4-2.7,2.4-10.3,6-8.1.6.3.4,1.5-.3,1.4-5-1.8-6.2,10.5.3,5.9,1-1.3-.8-4.8,1.3-5.2,1.2,2.2-1.1,2,3.1,1.9,1.5,0-.1-2.9,1.3-3,1.7-.5.5,6.7.9,7.3,0,.8-1.5,1.1-1.6.2-.2-.4.1-3.2-.7-3.1-.6.1-2.6-.4-2.5.7.1.6.7,4.7-.7,2.3,0-.3-.5-.2-.5,0Z"/>
  <path d="M192.9,29.8c.7-1.2-2.6-9.2,2.6-8.1,4.5.5,6.3,3.8,1,4.1-.2,0-.3.2-.2.3,5.3,3.9,2.1,3.4,4.4-2.4,3.9-3.4,3.6,2.5,4.7,5.9.5,2.7-2.1,1-1.7-.7,0-1-2.7-1.2-2.8-.2,0,.5,0,1.6-.6,1.8-3.2,1.4-3.5-3.6-6.2-3.8,0,0,0,4.4,0,4.4-.1,1.1-1.1,0-1.7.5-.5.3-1.1.1-1.3-.4-.2-3-3.3-4.2-3.7-.6-2.8,1.4,1.3-11.5,4-6.5.6,1.4,0,5.3,1.5,5.8ZM193.5,23.8c-.3,2.4,4.5,0,4.1.2.4.2-4.2-2.5-4.1-.2ZM202.1,26.9c1.6.3.5-3.1,0-2.7-.4-.4-1.8,2.9,0,2.7ZM189.2,27.2c1.7.6.7-2.9.4-2.6-.2-.4-2.2,2.7-.4,2.6Z"/>
  <path d="M299.5,28c0-1.4-1.7-6,.6-6.5,1.7,1.4.4,6.2,1,8.1.4,1.8-1.5,1.8-2.4.9-1.9-2.5-3.6-7.7-2.7,0-1.5,3.2-3.2-10.5-.2-7.1.2,0,3.4,6,3.7,4.7Z"/>
  <path d="M321.5,27.6c-.2.5,0,3.7-1.1,3.4-.5,0-.1-6.9-.3-7.1,2-3.5,3.1,5.5,4.6,3.6,0,0,0-5,0-5,0-.8,1.4-1.3,1.6-.5,0,0,0,1,0,1.1-.1,1.1,7.2-1.4,5.2.9-.5.2-2.2,0-2.1.8-.3.6.7,5.4-.7,5.3-1.9.2-.2-4.3-.4-5.1,0-.7-.7-.6-1.2-.4-2.3,1.6,1,8-3.2,5.5-.6,0-1.6-3.1-2.5-2.3Z"/>
  <path d="M372.1,25.6c1.2-1.2,4.3-.6,3.5,1.6-3,5.9-10.4-4.2-4.4-5.8.8,0,5.5.3,3.6,1.7-6-2-5.3,3.8-1.6,4.3.8,0,1.7-.9,1-1.5-.2-.5-2.3,1.1-2-.4Z"/>
  <path d="M99.1,33.4c-2.4.2,1.1-12.6,3.1-11.6.3,0-3.1,11.5-3.1,11.6Z"/>
  <path d="M347.3,26.3c-.2,0-.5.1-.5.4-.5,4.8,5.3-.4,5.4,2.5,0,1.3-4.7,1-5.4,1.4-2.5.4-1.1-5.4-1.5-6.6,0-2.9,4.4-1.8,6.1-2,.8,0,.9,1.2.2,1.4-1.3.8-4.5-1.2-4.9.9-.3,1.1,1.8.9,2.4,1,.8,0,.7,1.2,0,1.2-.6,0-1.1,0-1.7-.2Z"/>
  <path d="M358.7,29.5c4.1-.4,1.7-1.9-.4-3-3.5-1.6,2.6-7.2,2.6-3.7-3,2.5.6,2.5,1.4,4.4,2,2.5-4.8,4.6-3.6,2.2Z"/>
  <path d="M123.6,27.1c.2-.9-2.3-.7-2.2.1,0,2.7.5,2-1.6,3.3-6.2,5.6-8.8-6.9-2.6-8.3,1.4-.6,3,2.3,1.1,1.8-2.5-2.5-6.5,8.5,1,5.8,1,.1.3-5.5.5-6,1.1-2,1,1.4,1.9,1.4,1.8,0,2.7,0,2.1-2,2.7-3.1.9,5.4.9,6.4-1.1,1.6-1.5-1.9-1.1-2.5Z"/>
  <path d="M131.2,27c.1.3.6.1.5-.2-3.2-5.3,7.2-6.5,5.7-2.1-.6.9-1.7,1-1.7,1.7.9.7,4,3.3,1.5,3.8-1.5.2-2.1-4.4-4.3-2.9-.4.4,0,1.7,0,2.2.2,1.3-2.3,2.6-2.8,1.1.2-1.8-1.6-4.5-2.9-1.8-.1.2,0,1.5-.5,1.4-.3,0-.7,0-.7-.5-.4-5.6,3.3-11.3,5.3-2.9ZM135.9,23.9c-.8-1.9-6.4.7-1.7.9,1,0,1.8-.4,1.7-.9ZM128.6,26.9c1.8.3.3-2.8-.1-2.5-.4-.3-1.6,2.9.1,2.5Z"/>
  <path d="M221.4,30l-5.1.6c-2.7-.9,1-6.8-2.4-6.3-1.9.2,1,6-.4,6.5-2.7.7-.7-7.7-1.7-7-1,.2-1.6,1.3-2.3-.2-1.3-.8-2.2,2-2.7,2.9-.2,1.6,2.3,2.3,3.4,1.9,2.1.4-.4,2.5-1.8,1.7-5.6-.5-2-10.5,2.2-7.2,0,.5,8.4.8,8.9.9,1.4.3,2.4-1.5,3.7-1.3,0,0,3.6,1,3.6,1,1.7.9.9,3.5-1,3.6-.4,0-.5.7,0,.8,2.2.5,3.1,3.6.9,3-.3,0-3.3-3.3-3.6-2.8-.3.6.9,3.5,0,3.8-1.2.6-.7-1.2-1.5-1.7ZM225.9,24.6c-.9-.6-4.6-2-3,.5.9.7,3.6.8,3-.5ZM217.6,26.9c-3.3,1.9,2,3.4,3.3,1.5,2.7-2.7-1.1-5-3.8-3.3-1.3,1.7,2,.2,2.2.9.2.9-1.3.7-1.7.9Z"/>
  <path d="M276.9,28.7c8.5,1.3-.9-3.1,1.2-6,1.2-.5,5.1-.9,4.7,1.6.2.4-2-.8-3.3-.4,3.8,4.1,3,9.4-3.1,6-2.8,1.4-4.3-.3-6-1.8-.3,1-.3,3.3-2,1.9,0,0-1.9-2.8-1.9-2.8-1-.3,0,3.8-.6,3.5-1.8.7-.7-3.6-1.5-3.8,0,1.7-.1,6-1.9,3.5.3-.3-.8-9.2,1.1-6.5,1,5.2-.1-5.3,4.2,2.7,1.4.4-.5-4.6,1.2-4.4.5,0,.7.5,1,.8,1.3.5,2.6-.8,4.4,0,1.9,2.2-3.1.3-3.2,2,.2,2.1,2.2,5.8,4.6,3.2.9-1.3-.6-1.7-1.5-1.4-.4-2.1,4.6-1.1,2.6,2.1Z"/>
  <path d="M292.4,22.2c.5,0,.9.3.9.8-.3.7,1.3,9-.4,8.8-.5,0-.9-.3-.9-.8.3-.7-1.3-9,.4-8.8Z"/>
  <path d="M353.5,25.4c5.2,1.5,6.4,4.6,0,4.7-1.2,0-1.1-2.6.1-1.6.3,1,3.1.8,2.3-.4-5.9-2.1-5.7-3.7-.2-6.2.6-.4,1.4.8.8,1.2-.2.3-4.2,1.7-3,2.4Z"/>
  <path d="M367.4,27.8c0-1-1.6-.5-2.2-.6-1.4,0-.6,4-2.3,2.3.2-1.1,1.1-8.3,3.3-7.5,3.3.7,3.7,14,1.1,5.7ZM365.2,25.4c.2.4.7.7,1.2.6,1.8-.8-1.6-3.1-1.2-.6Z"/>
  <path d="M378.2,29.3c-2,1-3.1-6.9-1.2-7.2.5-.2,1,7.1,1.2,7.2Z"/>
  <path d="M162,28.1c-2,.1-5.6-2.7-3.8-4.8,1.1-.8,4.5-1.9,5.3-.2,0,.7-3,.8-3.4,1-1.5,1.2,1.5,2.7,2.9,2.7,3.6,2.6-1.8,5.1-4.1,3.3-.3-.2-.4-.6-.1-.9,1-.6,2,.8,3.5,0,.6-.2.5-1.1-.1-1.1Z"/>
  <path d="M414.2,23.1c.9-1.6,5.3,0,3,.9-1-.8-2-.3-3.2,1.5-.8,2.9,4.1,3.3,5.6,1.5.8-.8,1.7,1.1.8,1.6-3,1.7-9.4,1.6-7.8-3.5.3-1.1-1.5-1-1.7-.3-.2,0,.2,3.8.2,4-1.6,3-1.7-3.5-1.9-4.1.2-.9-6-.7-6.4-1-.7,0-.7.8-.7,1.3.2,1.5,3,0,2.7,1.5-1.2,1.2-3-.8-2.6,2.3.2,1.6,5.5-1.1,5.8.4.6,2.1-5.8.9-6.6,1.3-1.8.2-.6-6-.9-6.8,1-3.2,11.5.1,13.6-.5Z"/>
  <path d="M71,28.6c0,.2,0,.4.2.6-1.8-5.5,0-7.2,5.5-6,.7.1,5.5-.4,5.9.3,1.7.9,2.1,3.3-.3,2.8-1.2-.7,1-1.5-.1-1.7-1.2.3-5.5-1-5.1,1.5-.2,1.8,3,0,2.8,1.6,0,.9-2.6,0-2.5,1,.8,3.2.4,2.9,3.8,2.4.8,0,.9,1.4.1,1.5-3,.9-4.4-.5-6.4-.8-1.8,1.1-3.2,0-4.8.3-.9,1.1-6.1.9-4.1-1.2,1.1,1.2,5,0,3-1.7-8.6-.6-1.6-8.9.5-5.9-4.5,3.9-3.5,2.8,1.3,5.3ZM76.4,30c-1.9-3.4,1.7-7-3.8-5.6-.4,0-.6.4-.6.8.1.4,0,1.8.7,1.6.5-.5,3.1-.2,1.6.7-2,0-1.6,1.5-1.4,2.9,0,.4.6.5.9.2.8-.9,2.5.5,2.6-.6Z"/>
  <path d="M314,24.8c.3-.6-3.6,0-3.4.4-.2.7,1.9,7.6-.6,6-.2-.5-.4-6.6-1.3-6.6-1.1-.4-2.8-.8-3.3.6-.3,1.5.2,1.7,1.9,2.6,2.9,2.2-1.6,4.9-3.9,4.3-.7,0-1.2-1.3-.4-1.5,1.1.5,4,.1,3.5-1.6-3.9-1.6-4.7-3.8-.5-6.3,4,1,6.5-.3,10.7,1,1.2.2,1.8,4.6,2.2,5.4.3.9-1.4,1.3-1.5.4,0-1.5-.7-2.1-2.2-1.8-1,.3-1.3,4.2-2.3,2.1,0,0,1-5,1-5ZM315.1,26.1c.2.8,2,.6,1.2-.5-.5-.9-1.6-.6-1.2.5Z"/>
  <path d="M107.5,30.1c.8,0,0,1.9-.7,1.9-8.7,1.3-3.8-13.5,1.2-8.3.4.4-.1,1-.6.7-4.2-2.2-6.3,8.3,0,5.6Z"/>
  <path d="M82.6,29c-.4-1.3,1.3-1.7,1.7-.5.4,1.3-1.3,1.7-1.7.5Z"/>
  <path d="M283.7,28.5c2.7,0-1,5.6-2.1,3.2,0,0,2.1-3.2,2.1-3.2Z"/>
  <path d="M395.2,30.4c-1.2,1.7-2.9.5-1.1-.7.5-2.2,2.3-1,1.1.7Z"/>
  <path class="st0" d="M71,28.6c.3.2.4.4.2.6-.2-.1-.2-.3-.2-.6Z"/>
  <path d="M166.1,31.6c-.2.7-2.1,2-2,.7.9-1.9,2.7-5.1,2-.7Z"/>
  <path d="M141.1,283H0V37.3h140.6c1.5,0,0,245.2.5,245.7ZM139.1,39.8c.1-1.5-136.1,0-136.6-.5-1.5-.2,0,240.9-.5,241.3-.1,1.5,136.1,0,136.6.5,1.5.2,0-240.9.5-241.3Z"/>
  <path d="M349.7,283h-201.9c.5-.5-1-245.8.6-245.7.5.5,201.4-1,201.3.5,0,0,0,245.2,0,245.2ZM347.7,39.7c-.1-1.1-197.8-.5-198,0,0,0,0,241,0,241,.1,1.1,197.8.5,198,0,0,0,0-241,0-241Z"/>
  <path d="M500,37.3v245.7h-141c.4-.4-.7-245.8.5-245.7,0,0,140.5,0,140.5,0ZM498.1,39.8c-.3-1.2-136.8-.7-137.1,0,.5.5-.9,241.5.5,241.4.5-.5,136.8.9,136.7-.5h0V39.8Z"/>
  <path d="M365.8,44.8c5.2-2.4,14,.4,21-.3,12.5.3,24.7-1.6,34.8-.7,1,2.7.7,9.3.5,12.1.7,3,1,6.1.5,9.5,0,1.2-54.7,1.8-55.2,2.3-4.6-4.2-.6-16.7-1.6-22.9ZM367.8,65.2c.6,1,52.6-.7,53.1-1.7.3-4.8-1.1-9.3-.2-14.5,0-.7,0-3.3-1.4-3.9-22.4,1-36.2,1.8-50.4.2-3.3,2-1,15.5-1.1,19.8Z"/>
  <path d="M177.7,51.1c-.2-.5-.4-1.2.2-1.4,8.5-5.2,12.2,1.2,4.6,6.4.6,1.5-.7,3.9-1.6,2.1,0,0-.6-3-.6-3-.3-1.3,2.3-1.4,3-1.8,1.6-.6,2.5-3.3.8-4.1-1.5-.4-3.4.3-5.6,2-.2.2-.6,0-.7-.2Z"/>
  <path d="M207.8,54.2c-1.2.2,3.9,5.4,3.9,5.7.7,5.4-5.7-4.7-6.2-5-.7-.9,0-2.2,1.1-2.2,1.9.4,6.3-2.2,3.4-3.6-1.4,0-4.7-.4-5.6,1.3-.4.4,1.9,15.9-1.3,12,0,0-.4-12.9-.4-12.9,5.6-5.6,15.9,1.1,5.1,4.7Z"/>
  <path d="M383,57.5c.2,7-11.2,8.4-10.2.8,1.9,1.6,2.5,5.2,6,3.1,1.6-.9,3.6-3.5,2.1-5-3.1-1.5-5.4,0-7.6-.5-5.3-6,4.9-11.5,9.4-6.2.7,2.8-2.7,0-3.9-.3-3.1-.5-5.9.6-5.1,4.2,1.5,1.9,5.4-.9,8.2,1.5,1.9-2.3,1.8-5.3,6.6-4.8.6-.1,2.9,2.3,3.3,2.6,1.7.4,1.7-4.2,4.6-2.8,10.9,3.2,2.5,17.8-4.7,8.4-2.1.7-3.3,3.4-6.1,1.8-1.3,0-1.9-3.6-2.7-2.7ZM395.1,51.1c-3.2,2.7-2.5,10,2.9,8.8,5-2.2,1.2-8.5-2.9-8.8ZM390.9,54c-3.2-5-8.9-1.4-5.8,3.5,2.3,4.2,7.1-.4,5.8-3.5Z"/>
  <path d="M189,47.9c1.8-.7,1,6.5,1.5,7.1,0,1-1.6,1.1-1.6.1.2-.6-1.3-7.4.2-7.2Z"/>
  <path d="M404,52.6l-.5,6.2c0,.7-1.2.7-1.3.1.4-.5,0-11.2,1.6-10.6,1.2-.6,4.5,12.3,5.8,10,.2-.7-.7-9.6.7-9.7.4-.3,1,0,1,.5-.6,1.3,1.4,13.2-2,11.9-2.6.1-4-9.4-5.3-8.5Z"/>
  <path d="M217.5,63.5c1.5-4.3-3.6-11.8,1-14.3,4.7-.7,9.4,3,8.1,8.2-.7,4.1-5,9.3-9.1,6.1ZM218.3,51c.3.2.6,12.5,1.7,11.8,8.4-.7,5.5-14.8-1.7-11.8Z"/>
  <path d="M241.6,51.6c3-2.6.6,3.9,1,5.7,2.1,9.2,9.8-.7,6.9-7.1-.2-1,1.4-1.1,1.6-.2,3.8,13.2-13.6,17.8-9.5,1.6Z"/>
  <path d="M296.4,49.4c2.3-.8.2,7.6.6,8.3,0,.8-1.8.7-1.7-.1.3-.4,0-8.5,1.2-8.2Z"/>
  <path d="M162.6,49.6c3.3-1.2,1.9,10.9,2.5,12.3.1,1-.9,2.4-1.7,1.9,0,0-.8-14.2-.8-14.2Z"/>
  <path d="M168,55.8c-.2,1.5,4.9-1.4,5.4-1.3,1.7-.7-1.7-3.8-.3-4.6,3.4.6,2.8,9.4,3.4,12.7-1.8,4.5-1.9-5.3-2.2-5.8-.2-2-6.1,1.6-6.9,1.5-.6.3-1.3-.3-1.3-1,.5-.8-.2-7.4,1.7-6.8,1.6,0,0,4.4.2,5.2Z"/>
  <path d="M228.9,49.8c2.1-1.1.7,11.7,1.2,12.2,0,.9-1.7.9-1.7,0,.3-.3-.8-12.9.5-12.2Z"/>
  <path d="M240.6,60.8c.8-.2,1.1,1.3.2,1.4-4.4.3-9.5,1.2-8.2-4.5.9-3.7,2.4-10.3,7.1-6.9.6.3.7,1.9-.2,1.7-3.8-3.1-4.9,4.1-5.6,6.4,0,3.1,4.4,2.2,6.7,1.9Z"/>
  <path d="M271.6,54.7c.3-.5.5-4,1.6-3.6.4,0,.8.3.7.8-2.5,6.2.7,13.2,7.2,6.9,1.5-1.3,1.1-3.8.8-5.6,0-.5-.6-.7-1-.7-1.4-.8.9-2,1.3-1.8,2.1,1.6,2.5,7.2,0,9-5,3.6-7.5,4.8-11.1-1.2-3.3,2.9-6.7,4.2-11,3.5-1.3.1-9.5,2.1-8-2.8.3-1.8,1.2-12.7,3.2-8-.2,4.4-5.4,11.7,3.3,9.4,1-3.8,1.5-7.6,5.9-9,3.6-2,5.5,4,7.1,3.2ZM270,56.5c-2.2-5.9-8.9-3.4-9.4,1.9.2,4.9,9.5,1.7,9.4-1.9Z"/>
  <path d="M287.2,54.2c14.4,7.6-7.6,11.4-3.5,7.2,2.5.6,5.6.3,6.6-2,.6-3.1-6.2-3.2-6-6,.9-1.2,6.9-4.5,6.2-1.7-1,.4-4,1.1-3.3,2.5Z"/>
  <path d="M413.6,51.5c1-1.5,2.6-.4,1.6,1.1-1,1.5-2.6.4-1.6-1.1Z"/>
  <path d="M215,62.6c-.4,1.4-1.9-.4-1.6-1.3.8-5-1.2-7.1-.2-9.3,1-.4,1.7.8,1.7,1.7.1,5.4.2,8.3.2,8.9Z"/>
  <path d="M413.6,57.9c.7-1.7,2.5-.9,1.8.8-.7,1.7-2.5.9-1.8-.8Z"/>
  <path d="M190.5,61.5c-1.2,1.4-2.8-2-2.1-2.1.2-.7,3.5,1,2.1,2.1Z"/>
  <path d="M180.8,61.7c.4-1.2,2.6-.5,2.2.7-.4,1.1-2.8.7-2.2-.7Z"/>
  <path d="M293.5,62.6c1.4-1,2.5.6,1.1,1.6-1.4,1-2.5-.6-1.1-1.6Z"/>
  <path d="M304.6,79.8c-2.1,1.4-2,4.8-6.9,2.7-2.2-1.1-4.8.8-7.3.7-3.8-2.4-2-7.1-1.3-10.7,4.6-3.3-2.6,9.1,2.5,8.8,5.9-.5.8-4.8,5.7-8.9,1.4-1.4,3.1-.2,4.4-1.4.9-.9,2.1.8,2.8,1.3,1.8-1.1,4.1-4.3,7.1-3,8.7,4.8.2,11.5-5.3,8.8-.3.6.5,5.4-.9,5.1-1.3-.2-.2-3.6-.6-3.4ZM306.7,76.8c7.7,2.7,9.3-7.4,1.3-5.3-1.6.7-2.9,3.6-1.3,5.3ZM301.9,72.8c-5.9,1-8.1,8.8-.9,8.7,2.5-1.2,3-6.9.9-8.7Z"/>
  <path d="M263.5,75.6c.7,0,2-.5,2.2.6.1.5,0,1.2-.6,1.2-.6.1-2.3-.3-2.2.7.2.6-.5,3.5.6,3.4.6.2,11-2.4,7,.8-1-.4-9.5,2.4-9.3,0-.2-.5.5-3.9-.5-3.9-2.1,1.6-5.2,5.4-8.1,4.5.4-4.3-3.4-11.2,1.2-13.4,2-.9,4.6,1.5,7,1.9.9-1.5,12.2-1.8,6.6.8-1,.1-4.2-1-4.3.7.1.5-.6,2.7.4,2.6ZM253.2,72.2l.6,7.2c1.6,2.9,6.2-1.4,5.5-3.9.5-2.8-4.9-6.6-6.1-3.3ZM260.8,73.7c.2,0,.6-.2.3-.4-.3-.2-.7.2-.3.4ZM261.3,76.7c-.3,0-.5.2-.3.4.3.2.4-.1.3-.4Z"/>
  <path d="M278.4,73.4c0-.3-.4-.4-.6-.3-1.5,13.9-4.2,11.4-8.4-.9-.2-.9,1.6-.8,1.8,0,4,11,3.3,10.5,5.4-.6.5-1,1.4.6,2,0,1.9-2.1,5.9-1.4,8.7-1.6,1.4.1.7,2.2-.5,2-2.2-.7-9.4.3-6.1,3.5,1,0,4.4-1.3,4.2.8.3,1.3-3.9.6-4.4.8-1.5,0-.2,3.5-.3,4.1,0,.6.6,1,1.2,1,.3.1,7.2-.7,6.9.2-.7,2-7.5,1.9-9.2.7-1.6-2.3-.4-7.9-.7-9.7Z"/>
  <path d="M170.2,80.8c.3-.4.7-14.2,2.9-9.2-.4,3.6-.9,18.6-6,8.8-1.5-.5-1.9,4.4-3.9,3.7-.9-3.8-4-10.2-2-13.9,2.4-1,.9,12.1,3.1,10.5,2.9-8.7,4,2.5,6,.2Z"/>
  <path d="M198.4,73c-1,0,.8,10.7-2.5,10.5-.3,0-4.9-8.3-5.2-7.1,0,0,0,7.4,0,7.4.1.8-1.4,1.6-1.7.7.5-.4-1.5-16.2,1.6-13,.4,0,5,11,5.7,8.3.2-.4-.5-9.4.5-9.1,1-.4,1.3.5,1.4,1.3,1.1.9,0-2,1.2-1.8,1.2.3,12.3-1.2,6.9,2.5-1.6-.1-4-1.9-5.9-.1,0,0,.5,3.6.5,3.6,1.1,0,2.6-.9,3.5-.6.7,0,.9.8,1,1.4-.4,1.1-2.7,0-3.5.9-2.5,2.3.3,4.6,3.6,2.6,3.6,1.3-3.2,3.4-4.9,2.3-1.6,0-1.5-9.4-2.1-10Z"/>
  <path d="M231.5,73.3c-1,.1-1.2-1.7-.2-1.8.8.3,10-3.1,7.7.6-1.1,0-3.3-.5-3.7,1-.4.5,1.2,13.3-1.7,10,0,0,0-9.6,0-9.7,0-.7-1.8,0-2.1-.2Z"/>
  <path d="M207.9,72.2c1.7-2.5,5.1-.1,7.8-1.5,1.5-.2.8,2.2-.4,2.1-.8.3-5.1-.5-5.1,1-.4,2.6-.2,2.9,2.4,2.2.6-.1.9.5.8,1,.2,1.2-2.6,1-3.2,1.3-.4,0-.7.5-.7.9-1,4.5,3.1,3.3,6,2.4.3-.1.5.2.4.5,0,2.1-8.2,3.1-9,1-.1-.9,1.2-.9,1.2-1.7,0,0,.5-7.5.5-7.5.1-.7-1.1-.9-.6-1.6Z"/>
  <path d="M217.5,84.6c-1.5-2.5.8-7.5-1-10.3-.3-.9,0-1.9.9-2.4,10.9-4.6,10.7,13.7,0,12.7ZM219.2,82.9c7.3-.5,5.8-14-.9-9.2.2.3.2,9.3.9,9.2Z"/>
  <path d="M176.4,77.5c1.3-.3,4.4-2.1,3.5.9-2.6,1.2-4.9-.3-4.3,4.2,1.6,2.1,4.9-.7,6.8.4.8.4.3,1.7-.6,1.5-2-.4-6.3,1.7-8.1,0,.4-.6-.9-13.6.9-13,.2.2,8.1.7,7.9,1.2,0,0-1,1.7-1,1.7-1.4.3-4.9-2.2-5.9,0,.2.6-.6,3.4.8,3.1Z"/>
  <path d="M242.1,72.3c8.6,3.7-.5,16.6-5.3,8.6-1-3.3,1.4-8.4,5.3-8.6ZM241.7,74.8c0,1.9-3.8-.8-3.3,5.4,1.3,3.7,5.7,1,6.2-2.2,0-1.5-1.8-4.7-2.9-3.2Z"/>
  <path class="st0" d="M260.8,73.7c-.6-.3.5-.7.4-.1,0,.1-.3.1-.4.1Z"/>
  <path class="st0" d="M261.4,76.7c.1.3,0,.5-.3.4-.2-.2,0-.5.3-.4Z"/>
  <path d="M275.7,96.4c13.3,6.1-2.4,12.9-1.5,7.8,2.1,0,4,.7,5.1-1.7,1.5-2.7-4.3-4.3-5.6-5.4-2.3-2.3,3.7-5.1,5.9-5.7,1,.5.7,2.2-.5,2.2-.7,0-4.1,1.3-3.3,2.9Z"/>
  <path d="M214,96.7c-1.2,1.4,1.3,10-1.8,7.6.4-.8-1-10.9.9-10.6,1.1,0,.8,1.4,1.4,1.7,3.7-1.3,1.9,6.3,4.1,8.6,1.3,2,2.8-11.6,3.1-11.6,2.5-1.8.6,3.6.4,4.6-.9,12.9-5.2,11.7-7.2-.3,0-.5-.8-.5-1,0Z"/>
  <path d="M179.2,100.8c0,.4-.3,4.3.5,4.3,1.9.7,5.2-1.1,6.7,0-.1,2.7-7.4,2.1-8.9.8-.9-.6-.1-1.4,0-2.2,0,0-.3-7.6-.3-7.6-.3-3.6,6.2-3.2,8.3-3.9.7-.1.7.6.7,1.1-.6,1.9-8,.4-7.5,3.3.2.8.2,2.2,1.4,2,1-.4,5.1-1,2.9,1.1l-3.8,1.1Z"/>
  <path d="M297.3,99.5c.3,2.7,1,8.2-1.3,5.8.4-.6-1.7-12.1,1.2-9.7.2,0,4.2,5.9,4.5,5.3.7-.3-1.5-11.6,1.4-8-.4.9,1.5,11.5-.7,11.2-1.2.5-4.2-6.4-5.1-4.7Z"/>
  <path d="M236.6,101.7c-.1.7,1,7.2-1.3,4.9-.1-.5.3-3-.7-2.7-15,4.4-8.1-1.2-10.9-9.8.8-1.1,12.5-3.1,9.1,0-4.5-.9-11.6,2.8-2.8,4,.4,0,.6.4.5.8-.1,1.8-3.6.2-4,.2-1.3-.6-.5,3-.7,3.4,0,.4.3.7.7.8,2.7.3,4,0,8-.7,1.2-1.4-.2-3.7-.2-6.8.1-4.7,7.6-3.5,9.1.4.6-.3,7.8-2.6,6.3,0-1,.3-4.1.4-4.3,1.9,2.4.5,7.1,6.9,6.1,2.5,1.2-1.9,1-6,3.6-6.8,3.9-.5,3.9,6.6,5.6,7.6,0,0,1.3-6.6,1.3-6.6,3.4-2.9-.2,8,0,8.6.3,2.3,2.9,1.1,5.4.8,3,2-5.4,2.9-6.8,1.5-.4-.2-.9.7-1.2.1-.1-.2-.6-4.9-.7-5.1-1-.8-2.9,1-4.7.6-1.4.1-.7,4.1-2.2,4-1.6-.6-6.1,2.5-7.6,0-.2-.4-.8-.4-1.6.1-1,1-5.1-4.7-5.8-4ZM236.7,98.5c9.7-3,.4-5.5-.7-2.8.2.5-.5,3.3.7,2.8ZM254.4,99.6c.3-.2,3.1,0,2.9-.7-.1-1.6-1-3.1-2-3-.9-.2-2.1,2.8-.9,3.6ZM242.1,96.9c-.2,1.9-4.8,1.7-3.9,3.5,1.2.7,3.9,4.6,5.7,3.2,1.7.7,1.8,2.3,5.2.7,2.1-3.7-5.9-3.4-6.2-7.4-.1-.3-.6-.4-.8,0Z"/>
  <path d="M160.9,107.3c-5.6-5.1-3.2-8.9-.3-14.2.6-1.3,3.7,1,4.5,1.1,3,2,1.7,8.5,1,10.4-.7.2-4.4,3.7-5.2,2.7ZM162.9,95.3c-4.5.3-5.3,9.1-1.1,10,4.3-.2,5.2-11.4,1.1-10Z"/>
  <path d="M175.2,102.4c.2-.4-1.9-9.6-.5-9.2,2.4-.2,2.1,11.7,1.5,12.6-1.3,2.3-5.6-7.5-6.4-7.4-.4.7,1,7.7-1.1,6.9-1.2.3-.2-10.3-.5-10.6,0-.9,1.2-1.2,1.6-.4.3,0,4.9,10.6,5.3,8.1Z"/>
  <path d="M193.4,94.3c3.5-3.8-.9,9.7,1.9,11.3,4.3,1.2,5-7.7,3.7-11.1-.4-1,1.5-1.8,1.8-.7,3,16.6-11.7,19.3-7.4.5Z"/>
  <path d="M209.1,102.8c1.2,1.2,0-9,.2-9,3-3.6,1.3,10.5,1.7,11-1.6,4.8-6.1-8.8-7.5-6.5-.2.5.6,7-.6,6.7-2.5.5-.2-8.8-.6-9.8.9-3.4,6.1,7.4,6.7,7.6Z"/>
  <path d="M288.4,95.8c.2-1-2.7-.2-3.1-.4-2.1.1,1.3,11.1-2.3,8.5-.7-1.2-.2-2.5.4-3.8,0,0-.1-4.1-.1-4.1-.4-.8-.7-.2-2.3-.4-3.1-3,9-1.4,9.1-2.2,4-1.1,5.6,11.6,4.5,12.8-1.9.6-1.4-4.2-1.8-5,0-.9-3.1,0-3.5,0-1.2.7-.2,4.2-2.2,4.1-1.2,0,1.4-9,1.3-9.5ZM289.9,99.2c.3-.2,2.8.2,2.4-.6-.2-5.2-3.7-3.2-2.4.6Z"/>
  <path d="M312.9,103.6c-10.2,3.3-7.9,3.7-8.2-6.8-2.9-5.8,7-3.4,8.6-.7.9.9,1.4-1.8,1.7-2.2,4.2-3,9.2,13,5.6,13.9-1.4-.2-.7-3.4-.8-4.3.2-1.2-4.2-.4-4.7-.6-.9,0-.5,1.7-.6,2.2,0,.6-.7.7-1.1.4-.7-.2-.4-1.3-.5-1.8ZM305.9,95.5c.3.4-.5,9.1.9,8.5,8.7-.4,5.6-11.1-.9-8.5ZM314.6,100.5c2.8,1,6.5,1.8,4-2.4-2.6-4.2-3.6-.5-4,2.4Z"/>
  <path d="M330.1,106.9c-2,3.1-5-7.8-6.5-5.6-.2,1,.9,7.8-1.8,4.7,0-2.9,1-6.2-.3-8.7-.7-4.4,6.9-2.6,8.5-1,.8.7,1.6-1,2-1.4,1-1.2,6.4,1.9,7.2,2.6,4.1,6.8-4.4,11.2-9.1,9.3ZM323.4,96.9c.3,1.1-.4,2.9,1.5,2.3,6.6-.7,2.3-4-1.5-2.3ZM332.4,97.4c.2.3-.5,8.7.6,8.1,8.3,0,6.2-10.1-.6-8.1ZM330.7,105.8c.3-5.4,1-9-4.2-4.9.4,0,3.6,6.7,4.2,4.9Z"/>
  <path d="M23.6,116.8c5.8,9.8,14.3-4.6,7.1-5.2-1.8.2-6.5,3.1-7.6.5-3.9-7.6,8.1-14.9,11.8-7.9.4.7-.3,1.3-1,1.4-3.6-3.8-9.5-1.7-9.5,4.3,0,.6.7,1.1,1.3.8,8.2-4.1,12.3,2.4,7.8,8.9-5,7.2-14.5-3.2-10-2.9Z"/>
  <path d="M384.1,116.8c5.8,9.8,14.3-4.6,7.1-5.2-1.8.2-6.5,3.1-7.6.5-3.9-7.6,8.1-14.9,11.8-7.9.4.7-.3,1.4-1,1.5-3.6-3.8-9.5-1.7-9.5,4.3,0,.6.7,1.1,1.3.8,8.2-4.1,12.3,2.4,7.8,8.9-5,7.2-14.5-3.2-10-2.9Z"/>
  <path d="M80.1,105.6c-.4.3.9,14.4-.8,13.3-2.1.3.2-13.7-1.2-14-.9,0-3.1.7-3.8,0-.4-.2-.7-.8,0-1,4-1.4,9.1.6,13-1.4.3-.2.7,0,.9.3.4,4.3-6.7,1-8,2.8Z"/>
  <path d="M441.3,105c-1.8-.2.4,13.8-1.1,13.9-2.8.8,0-13.6-1.6-13.9-1,0-4.6,1-4.1-.9,4-1.6,9.3.6,13.2-1.5.5-.2,1.1.3.9.9-.6,2.8-5.4,1.7-7.4,1.6Z"/>
  <path d="M105.7,107.9c-1.2-1.2,0,14.8-3.1,10.7,1.2,0-.9-18,3.7-14.2,1,2.3,1.9,4.4,2.6,6.4.3.7,1.4,2.3,3.5,4.6.2.2.5,0,.5-.2.4-.7-1.3-15.9,2.1-11.7-1.1,6.8,4.1,27.4-7.5,9.1-.4-.4-1.6-4.1-1.9-4.7Z"/>
  <path d="M465.8,107.9c-.2.7,0,14.2-2.6,10.6,1.2,0-.8-18.1,3.7-14.2,2.4,4.7,1.8,7.2,6.5,11,.7-.7-1.4-16,2.2-11.9-1.1,6.8,4.1,27.4-7.5,9.1-.5-.2-1.6-5.6-2.3-4.6Z"/>
  <path d="M47.1,106.2c-.4.5,1.5,19-2.3,12.5-.2-.4,1.6-13.4.5-13.2-1.9-1.4-4,0-5.3-.9,1.7-3.2,9.9,0,11.7-1.2,1.3-.2,1.6,2.1.3,2.2-.5.2-4.9-.6-4.8.6h0Z"/>
  <path d="M408.2,105.7c-1.2-.7-.3,13.2-.6,13.4,0,1.5-2.4.9-2.3-.3,0,0,.9-12.4.9-12.4-.9-2.6-4.6-.7-5.8-1.7,1.7-3.3,9.9,0,11.7-1.2,1.3-.2,1.6,2.1.3,2.2h-4.2Z"/>
  <path d="M72.8,113.9c0-1-5.5,0-6-.3-1.2-.2-1.9,5.8-2.4,6.4-3.9,3.5,1.2-12.9,3.2-15.8,6.7-4.1,7.1,11.5,8.3,15.1.1.7-.5,1.1-1.1,1.1-1.6.5-1.7-5.8-2.1-6.5ZM71.8,111.6c1.7-.1-1.2-7.6-2.8-6-1.7,5.1-5.6,7.7,2.8,6Z"/>
  <path d="M432.8,113.5c-7.5,0-5.9-.2-7.8,6.6-3.9,3.5,1.2-12.9,3.2-15.8,6.7-4.1,7.2,11.5,8.3,15.1.3,1.2-1.9,1.6-2.1.5-.3-.4-.7-6.5-1.7-6.3ZM432.4,111.6c1.7-.1-1.2-7.6-2.8-6-1.7,5.1-5.7,7.7,2.8,6Z"/>
  <path d="M100.9,109.3c1.9,9-11.8,14.4-13.3,4-.7-8.8,7-13.4,13.3-4ZM94.4,106c-4.2-2.5-6.1,6.2-4.3,8.7,2.5,5.4,9.4.1,8.8-4.4-.8-1.9-3.6-2.6-4.5-4.4Z"/>
  <path d="M461,108.3c4.1,8.8-11.2,16.2-12.7,5-.6-7.8,5.6-13.5,12.7-5ZM455,106c-4.2-2.5-6.1,6.2-4.3,8.7,2.5,5.4,9.4.1,8.8-4.4-.8-1.9-3.6-2.6-4.5-4.4Z"/>
  <path d="M52.3,108.4c-.7,4.6,0,13.7,7.3,6.8,2.6-2.7,0-9.5,1.1-10.4,3.6,0,2.1,5.4,2,8.8-3.9,10.3-15.3,6.8-11.7-5.2,0-.6,1.2-.8,1.2-.2Z"/>
  <path d="M412.6,108.1c.9.8.1,2.6.2,5.7-.4,4.7,4.7,4.9,7.4,1.6,2.6-2.7,0-9.5,1.2-10.3,3.5,0,2.1,5.4,1.9,8.8-3.9,10.3-15.3,6.7-11.6-5.2,0-.5.5-.5.9-.5Z"/>
  <path d="M38.7,105.6c2.2-.9.5,11.7,1,12.3,0,1-1.9,1-1.8,0,.3-.5-.7-12.9.9-12.3Z"/>
  <path d="M399.2,105.6c2.3-1.1.6,11.7,1,12.3,0,1-1.8,1-1.8,0,.3-.4-.7-12.9.8-12.3Z"/>
  <path d="M117.4,107.4c.8-1.7,3-.6,2.1,1.1-.8,1.7-3,.6-2.1-1.1Z"/>
  <path d="M478,107.3c1-1.6,3.1-.3,2.1,1.3-1,1.6-3.1.3-2.1-1.3Z"/>
  <path d="M84,107.5c.5,0,1,.4,1,.9-.4.8,1,11.1-.9,10.7-.5,0-1-.4-1-.9.4-.8-1-11.1.9-10.7Z"/>
  <path d="M444.6,107.5c2-.5.5,10,.9,10.8,0,1.2-1.9,1.2-1.9,0,.4-.7-.8-11.1,1-10.7Z"/>
  <path d="M157.7,116.3c-.1-.6.2-1.2.8-1.3.7.3,10.5-2.2,10.4-.5.7,2.9-4.1-.1-5.3,1.8-.3.6,1.3,12.2-.4,11.7-1.6.8-.8-10.5-1.2-10.9-.2-2-3.9.9-4.3-.7Z"/>
  <path d="M238,122.5l4,3.5c.9.5,1.8-.6,2.7.6.9.9,2.1-.1,2.9-.7,2.1-1.6-3.8-3.4-4.4-4.2-3.9-2.1,5.4-7.6,4.9-4.3,0,0-3.3,2.2-3.3,2.2-1.2,1.7,3.6,3.2,3.7,4.1,4.1,8.7-14.5,2.9-13.1-2.7,8.8-1.1,1.6-9.1-1.6-3.2,0,0,.4,10.2.4,10.2,0,.9-1.4,1-1.4,0,0,0-.7-10.7-.7-10.7,0-.2,0-.4.2-.6,2.4-4.6,10.4-2.6,8.8,2.5-.7,1.6-3.6,1.9-3.2,3.3Z"/>
  <path d="M176.5,126.6c0-2.9-.3-16.1,6.4-10.7,3.1-.4,9.5-.4,10.4-1,.7-.3,1.4.7.8,1.2-.8,1.5-3.4.4-4.1,1.8,0,0,0,9.7,0,9.8-3.8,3.6,0-10.6-2.7-10.2-.4.1-3.3-.6-3.3.1,1.2,3.2,4.3,8.2,1.5,10.7-2-.2.5-5.3-2.1-6.1-4.3,1-6-1.2-5.5,4.6,0,.3-.2.5-.5.5-.5,0-1-.1-1-.7ZM178.9,121c.2-.2,4.5-.2,4-1-.8-6-6-3.6-4,1Z"/>
  <path d="M205.6,116.9c0,.4-.5.6-.7.3-5.6-4.5-7.5,14.3,1.4,8.3,1.3-3.8-2.7-7.1,3-10.1,6.8-1.4,7.2,15.1-.5,11.2-4.7-.2-9,4.5-10.2-3.6-.3-2.9,1.5-10.5,6.3-8.1.7.3.7,1.2.7,1.9ZM209.7,117.2c-3.5.5-2,9.5,1.5,8.8h0c3.5-.5,2-9.5-1.5-8.8h0Z"/>
  <path d="M296.9,127.5v-3c-.3-2.6-6.4-7.6-3-7.5.5.2,3.1,5.1,3.8,3.8.5-.6,5-10,5-4.8-2.8,4.5-4.8,5.7-4.1,11.6,0,.4-.3.6-.6.6-.5,0-1-.2-1-.7Z"/>
  <path d="M222.7,116.6c-.6-.9,8.3-1.8,8.5-2.1.4,0,.8.2.9.6-.3,2.6-5.2,1-6.5,2.3-1.4.6-.9,2.8.6,2.7.5.2,3.8-.5,3.7.6.1,1.8-3.1,1-4.1,1.1-1,0-.4,2.7-.5,3.2,0,.4.3.7.7.8,1.7,1,5.1-1,5.7.4-.5,2.5-5.9,1.2-7.5,1.5-1.3-2.6.4-8.6-1.4-11.2Z"/>
  <path d="M330.6,114.8c2.8-.5-.4,6.1-1.7,3.6,0,0,1.7-3.6,1.7-3.6Z"/>
  <path d="M288.5,122.6c.5.6,7.3,5.3,3.3,5,0,0-5.6-4.4-5.6-4.4-2.3-.8,0,6.1-2.1,5.9-.7-.1-1.1-1.1-1.9-.9-11.1,2.1-6.7-.2-7.9-10.3,0-.8.6-1.6,1.5-1.6,1,.1,6.8-1.2,7.5-.2,5.6-3.2,13.7,2.1,5.3,5.6-.3.1-.4.6-.1.8ZM285.1,117.9c.2,1.5,0,3.5,2.1,2.8,4.6-.4,4.2-4.3-.4-3.7-.6,0-1.8,0-1.7,1ZM276.1,123.8c.2.8-.5,3.5,1,3.4.1,0,5.5-.7,5.7-.7,2.2-2,1.5-6.2.5-8.6-.2-1.1-5.9.4-6.5.3-.5,0-.9.5-.8,1-.4,4.2,2.7.8,4.8,3-.5,2.2-4.7,0-4.6,1.6Z"/>
  <path d="M117.6,115.6c1.6-1.3,3,.5,1.4,1.8-1.6,1.3-3-.5-1.4-1.8Z"/>
  <path d="M478.2,115.6c1.6-1.2,3,.6,1.4,1.8-1.6,1.2-3-.6-1.4-1.8Z"/>
  <path d="M218.3,124.4c.7,1.1,2.4-8.5,2.7-8.5,3.4-1.6-1.6,10.4-1.4,11.2-.3,1.1-1.9,1.1-2.2,0,.4-.3-4.9-12.5-2.3-11.1,1.3,0,2.7,7.7,3.2,8.4Z"/>
  <path d="M270.5,125.6c2.8-19.4,4.4-6.8,1,2.2-.4,1-1.1,1.6-1.7,1,0-.3-6.1-10-5-10,2.2-1.6,4.1,7.7,5.7,6.7Z"/>
  <path d="M167.7,121.1c0,.3.3.6.6.5,4.3-1,5.6.4,4.9-5,0-.5.3-.9.8-.9.5-.1,1.1,0,1,.6-1.1,3.4,1.6,9.4-.1,11.9-2.1,0-.5-5.5-2.2-5.7-.6.4-5.4.4-5.1,1.7-.1.7,1.1,3.9-.5,3.6-1.6.5-.4-9.1-.8-9.7,0-.6.6-.6,1.1-.5.9,0,.1,3,.2,3.5Z"/>
  <path d="M309.8,123.7c-4.4,8.4-12.9-.2-7.1-6.3,3.6-3.3,5,1.4,7.2,1.7.8-4,5.3,5,6.1,5.2,1.8.6-.6-8.5,1.2-8.5,1.9-1.2.5,11,.9,11.3-1.2,4-5.2-6.4-6.4-4.6-.2.5.6,5.9-.6,5.7-.5,0-1.1-.2-1.1-.8,0-2.6.7-4.2-.3-3.8ZM308.7,122.5c.5-3.1-5.1-6.1-6.2-1.8-1.7,5.2,4.4,7.1,6.2,1.8Z"/>
  <path d="M261.7,122.6c-.7.3-3.6,0-3.5,1.2.1.7-.5,3.2.8,3.1,2.3.8,6.8-2.3,7.3-.1,0,2-7.6,1.6-8.8,2.1-.4,0-.9-.3-.9-.7,1-4-.7-8.8.3-11.9.3.3,9.4-.9,9.1.1-.3,3-7.2-.2-7.7,2.4,0,.7-.3,2.3.9,2.3.5.2,3.2-.6,3.2.4,0,.4,0,1-.6,1Z"/>
  <path d="M322.1,122.2c.3,0,2.2-.6,2.3.5.2.5,0,1.2-.7,1.2-2.8-.1-3.1-.2-2.9,2.8,1,2,5.3-2,6.2,1,.2.4-.3.9-.7.8-1-.5-3,.7-4.4.7-5.2.6-2.2-4.6-2.9-9.2-.5-3.2,8.8-4.3,8.5-1.9-1,1.7-3.7,0-5.6,1.4-1.3.5-1.1,2.5.3,2.7Z"/>
  <path d="M335.1,125.3c-1-1.8-5.6-2.1-4.9-4.8.5-2,7.9-6,6.5-2.5-6.3,2-4.4,3.5-.5,6.5,2.5,3-5.7,6-7.4,4-.4-2.2,7.7-.5,6.2-3.3Z"/>
  <path d="M25.2,132.9l10.6-1.3c.6-.1.4,1.3.5,1.5.2.8-10.6,1.4-10.9,1.7-.5,0-.7-1.8-.2-1.9Z"/>
  <path d="M386,134.8c-.7-.2-.6-2,.4-2,0,0,9.5-1.2,9.5-1.2.9-.1,1.1.8,1.1,1.5.2.7-10.7,1.4-11,1.6Z"/>
  <path d="M47.9,140.1c-1.2-.1-.4,2.7-.6,3.3-.1,2,6.6.4,7.5.8,2.9,2.7-5.4,2-6.4,2.2-1.4,0-2.5-1-2.6-2.4.5-4.1-3.2-7.8-.7-10.8.5-1.1,9-2.8,8.2-.3-.2,1.4-3.9.3-4.8.4-.6.2-3.3,1.2-2.9,2.1,1.5,3.3,1.2,2.8,4.8,3,.7,0,.9.7.8,1.3,0,1.2-2.7.3-3.3.4Z"/>
  <path d="M98.3,140.6c.5.7,8.1,5.9,3.5,5.5,0,0-6.4-5.6-6.4-5.6-1.2-.8-.4,4.5-.6,4.8,0,1-1.7.5-1.6-.4,1.3-4.7-2.4-9.1.4-12.2,6.4-3.5,13.3,2.8,4.7,7-.3.1-.4.6,0,.8ZM95.4,138.5c2.2-.2,5.5-.8,5.2-3.4-.3-2.5-6.5-1.8-6.1.8.2.5,0,2.7.9,2.6Z"/>
  <path d="M419.2,140.1c-1.5.3,5,4.5,5,4.8,1.4,4.2-5.5-2.4-6.2-2.7-1.2-.5-.3,1.3-.2,1.7.3,1.3-1.3.3-1.7,1.2-1.5,2-5.5,1.1-7.4,1.2-1.1-.1-2-.9-2.2-2,.1-2-3.4-10.2-.4-11.3.5-.2,2.5-1.7,3.1-1.4,1.5.6,6.6-.5,4.1,2-2.2.4-4.7-.8-7,1.3-.8.8.9,1.7.8,2.9.7,1.6,4.2-.5,4.6,1.7.5,2-4.2-.3-4.1,1.5.3.9-.1,3.7,1.4,3.5,0,0,6.6-.2,6.6-.2,1.4.4-.7-8.9-.5-9.4.4-3.1,6.5-3.7,8.4-1.4,1.5,3.5-.6,6.8-4.4,6.6ZM416.8,135.2c.3.8-.1,3.5,1.3,3.3,1.7,0,5.1-.5,4.5-2.9.1-2.2-5.7-2.3-5.8-.4Z"/>
  <path d="M459,139.8c-1.4.6,4.5,4.5,4.6,5,1,4.9-6.9-4-7.6-4.2-1.2-.8-.4,4.5-.6,4.8,0,1-1.7.5-1.6-.4,1.3-4.7-2.3-9.2.4-12.2,6.4-3.5,13.3,2.8,4.7,7ZM456,138.5c2.2-.2,5.5-.8,5.2-3.4-.3-2.5-6.4-1.8-6.1.8.2.5,0,2.8.9,2.6Z"/>
  <path d="M57.4,142c-1-.5-.1,2-.2,2.3-1.9,3.9-2.1-9-2.5-9.2-.3-4,8.8-4.3,8.9-.2,0,3.3-1.6,5-4.8,5.1-1.5,1,6.4,4.4,5,5.8-.9,1.5-5.6-3.7-6.4-3.9ZM57.4,138.4c2.6.5,6.5-2,3.9-4.3-3.7-1.5-7,1.8-3.9,4.3Z"/>
  <path d="M90.6,140.4c0-1.3-5.5.3-6.1.1-2.3,0,.6,7.8-2.6,5.2.2-3.9.9-9.2,3.7-13.7,3.5-.5,5.5,1,6.1,4.6-.2,2.7,2.4,6.9.1,8.7-1,.5-.9-4.6-1.2-4.9ZM90.2,137.7c.1-2.2-2.6-5.4-4.4-3.2,0,0-1,3.9-1,3.9-.6.8,6,0,5.4-.7Z"/>
  <path d="M451.1,140.4c0-1.3-5.5.3-6.1.1-2.3,0,.6,7.8-2.6,5.2.2-3.9.9-9.2,3.7-13.7,3.5-.5,5.5,1,6.1,4.6-.2,2.7,2.4,6.9.1,8.6-1,.5-.9-4.6-1.2-4.9ZM450.7,137.6c.1-2.2-2.7-5.3-4.4-3.1,0,0-1,3.9-1,3.9-.3,1,4.7-.4,5-.2.3,0,.4-.3.4-.5Z"/>
  <path d="M68,145.1c.5.4,10.6-1.2,8.7,1.3,0,1.2-8.9.3-9.6.6-2.1-3.1,0-8.1-2.3-11.8-.3-.6,0-1.3.5-1.5,1,0,8.9-1.8,9,0,.2,2.1-7.5.2-7.2,2.6,0,5.4,4.4,0,5.3,3.4,0,1.1-4.6.4-4.8,1.3.2.3-.4,4.4.4,4.3Z"/>
  <path d="M106.1,139.7c-1.2,0,0,2.9-.2,3.4-.1,1.1,5.6.3,6.1.5,2.4,2.3-4.2,2-7,2.2-1.9-2.1,0-7.1-1.3-10.2-.3-4.5,5.4-2.2,8.7-3,1.2-.1,1.3,1.8.1,1.9,0,0-6.1.3-6.1.3-1.1,0-.6,1.9-.7,2.6,0,1.2,2.4.3,3,.4.9-.2,2.4,1.2,1.4,1.9,0,.1-4,0-4.1,0Z"/>
  <path d="M428.2,140.8c.2.3-.4,4.4.4,4.3.5.2,9.3-.6,8.9.6.3,2.5-8.7.8-9.8,1.3-2.1-3.1,0-8.1-2.4-11.8-.3-.6,0-1.3.5-1.5,1,0,8.9-1.9,9,0,.7,1.4-5.9,1.2-6.3,1.5-.5,0-.9.5-.8,1.1,0,5.4,4.4,0,5.3,3.3,0,1.1-4.6.4-4.8,1.3Z"/>
  <path d="M466.6,139.7c-1.2,0-.1,2.9-.2,3.4-.1,1.1,5.6.3,6.1.6,2.4,2.3-4.2,2-7,2.2-1.9-2.1,0-7.1-1.3-10.2-.2-4.5,5.4-2.2,8.7-3,1.2-.1,1.3,1.8,0,1.9,0,0-6.1.3-6.1.3-1.1,0-.6,1.9-.7,2.6.6,1.7,3.8-.8,4.5,1.1,1.4,2-3.5.9-4.2,1.2Z"/>
  <path d="M42.1,138.2l-.7-3.7c0-1.2,1.7-.7,1.7.2,0,0,1.4,10.9,1.4,10.9.2.9-1.5,1.4-1.7.4-.3-.5,0-5.6-1.3-5.4-6.7,1.3-5.5-1.2-5.7,4.6,0,.3-.5.6-.8.5-.9.2-1.3-8.8-1.6-9.2,0-.4.3-.8.8-.8,1.7-.4,1.2,2.1,1.3,3.1,0,1.7,5.4-.1,6.1,0,.3,0,.5-.3.5-.7Z"/>
  <path d="M396.9,139.5c4.8-1.1,6.7,1.3,5-5,2.4-4.2,2.7,10.7,3.1,11.1.2.9-1.5,1.4-1.7.4-.3-.5,0-5.6-1.3-5.4-6.7,1.3-5.5-1.2-5.7,4.5-1.9,3-2-8.5-2.4-8.7-.1-1.2,2-1.1,2,0,.2.7-.4,3.1.9,3Z"/>
  <path d="M30.1,146.8c-1.7-14.7,1.6-17.4,1.6-.5.3.8-1.3.4-1.6.5Z"/>
  <path d="M391.6,146.7c-.6.3-1.6.3-1.5-.6,1.1-4.2-.6-8.5.3-11.3.6,0,1.4.2,1.4.9-.2.5,1,11.3-.2,11Z"/>
  <path d="M225.4,135.4c2.5,1.4-4.1,2.2-4.5,2.6-2.2,2.5,4.8,3.6,5.9,6.1,1.8,3-2.9,5.4-5.5,4-.8-.2-1-2,0-2,1.5.9,2.9,1,4-.2.9-2.3-2.5-2.7-5.1-4.6-5.1-3.3,1.8-7,5.2-5.9Z"/>
  <path d="M210.5,148.4c-1.2-2.4-4.5,1.5-6.8-.3-2.2-1.4-3.1-4.9-2-7.3,4.6-9.6,11.1-2.6,7.6-2.3-6.4-4.5-10.3,14,.7,6.9.8-1.1,1.4-10.3,4-9.3,2.4-.8,8.5,14.3,4,12.3-.5-.7-.3-5.8-1.9-5.3-.5.3-4.4.9-4.4,1.8-.3.4,0,4.9-1.3,3.8ZM213.1,139.7c-1.7,3,1.9,1.8,3,1-.3-1.3-2.5-4.4-3-1Z"/>
  <path d="M175.9,141.1c0,16.1-15.5,7.9-9.9-3.2,2.8,1.4-1.9,11.5,5.3,10.1,6.7-4.1-.1-9.4,1.9-11.4,1.6-.6,1.4,3.2,2.7,3,.9-4.3,9.9-4.9,6.5-1.9-1.5-.2-4.5.9-4,2.6,2.8-.3,4.3,1.4,6.1,2.8,1.1-2.3-1.3-4.5,1.2-5.7.3-.2,7.6-.6,8-.7,1.1,0,.5,1.8-.4,1.8-1.8.6-7.9-.4-6.9,3.2.4,1.3,3.4-.4,3.7.3,1,.2.9,1.8-.1,1.9-2.9.4-4.4-.3-3.5,3.5.3,2.5,7.8-1.5,8.7-.2-.4,2.8-4.5,1.8-7.2,3.1-1.3.7-2.5-1.5-3.9-1.5-1.6,1.4-5,2.9-6.6.8-1.5-2.1.4-3.4,1.5-1,4,1.1,6.2-2.9,2.6-5.5-1.7-.9-4.2-.4-5.3-2-.2-.2-.6,0-.5.2Z"/>
  <path d="M232.8,143.6c-3.3.6-3.7-.5-3.4,3.5,1.6,2.4,7-.2,8.5-.6.8-.2.7.2,1.3,1,1.3,2.3,4.5.1,5-1.5,0-3.4-4.1-2.3-6.4-3.6-3.1-5.2,4.7-6.3,8.7-5.7.5,0,.8.4.8.8-1.3,2.4-5.1,0-6.9,1.7-4.1,2.8,5.5,1.4,5.7,6.3-.5,3.2-6.1,7.1-8.2,3-.1-.3-.5-.2-.6,0-.1.3-.3.8-.8.7-1.9-.5-8,2.9-9.2-1.3,2.5-10.9-5.5-10.8,8.9-10.9.3,0,.2.8.2.8-1.3,2.9-7.2,0-7,2.1,0,.7-.1,2.1.9,2,1.2-.2,4.7,0,2.5,1.7Z"/>
  <path d="M285.7,158.6c-2.7,1-.3-5.6-1.6-6.5-.3-.7-6.2-6.7-2.4-5.7.6.3,3.1,5.3,4,3.8.6-.4,3.1-7,4.3-6,2.6,1.4-3.9,6.8-3.9,8.4-.2.5.5,6-.5,6.1Z"/>
  <path d="M307.9,158.1l-1.4-11.1c0-.5,1-.4,1.2-.5.9,0,.5,4.5,1.5,4.3,6.9-2.5,3.6-.7,4.9-6.2.2.1,1.2.3,1.2.7,0,0,0,13.3,0,13.3,0,.5-1.2.2-1.5.3-.7.2-.1-7.2-.3-7.4.1-.8-4.7,1.3-4.5,1.5-.2.4.8,6.8-1,5.1Z"/>
  <path d="M299.5,156.3c0,.9-2.1.7-1.9-.2,0,0,2.1-10.4,2.1-10.4,1.7-1.8,6.4,3.2,6,5.8,0,2.6,1.6,5.4,0,6.6-1.3.3-.9-3.4-1.2-4,0-1.2-3.5-.3-4.1-.5-1.1,0-.7,2.1-.9,2.8ZM300.4,151.9c7.6,1.1,1.7-5.7.1-4,.1.3-1,4.1-.1,4Z"/>
  <path d="M318.4,145.5c2.1-.5.3,7.5.6,8.2,0,1.1-1.9,1-1.8,0,.4-.7-.4-8.5,1.2-8.1Z"/>
  <path d="M291.5,152.8c-.9-.1-.5,3.4-.8,3.8,1.2,2.4,5.2-.8,6.7.5.5,2.9-8.5,2.6-8.3,0,0-1.7-.2-7.5,1-9.1.7-3.4,13-1.8,7.2,0-.7,0-2.7-.8-3.4-.4-1,.3-3.6,2.3-2.3,3.5.7.4,3.7-.5,3.9.7.7,1.8-3.4.8-4.1,1Z"/>
  <path d="M247.9,147.4c.8-1.7,2.6-.8,1.7.9-.8,1.7-2.6.8-1.7-.9Z"/>
  <path d="M46.8,165.4c1.3-.1.2,1.9-.6,2-10.4,5.3-10.5-7.9-4.5-12.7,1.9-2.4,8.7,2.5,4.9,2.7-4.9-5.2-7.9,4.3-6.9,8.5,1.4,2,5.4,0,7-.6Z"/>
  <path d="M384.2,160.3c10.1-3.7,8.9,14.6-1.2,10-.8-.3-1.1-1.2-1-2,0-.5.6-.7.9-.4,9.4,6.4,7.4-12.6.3-4.1-2.7,1.2-.7-5.6-1.7-6.6-.4-2.4.8-3.1,2.9-3.1,1.4,0,10.7-.5,6.3,2.3-.5.3-7.9-1.4-7.4.1.6.6-.6,3.8.9,3.7Z"/>
  <path d="M407.3,165.4c1.3-.1.2,1.9-.6,2-10.4,5.3-10.5-7.8-4.5-12.7,1.9-2.4,8.7,2.5,4.9,2.7-4.9-5.2-7.9,4.3-6.8,8.5,1.4,2,5.4,0,7-.6Z"/>
  <path d="M22.4,161.4c0,1.1,4.2-.5,4.6-.3,1.2,0,.4-5.1.6-5.8,3.1-2.8,1.4,10.9,1.8,11.7,0,.9-1.6,1.7-1.8.5-.2-.4.4-5-.7-4.7-1.5,0-6.4,2.3-6.4-.6,0,0,0-5.3,0-5.3,0-.5.6-.7,1-.5,1.5.2.6,4,.8,5Z"/>
  <path d="M17,155.4c.6-.9,1.9.4,1.8,1.3-.5,1.3,1.3,14-1.6,13.5-.8,0,0-14.5-.2-14.8Z"/>
  <path d="M80,159.1c0-.4-.5-.5-.7-.3-2.2,3.1-4.8,3.6-7,5.1,0,0,0,3,0,3,0,1-1.6,1.4-1.6.2.1-2.4.6-6.6-.7-8.3-.6-.8-.7-1.5-.2-2,2-2.1,7.1-2.3,9.3-.5.9.6,1.4-1.5,2.2-.3,6.2.6,11.1-.9,17.5-.7,1,.1.5,1.7-.3,1.7-.5.2-4.5-.5-4.4.5-.4.4.8,12.3-1.3,10.7-1.7-2.7,1.3-8.2-1.2-10.5-1.7,1.3-2.8,0-4.3-.2-2.4-.2-8.4,1.3-4.6,3.2.6.2,3.3-.5,3.3.7,0,.5-.3,1-.8,1-2.5.1-3.9-.9-3.4,2.5.2,4.1,7.8-1.7,8.4,1.4-.1,1.1-7.6,2.3-9.4,1.4-1.1,0-.3-8.2-.5-8.7ZM73.3,161.6c7.7-2.9,2.6-7.3-1.5-3.5.3.6.1,3.9,1.5,3.5Z"/>
  <path d="M377.4,155.9c4.1-4.3.2,11.8,2.1,12,.5.8-.2,2-.9,2.2-2.4,1.4-.7-13.7-1.2-14.2Z"/>
  <path d="M439.9,158.8c-4.3,6-7.7,2.1-7,8.1,0,.5-.4.9-.8.9-2-1.2.5-7.3-1.5-9-.6-.8-.7-1.5-.2-2,2-2.1,7.1-2.3,9.3-.5.9.6,1.2-1.3,2.1-.5,1.6,1.7,19.6-2.6,18.1.5-.4,1.6-4.9-.3-5.2,1.1-.4.4.8,12.3-1.3,10.7-1.4-2.8.6-7-.6-10.1-.8-.9-2.7,1.1-3.7-.2-2.1-1.3-10,.8-5.8,2.9.6.2,3.3-.5,3.3.7,0,.5-.3,1-.8,1-.5.2-3.5-.5-3.4.5h0c-1.1,7.3,6.3.6,8.3,3.1,1.1,1.4-7.9,2.7-9.3,1.7-1.6,0,.7-9.8-1.2-9ZM433.8,161.6c7.7-2.9,2.7-7.3-1.4-3.5.3.6.1,3.9,1.4,3.5Z"/>
  <path d="M59.2,159.6c-.3.4.7,9.6-.6,9.2-2,.5-.6-11.7-1-12.4.9-2.9,4.3,3.6,5.6,2.4.5-.6,1.4-3.1,2.3-3.1,6.2-.8,2.1,7.8,3.6,10.9-.3,1.3-2.2-.5-2-1.3-.6-1.6,1.8-12.6-2.6-5.3-.7,1.1-1.3,1.6-1.9,1.4-.7.4-2.5-3.8-3.3-1.8Z"/>
  <path d="M109.7,165.1c1.8,1.7,0-8.6.4-8.8,3-4.4,1.5,10.4,1.8,10.9-1.9,5.2-4.9-5.7-8.1-6.6-.4.6,1,8.6-1,7.6-1.5.4-.4-11.1-.7-11.6.9-3.9,6.9,8.4,7.6,8.5Z"/>
  <path d="M419.8,159.6c-.3.4.7,9.6-.6,9.2-2,.5-.6-11.7-1-12.4.9-2.9,4.3,3.6,5.6,2.4.5-.6,1.4-3.1,2.3-3.1,6.2-.8,2.1,7.7,3.6,10.9-.3,1.3-2.2-.5-2-1.3-.6-1.6,1.9-12.6-2.6-5.3-.7,1.1-1.3,1.6-1.9,1.4-.7.4-2.5-3.8-3.3-1.8Z"/>
  <path d="M465,160.2c-1.3-1.3-.4,7.4-.6,7.5-3,3.9-1.3-10.9-1.7-11.3,2-3.3,5.8,9.4,8.3,8.6.2-.2-.8-10,.2-9.5,3,1.5.9,10.6,1.2,12-1.1,5.1-6.4-6.8-7.3-7.2Z"/>
  <path d="M119.4,161.3c7-1.1,5.1,8.4-.5,8-5.6-.3-7.5-7.6-4.5-11.6,1.1-2.9,15-1.7,9.2.4-6.5-2.8-12.2,4.1-6.4,9,2.6,2.2,6.7-2,4-4-1.6.4-4-1-1.8-1.8Z"/>
  <path d="M480,161.3c7-1.1,5.1,8.4-.4,8-5.6-.2-7.5-7.6-4.6-11.6,1.1-2.9,14.9-1.7,9.2.4-6.5-2.8-12.2,4.2-6.3,9,2.6,2.2,6.7-2,3.9-4-1.6.4-4-1-1.8-1.8Z"/>
  <path d="M53.8,156.7c4.5,2.1,3.5,9.3-.7,11.1-7.7,3-6.3-14.8.7-11.1ZM50.4,159.2c-4.4,11.7,8.5,7.8,4,.3-.6-.2-3.6-1.1-4-.3Z"/>
  <path d="M414.4,156.7c4.5,2.1,3.4,9.3-.7,11.2-7.7,3-6.3-14.8.7-11.2ZM411.1,159.2c-4.5,11.7,8.4,7.8,4,.3-.5-.2-3.7-1.2-4-.3Z"/>
  <path d="M317.7,158.9c-.4-1.9,1.7-2.3,2.1-.4.4,1.9-1.7,2.3-2.1.4Z"/>
  <path d="M185.6,158.2c2.4-3.1-.4,10.3,9.3,16.6-7.3.5-9.3-10.5-9.3-16.6Z"/>
  <path d="M98.6,158.5c2-.6.7,9,1.1,9.6,0,1-1.7,1.1-1.7,0,.3-.6-1-10,.6-9.7Z"/>
  <path d="M459.2,158.6c1.9-.6.7,9,1.1,9.6,0,1-1.7,1.1-1.7,0,.3-.7-1-9.9.6-9.6Z"/>
  <path d="M222.5,162.2c14.4,7.4,5.4,35.1-11.2,28.1-18.8-9-10.7-36.8,11.2-28.1ZM219.9,164.3c-10.8-7.8-21.8,7.8-15,17.9,4.7,8,17.6,10.6,21.5.5,3.1-6.8,1.5-17.4-6.5-18.3Z"/>
  <path d="M304.4,164.3c-1.2,5.7.4,13.9-6.3,15.5.6-2.1,4.1-4,4.5-7.4,0-2.8,0-11.4,1.9-8.1Z"/>
  <path d="M277.2,206.4c-.8,11.8-1.2,12.8,2.9,24.7,2.7,16.2,8.7,22.2,11.6,36.3-6.2-6.7-8.1-19.7-12.1-29.9-4.2-20.9-4.4-9.7-10.4,5.9-2.4,7.2-4.3,14.7-5.6,22.6,0,.6-.7,1-1.3.9-.6,0-1-.6-.8-1.2,4.4-21.9,6.5-24.4,12.6-43.2.2-.5,1.3-17.5,1.4-18-1.4-.9-9.9,22.7-12.5,16.5,5-6.2,8.7-14.8,12.1-22.1-.2-.3-5.2.2-5.5,0-9.1-3.2-11.2-16.7-7.4-23.5,2.1.8,2.3,1.1.6.9-1.1-2.8,5.2-4.8,7.9-4.7,5.9,0,11.6,3.2,15.4,6.9,1.3-1.4,4.2-2.9,6.3-1.7,7.5,9-5.8,16.2-4.4,26.2-1.4,4.4-5.4-7.2-4.8-8.8,2.1-2.9,1.3,4.9,3.2,3.7.9-6.8,9.8-11.2,5.4-18.9-4-2.4-5.5,2.8-5.1,6.1-1.1,4.1-2.9,8.4-6.4,11-.2.4-5.7,2-4.5,2.9,3.8,5.9,3.7,7,11.5,16.4.7,1.8,4.4,2.6,2.7,4.1-2.6,2.4-11.4-14.8-13.2-13.3ZM278.4,175.9c0,.7-.7,1.4-1.1.6-13.3-11.9-21.1,13.6-8,20.2,13,4.6,23.2-18.6,9.2-20.9Z"/>
  <path d="M84.7,184.6c.6-1.4-1.4-4.3-.5-6,3.1-3.2,12.4.2,6.9,4.3-1.4.9-2.9.8-2.4,1.9,0,0,4.7,4.1,4.7,4.1,5.3,1.6-4.5-12.9,5.1-10.8,11,2.8,1.5,14.7-5.8,12.8-.4,0-6.4-6.7-6.4-4.6.7,2.9.6,4.5-2.6,4.3-1.1-3.5-.4-8.5-4.2-11.4-2.4-2.8-2.6,4.5-3.2,5.2.8,1.1,3.4-.3,5-.4.8-.2,1.3.8.7,1.2-1.6,1.5-4.5.5-6,1.6,0,0-.5,2.7-.5,2.7-.3,1.4-2.2.5-1.8-.7.8-1,1.7-13.4,4.3-12.3,4.1,1.5,5.5,5.9,6.8,8.2ZM87,183.1c8.8-3.7,0-5.2-1-2.6.2.4-.2,3.1,1,2.6ZM97,188.5c3.4.5,7.3-6.9,2.6-8.4-1.4-.6-3.5-.6-3.5,1.4.3.5-.4,7.3.9,7Z"/>
  <path d="M445.2,184.6c.6-1.4-1.4-4.3-.5-6,3.1-3.2,12.4.2,6.9,4.3-1.4,1-2.9.8-2.4,1.9,0,0,4.7,4.1,4.7,4.1,5.3,1.6-4.5-12.9,5.1-10.9,11,2.8,1.5,14.7-5.8,12.8-.4,0-6.4-6.7-6.4-4.6.7,2.9.6,4.5-2.6,4.4-1.1-3.5-.4-8.5-4.2-11.4-2.4-2.8-2.6,4.5-3.2,5.2.8,1.1,3.4-.3,5-.4,3.2,1.2-3.1,2.9-4.7,2.3-1-.2-.9,2.7-1.1,3.2-.3,1.4-2.2.5-1.8-.7.8-1,1.7-13.4,4.3-12.4,4.1,1.5,5.5,5.9,6.8,8.2ZM447.3,183.1c7.4-2.2,3.4-5.6-.6-2.9.2.3-.3,3.2.6,2.9ZM457.5,188.5c3.4.5,7.3-6.9,2.6-8.4-1.4-.7-3.5-.6-3.5,1.4.3.5-.4,7.3.9,7Z"/>
  <path d="M42,179.5c-1.8.6.2,11.6-1.8,12.1-1.9.6-.3-10.2-.6-10.8,0-.5-.5-.8-.9-.7-2.2.8-4.8-2.2-6.7.3-4.9,4.1,1.6,3.9,4.3,4.7,5,2.6-3.4,12-6.7,5.6-.4-.6-.4-1.4,0-1.8,1.5-1.5,2.8,6.3,6.7-.6,1.2-2.9-4.9-2.1-6.2-2.7-6.1-2,2.4-11.1,6.2-7,.6.3,10-2.8,9.8-1,.6,1.8-3.3,1.5-4.2,1.9Z"/>
  <path d="M401.9,180.2c-.4.3.6,15-2,10.6,0,0,.3-10,.3-10-.5-1.5-2.6.2-3.9-1.1-2.2-1.3-4.1.9-5.3,2.4-1.5,3.9,8.5.9,7.5,5.3-2.1,9.8-11.8,3.1-7.5,1.2,1.3,2.8,4.4,3.5,6-.4,1.1-2.8-4.9-2.1-6.2-2.6-5-1.7-.2-7.6,3.6-8.2,1.1-.4,1.6,1.4,2.6,1.2.7.3,10.6-3.2,9.8-.6,0,1.7-4.6.5-4.8,2.2Z"/>
  <path d="M54.8,189.1c2.1-1-1.3-12.8,2.1-10.3,2.1,3,3.1,7.6,4.7,7,0,0,0-7.8,0-7.8,2.6-4,2,15.2-.2,11.5-.2,0-4.1-6.9-4.5-6.2-.5-.4,1,7.2-1.5,7.5-2.7-2.3-2,2.6-3.3-4.7-1.2-.9-2.4.6-6,0-1.3-.2-.9,3.3-1.2,3.9-4.6,4.9.9-18,5.9-11,0,0,3.8,10.2,3.8,10.2ZM46.9,181.5c-.2.5-1.5,2.6-.4,3,.2-.1,4.5.1,4.5-.2.3-.2-1.6-4-1.5-4.2-.8-.9-2.2,1.1-2.6,1.5Z"/>
  <path d="M415.4,189.1c2.1-1-1.2-12.9,2.1-10.3,2.1,3,3.1,7.6,4.7,7,.2-.5-.5-8.7.7-8.5,2,2.1,1.2,14.4-.8,12.2-.2,0-4.1-7-4.5-6.2-.5-.4,1,7.2-1.5,7.5-2.7-2.3-2,2.6-3.3-4.7-1.2-.9-2.4.6-6,0-1.3-.2-.9,3.3-1.2,3.9-4.6,4.9.9-18,5.9-11,0,0,3.8,10.2,3.8,10.2ZM407.5,181.5c-.2.5-1.5,2.6-.4,3,.2-.1,4.5.1,4.5-.2.3-.2-1.6-4.1-1.5-4.3-.8-.9-2.2,1.1-2.6,1.5Z"/>
  <path d="M65.6,191c-.7,1-2.5-13.4-1.6-12.7,13.3-3.4,13.9,11.1,1.6,12.7ZM65.4,181.2c.4.5.3,8.4,1.7,7.9,8.5-1.6,6.3-13.7-1.7-7.9Z"/>
  <path d="M111.3,188.3c-.7,2.1-11.2,4.8-8.2.7,2.1.4,6.9.7,6.7-2.1-.7-2.8-7.1-3.1-5.6-6.2.5-1.2,7-4.1,6.2-1.6-7.7,3-.8,3.7.9,7.5.8.7,1.7-1.5,2.6-.3,1.8,1.7-.5,5.4-2.1,2.2,0-.2-.4-.3-.5,0Z"/>
  <path d="M425.6,190.6c.2-.3-2.1-12.5-1.1-12.2,15.3-3.7,12.1,13.6,1.1,12.2ZM426,181.2c.4.5.3,8.3,1.6,7.9,8.5-1.5,6.4-13.7-1.6-7.9Z"/>
  <path d="M471,179c-10.1,4,3.3,4.1.8,9.5-2,1.8-7,4.3-8.8,1.5.2-1.9,4.7,0,6.4-1.4,3.9-3.4-5.8-4.4-4.8-7.6.2-1.3,6.7-4.4,6.4-2Z"/>
  <path d="M280.6,183c2.6,1.7.6,12.1-1.5,8.1,5.5-12.1-12.7,1.1-14.8-11.9.7-2.8,2.3,1.2,2.6,2.1,2.9,4.8,9.4,1.8,13.6,1.8Z"/>
  <path d="M472.4,187.9c-.4-2.5,2.4-2.8,2.7-.4.4,2.5-2.4,2.8-2.7.4Z"/>
  <path d="M209.7,197.2c-3.2,1.8-4.9,24.8-8,20.6,0-1.1,5.2-30,10-25,0,0,13.6,24.7,13.6,24.7.5,1.4-1.9,1.3-2.3.3-.3,0-10.3-19.5-10.8-19.1-.3,16.6-.3,20.5,7,38.1,1,4.4,10.2,26.8,7,28.5-4.6-13.1-6.8-27-13.5-39.9-3.1,5.4-4.6,18-9.4,33.4-.7.9-.8,5.9-3.2,6.3-2.4-.2,11.3-42.3,10.7-43.2.2-.5-1.2-24.3-1.1-24.9Z"/>
</svg>
