<?xml version="1.0" encoding="UTF-8"?>
<svg id="Layer_1" xmlns="http://www.w3.org/2000/svg" version="1.1" viewBox="0 0 353.5 227.9">
  <!-- Generator: Adobe Illustrator 29.8.2, SVG Export Plug-In . SVG Version: 2.1.1 Build 3)  -->
  <defs>
    <style>
      .st0 {
        stroke-width: .5px;
      }

      .st0, .st1, .st2 {
        stroke-miterlimit: 10;
      }

      .st0, .st1, .st2, .st3, .st4, .st5 {
        stroke: #000;
      }

      .st0, .st6, .st2, .st3, .st4, .st5 {
        fill: none;
      }

      .st7 {
        font-size: 7px;
      }

      .st7, .st8 {
        font-family: Latin Modern Roman, 'Myriad Pro';
      }

      .st9, .st1 {
        fill: #fff;
      }

      .st2, .st3 {
        stroke-width: 2px;
      }

      .st3, .st4, .st5 {
        stroke-linecap: round;
        stroke-linejoin: round;
      }

      .st8 {
        font-size: 9.4px;
      }

      .st4 {
        stroke-width: 2.5px;
      }

      .st5 {
        stroke-width: 2.4px;
      }
    </style>
  </defs>
  <rect class="st1" x="41.2" y="40" width="42.4" height="42.4"/>
  <ellipse cx="46.8" cy="51" rx="3.1" ry="5.1"/>
  <ellipse cx="303.7" cy="71.8" rx="3.1" ry="5.1"/>
  <ellipse cx="46.8" cy="68.7" rx="3.1" ry="7.5"/>
  <ellipse cx="56.5" cy="47.7" rx="2.6" ry="4.3"/>
  <ellipse cx="70.1" cy="65.4" rx="5.6" ry="4.3"/>
  <ellipse cx="269.2" cy="72.2" rx="5.6" ry="4.3"/>
  <ellipse cx="64.7" cy="77.6" rx="5.6" ry="2.9"/>
  <ellipse cx="286" cy="69.7" rx="5.6" ry="2.9"/>
  <ellipse cx="78.8" cy="74.7" rx="2.2" ry="2.9"/>
  <ellipse cx="54" cy="59.5" rx="2.5" ry="2.6"/>
  <ellipse cx="274.9" cy="64.3" rx="2.5" ry="2.6"/>
  <ellipse cx="72.6" cy="47.7" rx="8.2" ry="4.3"/>
  <ellipse cx="78.2" cy="57.9" rx="2.6" ry="4.3"/>
  <text class="st8" transform="translate(41.2 35)"><tspan x="0" y="0">~ 20% Fat</tspan></text>
  <text class="st7" transform="translate(91.7 44.1)"><tspan x="0" y="0">Heating </tspan><tspan x="0" y="8.4">using hot hair</tspan></text>
  <text class="st8" transform="translate(26.4 63.8)"><tspan x="0" y="0">A</tspan></text>
  <rect class="st1" x="41.2" y="108.2" width="42.4" height="42.4"/>
  <ellipse cx="46.8" cy="119.2" rx=".7" ry="1.2"/>
  <ellipse cx="46.8" cy="136.9" rx="1.1" ry="2.6"/>
  <ellipse cx="56.5" cy="115.9" rx=".5" ry=".8"/>
  <ellipse cx="70.1" cy="133.7" rx="1.2" ry=".9"/>
  <ellipse cx="64.7" cy="145.8" rx="3" ry="1.5"/>
  <ellipse cx="78.8" cy="142.9" rx=".3" ry=".3"/>
  <ellipse cx="54" cy="127.8" rx=".6" ry=".6"/>
  <ellipse cx="72.6" cy="115.9" rx="2.1" ry="1.1"/>
  <ellipse cx="78.2" cy="126.1" rx=".9" ry="1.5"/>
  <text class="st8" transform="translate(49.4 103.2)"><tspan x="0" y="0">6% Fat</tspan></text>
  <text class="st8" transform="translate(136.7 9.4)"><tspan x="0" y="0">Release of free oil onto</tspan><tspan x="0" y="11.2">cheese surface due to</tspan><tspan x="0" y="22.5">release of fat</tspan></text>
  <text class="st8" transform="translate(141.2 94)"><tspan x="0" y="0">No release of oil</tspan><tspan x="0" y="11.2">onto cheese surface</tspan></text>
  <text class="st8" transform="translate(241.8 94)"><tspan x="0" y="0">Dehydrated surface</tspan><tspan x="0" y="11.2">prevents cheese flow</tspan></text>
  <text class="st8" transform="translate(250 25.1)"><tspan x="0" y="0">Oil coating reduces </tspan><tspan x="0" y="11.2">dehydration and </tspan><tspan x="0" y="22.5">cheese flows</tspan></text>
  <text class="st8" transform="translate(141.9 158.4)"><tspan x="0" y="0">Release of free oil</tspan><tspan x="0" y="11.2">onto cheese surface</tspan></text>
  <text class="st8" transform="translate(234.3 181.9)"><tspan x="0" y="0">Cheese flows same as (A)</tspan></text>
  <text class="st8" transform="translate(26.4 132)"><tspan x="0" y="0">B</tspan></text>
  <rect class="st1" x="41.2" y="174.8" width="42.4" height="42.4"/>
  <text class="st8" transform="translate(49.2 169.9)"><tspan x="0" y="0">6% Fat</tspan></text>
  <text class="st8" transform="translate(26.4 198.7)"><tspan x="0" y="0">C</tspan></text>
  <circle class="st0" cx="48.3" cy="181.9" r="7.1"/>
  <ellipse class="st0" cx="65.4" cy="179.8" rx="9.4" ry="5"/>
  <ellipse class="st0" cx="78.1" cy="185.7" rx="5.5" ry="5"/>
  <ellipse class="st0" cx="73.9" cy="197.7" rx="9.2" ry="7"/>
  <ellipse class="st0" cx="47.9" cy="197.1" rx="6.7" ry="8.2"/>
  <ellipse class="st0" cx="59.4" cy="202.2" rx="5.3" ry="6.1"/>
  <ellipse class="st0" cx="62.4" cy="212.6" rx="5.3" ry="4.3"/>
  <ellipse class="st0" cx="73.9" cy="213.6" rx="5.3" ry="3.4"/>
  <ellipse class="st0" cx="48.7" cy="211.2" rx="7.3" ry="5.8"/>
  <ellipse class="st0" cx="60.9" cy="189.7" rx="7.7" ry="4.9"/>
  <ellipse class="st0" cx="77.3" cy="207.5" rx="6" ry="2.8"/>
  <circle cx="80.2" cy="208.3" r=".8"/>
  <circle cx="77.3" cy="206.7" r=".8"/>
  <circle cx="73.9" cy="207.5" r=".8"/>
  <circle cx="73.9" cy="212.6" r=".8"/>
  <circle cx="71.4" cy="213.6" r=".8"/>
  <circle cx="48.7" cy="207.5" r=".8"/>
  <circle cx="45" cy="210.3" r=".8"/>
  <circle cx="44.9" cy="213.6" r=".8"/>
  <circle cx="51.4" cy="212" r=".8"/>
  <circle cx="64" cy="211.2" r=".8"/>
  <circle cx="60.3" cy="213.6" r=".8"/>
  <circle cx="59.4" cy="205.4" r=".8"/>
  <circle cx="60.9" cy="200.3" r=".8"/>
  <circle cx="57" cy="201.2" r=".8"/>
  <circle cx="73.9" cy="198.7" r=".8"/>
  <circle cx="78.1" cy="201.2" r=".8"/>
  <circle cx="76.4" cy="194.5" r=".8"/>
  <circle cx="70.5" cy="195.2" r=".8"/>
  <circle cx="68.9" cy="198.7" r=".8"/>
  <circle cx="64" cy="188.2" r=".8"/>
  <circle cx="62.6" cy="191.5" r=".8"/>
  <circle cx="59.4" cy="188.2" r=".8"/>
  <circle cx="57.9" cy="191.5" r=".8"/>
  <circle cx="44.2" cy="200.3" r=".8"/>
  <circle cx="51.4" cy="199.5" r=".8"/>
  <circle cx="47.7" cy="196" r=".8"/>
  <circle cx="45" cy="192.4" r=".8"/>
  <circle cx="50.6" cy="194.1" r=".8"/>
  <circle cx="81" cy="183.6" r=".8"/>
  <circle cx="78.1" cy="187.4" r=".8"/>
  <circle cx="69.7" cy="181.9" r=".8"/>
  <circle cx="68.9" cy="179" r=".8"/>
  <circle cx="65.4" cy="181.1" r=".8"/>
  <circle cx="63.4" cy="177.3" r=".8"/>
  <circle cx="61.7" cy="181.1" r=".8"/>
  <circle cx="49.5" cy="185.7" r=".8"/>
  <circle cx="44.9" cy="182.7" r=".8"/>
  <circle cx="50.6" cy="181.9" r=".8"/>
  <circle cx="46.8" cy="179" r=".8"/>
  <path class="st2" d="M59.6,175c-1.6.4-3,1.8-3.6,3.3s.4,2.5.3,4.1"/>
  <path class="st2" d="M78.3,179.8c-.5-.5-1.3-.3-1.9,0-.9.3-1.9.7-2.7,1.3s-1.3,1.6-1.1,2.6"/>
  <path class="st2" d="M81.3,201.2l-1.3,3.3c-.1.3-.3.7-.5.9-.7.7-1.8.3-2.7-.2s-1.8-1.1-2.7-.8"/>
  <path class="st2" d="M69.6,210.4c-1.6,1.2-2.4,3.5-1.9,5.4"/>
  <path class="st2" d="M52.7,204.2c-1.2,1.6-3.4,2.4-5.4,2-.7-.2-1.4-.5-2.1-.5-1.3,0-2.6,1-2.8,2.4"/>
  <path class="st2" d="M41.9,190.9c1.4.4,2.7-.6,4-1,1.1-.3,2.2-.2,3.3-.3s2.3-.3,3-1.2"/>
  <path class="st2" d="M49.4,175l2.7,1.7c1.9,1.2,4,2.6,4.5,4.8"/>
  <rect class="st1" x="146.9" y="40" width="42.4" height="42.4"/>
  <ellipse cx="149.5" cy="52" rx="3.1" ry="5.1"/>
  <ellipse cx="149.5" cy="71.8" rx="3.1" ry="7.5"/>
  <ellipse cx="157.2" cy="44.1" rx="2.6" ry="3.6"/>
  <ellipse cx="167.9" cy="62.2" rx="4.4" ry="3.1"/>
  <ellipse cx="170" cy="80.1" rx="5.6" ry="2.9"/>
  <ellipse cx="186.7" cy="79.1" rx="2.2" ry="2.9"/>
  <ellipse cx="158.3" cy="52.9" rx="2.1" ry="1.9"/>
  <ellipse cx="182.3" cy="43.3" rx="6.9" ry="3.5"/>
  <ellipse cx="186.5" cy="61.2" rx="2.6" ry="4.3"/>
  <rect class="st1" x="146.9" y="108.2" width="42.4" height="42.4"/>
  <ellipse cx="152.5" cy="119.2" rx=".7" ry="1.2"/>
  <ellipse cx="152.5" cy="136.9" rx="1.1" ry="2.6"/>
  <ellipse cx="162.2" cy="115.9" rx=".5" ry=".8"/>
  <ellipse cx="175.8" cy="133.7" rx="1.2" ry=".9"/>
  <ellipse cx="170.4" cy="145.8" rx="3" ry="1.5"/>
  <ellipse cx="184.6" cy="142.9" rx=".3" ry=".3"/>
  <ellipse cx="159.8" cy="127.8" rx=".6" ry=".6"/>
  <ellipse cx="178.3" cy="115.9" rx="2.1" ry="1.1"/>
  <ellipse cx="183.9" cy="126.1" rx=".9" ry="1.5"/>
  <rect class="st1" x="249.6" y="108.2" width="42.4" height="42.4"/>
  <ellipse cx="255.2" cy="119.2" rx=".7" ry="1.2"/>
  <ellipse cx="255.2" cy="136.9" rx="1.1" ry="2.6"/>
  <ellipse cx="264.9" cy="115.9" rx=".5" ry=".8"/>
  <ellipse cx="278.5" cy="133.7" rx="1.2" ry=".9"/>
  <ellipse cx="273.1" cy="145.8" rx="3" ry="1.5"/>
  <ellipse cx="287.3" cy="142.9" rx=".3" ry=".3"/>
  <ellipse cx="262.4" cy="127.8" rx=".6" ry=".6"/>
  <ellipse cx="281" cy="115.9" rx="2.1" ry="1.1"/>
  <ellipse cx="286.6" cy="126.1" rx=".9" ry="1.5"/>
  <rect class="st1" x="146.9" y="174.8" width="42.4" height="42.4"/>
  <circle class="st0" cx="154" cy="181.9" r="7.1"/>
  <ellipse class="st0" cx="171.2" cy="179.8" rx="9.4" ry="5"/>
  <ellipse class="st0" cx="183.8" cy="185.7" rx="5.5" ry="5"/>
  <ellipse class="st0" cx="179.6" cy="197.7" rx="9.2" ry="7"/>
  <ellipse class="st0" cx="153.6" cy="197.1" rx="6.7" ry="8.2"/>
  <ellipse class="st0" cx="165.2" cy="202.2" rx="5.3" ry="6.1"/>
  <ellipse class="st0" cx="168.1" cy="212.6" rx="5.3" ry="4.3"/>
  <ellipse class="st0" cx="179.6" cy="213.6" rx="5.3" ry="3.4"/>
  <ellipse class="st0" cx="154.4" cy="211.2" rx="7.3" ry="5.8"/>
  <ellipse class="st0" cx="166.6" cy="189.7" rx="7.7" ry="4.9"/>
  <ellipse class="st0" cx="183.1" cy="207.5" rx="6" ry="2.8"/>
  <circle cx="185.9" cy="208.3" r=".8"/>
  <circle cx="183.1" cy="206.7" r=".8"/>
  <circle cx="179.6" cy="207.5" r=".8"/>
  <circle cx="179.6" cy="212.6" r=".8"/>
  <circle cx="177.1" cy="213.6" r=".8"/>
  <circle cx="154.4" cy="207.5" r=".8"/>
  <circle cx="150.7" cy="210.3" r=".8"/>
  <circle cx="150.6" cy="213.6" r=".8"/>
  <circle cx="157.2" cy="212" r=".8"/>
  <circle cx="169.7" cy="211.2" r=".8"/>
  <circle cx="166" cy="213.6" r=".8"/>
  <circle cx="165.2" cy="205.4" r=".8"/>
  <circle cx="166.6" cy="200.3" r=".8"/>
  <circle cx="162.7" cy="201.2" r=".8"/>
  <circle cx="179.6" cy="198.7" r=".8"/>
  <circle cx="183.8" cy="201.2" r=".8"/>
  <circle cx="182.1" cy="194.5" r=".8"/>
  <circle cx="176.3" cy="195.2" r=".8"/>
  <circle cx="174.6" cy="198.7" r=".8"/>
  <circle cx="169.7" cy="188.2" r=".8"/>
  <circle cx="168.3" cy="191.5" r=".8"/>
  <circle cx="165.2" cy="188.2" r=".8"/>
  <circle cx="163.6" cy="191.5" r=".8"/>
  <circle cx="149.9" cy="200.3" r=".8"/>
  <circle cx="157.2" cy="199.5" r=".8"/>
  <circle cx="153.4" cy="196" r=".8"/>
  <circle cx="150.7" cy="192.4" r=".8"/>
  <circle cx="156.3" cy="194.1" r=".8"/>
  <circle cx="186.7" cy="183.6" r=".8"/>
  <circle cx="183.8" cy="187.4" r=".8"/>
  <circle cx="175.4" cy="181.9" r=".8"/>
  <circle cx="174.6" cy="179" r=".8"/>
  <circle cx="171.2" cy="181.1" r=".8"/>
  <circle cx="169.1" cy="177.3" r=".8"/>
  <circle cx="167.5" cy="181.1" r=".8"/>
  <circle cx="155.2" cy="185.7" r=".8"/>
  <circle cx="150.6" cy="182.7" r=".8"/>
  <circle cx="156.3" cy="181.9" r=".8"/>
  <circle cx="152.5" cy="179" r=".8"/>
  <path class="st2" d="M165.3,175c-1.6.4-3,1.8-3.6,3.3s.4,2.5.3,4.1"/>
  <path class="st2" d="M184,179.8c-.5-.5-1.3-.3-1.9,0-.9.3-1.9.7-2.7,1.3s-1.3,1.6-1.1,2.6"/>
  <path class="st2" d="M187.1,201.2l-1.3,3.3c-.1.3-.3.7-.5.9-.7.7-1.8.3-2.7-.2s-1.8-1.1-2.7-.8"/>
  <path class="st2" d="M175.3,210.4c-1.6,1.2-2.4,3.5-1.9,5.4"/>
  <path class="st2" d="M158.4,204.2c-1.2,1.6-3.4,2.4-5.4,2-.7-.2-1.4-.5-2.1-.5-1.3,0-2.6,1-2.8,2.4"/>
  <path class="st2" d="M147.7,190.9c1.4.4,2.7-.6,4-1,1.1-.3,2.2-.2,3.3-.3s2.3-.3,3-1.2"/>
  <path class="st2" d="M155.1,175l2.7,1.7c1.9,1.2,4,2.6,4.5,4.8"/>
  <g>
    <line class="st9" x1="91.1" y1="61.2" x2="133.7" y2="61.2"/>
    <g>
      <line class="st0" x1="91.1" y1="61.2" x2="130.7" y2="61.2"/>
      <polygon points="129.3 63 130.1 61.2 129.3 59.3 133.7 61.2 129.3 63"/>
    </g>
  </g>
  <g>
    <line class="st9" x1="91.1" y1="128.4" x2="133.7" y2="128.4"/>
    <g>
      <line class="st0" x1="91.1" y1="128.4" x2="130.7" y2="128.4"/>
      <polygon points="129.3 130.2 130.1 128.4 129.3 126.5 133.7 128.4 129.3 130.2"/>
    </g>
  </g>
  <g>
    <line class="st9" x1="91.1" y1="195.4" x2="133.7" y2="195.4"/>
    <g>
      <line class="st0" x1="91.1" y1="195.4" x2="130.7" y2="195.4"/>
      <polygon points="129.3 197.2 130.1 195.4 129.3 193.5 133.7 195.4 129.3 197.2"/>
    </g>
  </g>
  <text class="st7" transform="translate(198.8 44.1)"><tspan x="0" y="0">Heating </tspan><tspan x="0" y="8.4">using hot hair</tspan></text>
  <g>
    <line class="st9" x1="198.2" y1="61.2" x2="240.7" y2="61.2"/>
    <g>
      <line class="st0" x1="198.2" y1="61.2" x2="237.7" y2="61.2"/>
      <polygon points="236.3 63 237.1 61.2 236.3 59.3 240.7 61.2 236.3 63"/>
    </g>
  </g>
  <g>
    <line class="st9" x1="198.2" y1="128.4" x2="240.7" y2="128.4"/>
    <g>
      <line class="st0" x1="198.2" y1="128.4" x2="237.7" y2="128.4"/>
      <polygon points="236.3 130.2 237.1 128.4 236.3 126.5 240.7 128.4 236.3 130.2"/>
    </g>
  </g>
  <g>
    <line class="st9" x1="198.2" y1="195.4" x2="240.7" y2="195.4"/>
    <g>
      <line class="st0" x1="198.2" y1="195.4" x2="237.7" y2="195.4"/>
      <polygon points="236.3 197.2 237.1 195.4 236.3 193.5 240.7 195.4 236.3 197.2"/>
    </g>
  </g>
  <path class="st3" d="M160.5,37.4l-3.7,1.7c-.4.2-.9.4-1.4.4-.4,0-.8-.2-1.2-.4-1.7-.7-3.7-.5-5.6-.3-.9,0-2,.3-2.4,1.1-.7,1.2.6,3.2-.5,4-.3.2-.6.3-.9.5-.4.4-.5,1-.3,1.5s.5,1,.8,1.5c1,1.8.9,4,.8,6"/>
  <path class="st6" d="M191.1,52.1c-1.1,1-1.3,2.6-1.4,4.1-.1,1.3-.2,2.5-.3,3.8,0,.6,0,1.2.2,1.8.2.3.4.5.6.8.5.8.4,1.8.2,2.7s-.7,1.7-.8,2.7c-.2,1.5.4,3,1.3,4.3"/>
  <path class="st4" d="M177.2,37.3c.9.6,1.5,1.6,2.4,2.2,1.3.8,2.9.6,4.3.4,1.3-.1,2.5-.2,3.8-.3.7,0,1.6,0,2,.6.3.5.2,1.2.2,1.8-.2,1.8,0,3.7.2,5.5,0,.4.2.8.5.9"/>
  <path class="st4" d="M190.4,82c-.1,1-.7,2-1.6,2.7-.3.2-.7.4-1.1.4-.3,0-.6-.2-.8-.4-1.9-1.2-4.1-1.9-6.4-2.1"/>
  <path class="st4" d="M172.2,84.3c0-.4-.4-.6-.8-.6-2.3-.3-4.6-.6-7-.9-.4,0-.8,0-1.1.2-.2.2-.2.4-.4.5-.6.4-1.1-1.1-1.9-.9"/>
  <path class="st4" d="M145,82.1c.7-.2,1.1-.8,1.3-1.5s.2-1.4.5-2c.2-.4.5-.8.5-1.3s-.3-1-.8-.9"/>
  <path class="st4" d="M145.8,70.9c-.3-1.4.4-2.8.5-4.3.3-2-.3-4-1.2-5.8"/>
  <path class="st3" d="M144.7,181.5c1.3,2.1,2.7,4.4,2.6,6.9,0,.9-.3,1.7-.4,2.6-.2,1.5.2,3.1,0,4.6-.2,1-.6,2-1.2,2.8"/>
  <path class="st3" d="M145.7,204.2c.6.5,1.2,1.1,1.6,1.8.2.3.4.7.4,1.1,0,.7-.5,1.4-.9,2-.7,1.1-.9,2.4-.7,3.6"/>
  <path class="st3" d="M169.3,218.5l2.7-1.8c.4-.2.7-.5,1.1-.6.8-.1,1.5.3,2.1.7,1,.6,1.9,1.2,3,1.6s2.3.4,3.3-.2"/>
  <path class="st3" d="M189.4,210.8c.3-1.8-.3-3.7-1.6-5-.4-.4-.9-.8-1.2-1.3s-.5-1.2-.1-1.7c.1-.2.3-.4.5-.5.7-.6,1.2-1.3,1.7-2,.6-.9,1.2-1.8,1.5-2.8s.2-2.2-.5-3"/>
  <path class="st3" d="M188.8,174.3c-4.2-.7-8.5-1-12.8-.9,2.7,1.6,5.3,3.7,7.4,6,.5-1.2.2-2.6-.7-3.5-.8-.8-2-1.2-3.2-1.4-.8-.2-1.5-.4-2.3-.6"/>
  <path class="st3" d="M164.2,173.3c-.7.3-1.2.8-1.4,1.5-.3.9-.3,2.1-1.2,2.5-.8.3-1.6-.4-2-1.1s-.6-1.6-1.2-2.2c-.8-.8-2-.8-3.1-.7-1.5,0-3,0-4.4.1,5.4-.5,10.9-.3,16.2.3-1.3-.2-2.6,0-3.8.6-1.1.5-2.4,1.4-3.6,1"/>
  <path class="st3" d="M190.6,208.9c0-.5,0-.9.2-1.4-1.5-1.6-3.2-3.1-4.8-4.5l2.5-1.2c0,.9,0,1.9,0,2.8-.5-.4-1-.7-1.5-1.1-.5-.4-1.1-.7-1.7-.8s-1.3.3-1.4,1c0,.3,0,.6,0,.8s-.6.3-.6,0"/>
  <line class="st1" x1="244.3" y1="80.5" x2="320.1" y2="80.5"/>
  <line class="st1" x1="241.8" y1="214.4" x2="321.4" y2="214.4"/>
  <path class="st5" d="M244.4,79.6l13.7-11.3c3.1-2.6,6.3-5.2,8.2-8.8,1.4-2.7,3.4-6.4,6.3-5.5,1.4.5,2.2,1.9,3.3,2.9,3.5,3.1,8.9.8,13.6.3,4.8-.5,9.5,1.1,14.1,2.7,3.1,1.1,6.4,2.2,8.8,4.5,2.1,2,3.4,4.8,4.6,7.5,1.4,3.1,2.8,6.2,4.2,9.3"/>
  <path class="st5" d="M241.8,213.6c7-2.2,13.2-6.9,17.3-13.1,1.8-2.7,3.3-5.8,6.1-7.6,1.9-1.2,4.2-1.6,6.4-1.9,5.3-.8,10.6-1.5,15.9-1.1,14.6,1,28.3,10.9,33.9,24.4"/>
</svg>
