<?xml version="1.0" encoding="UTF-8"?>
<svg id="Layer_2" data-name="Layer 2" xmlns="http://www.w3.org/2000/svg" viewBox="0 0 2742.39 774.1">
  <defs>
    <style>
      :root {
        color-scheme: light dark;
        --ts-accent: #fecc51;
        --ts-brown: #885439;
        --ts-orange: #fd7932;
        --ts-gold: #fea331;
        --ts-blue: #658296;
        --ts-ink: #2d363d;
        --ts-ink-alt: #3b4b5a;
        --ts-ink-deep: #594134;
        --ts-stroke: #2d363d;
      }

      @media (prefers-color-scheme: dark) {
        :root {
          --ts-ink: #f2f2f2;
          --ts-stroke: #f2f2f2;
        }
      }

      .cls-1 { fill: var(--ts-accent); }
      .cls-2 { fill: var(--ts-brown); }
      .cls-3 { fill: var(--ts-orange); }
      .cls-4, .cls-5 { fill: var(--ts-gold); }
      .cls-5 {
        stroke: var(--ts-stroke);
        stroke-linecap: round;
        stroke-linejoin: round;
        stroke-width: 3px;
      }
      .cls-6 { fill: var(--ts-ink); }
      .cls-7 {
        fill: none;
        stroke: var(--ts-stroke);
        stroke-linecap: round;
        stroke-linejoin: round;
        stroke-width: 5px;
      }
      .cls-8 {
        fill: none;
        stroke: var(--ts-stroke);
        stroke-miterlimit: 10;
        stroke-width: 4px;
      }
      .cls-9 { fill: var(--ts-blue); }
      .cls-10 { fill: #2d363d; }
      .cls-11 { fill: var(--ts-ink-alt); }
      .cls-12 { fill: var(--ts-ink); }
      .cls-13 { fill: var(--ts-ink-deep); }
    </style>
  </defs>
  <g id="Layer_1-2" data-name="Layer 1">
    <path class="cls-10" d="M595.97,158.75l-3.59,9.71c-.07.19-.17.37-.26.55l-2.02,3.14c-.45.73-.17,1.69.63,2.02,18.66,7.74,35.31,14.95,49.98,21.66,10.11,4.63,15.64,6.57,26.23,10.66,6.07,2.35,12.56,5.18,19.44,8.48,16.3,7.83,30.8,14.31,43.51,19.39,10.6,4.25,18.86,7.7,28.29,11.63,9.29,3.88,14.39,6.03,15.28,6.44,27.31,12.56,46.34,20.94,57.09,25.14,8.21,3.21,14.41,5.96,18.64,8.27,4.47,2.45,8.41,1.97,11.81-1.46,6.57-6.62,10.46-14.24,11.67-22.84.55-1.8.85-4.36.92-7.67.12-6.26-2.3-8.33-8.14-10.42-55.06-19.74-131.63-47.52-229.71-83.3-15.53-5.67-26.93-9.79-34.18-12.35-.58-.21-1.21.08-1.45.65l-4.14,10.3ZM546.13,218.41c-6.04-8.8-9.65-9.76-19.15-12.49-3.21-.91-4.54-3.14-3.99-6.68,2.3-3.39,4.86-8.07,7.49-10.42,4.72-4.25,10.84-6.94,16.98-8.63,6.29-1.73,7.67-9.46,9.76-16.55.67-2.3,1.97-5.89,3.85-10.75,7.28-18.74,11.32-29,12.1-30.76,1.31-2.92,1.21-5.55-.28-7.88-6.95-10.93-14.35-18.56-11.08-33.03,1.36-5.96,5.37-13.93,7.59-20.39,2.88-8.34,7.24-16.23,13.11-23.68,2.59-3.28,4.76-6.22,6.51-8.84.36-.55.19-1.29-.39-1.61-4.69-2.6-9.79-3.8-15.28-3.61-2.24-.18-4.16,0-5.75.51-18.13,5.76-34.1,14.58-47.88,26.48-10.37,8.96-19.33,20.25-26.92,33.88-.48.87-1.29,2.66-2.45,5.37-1.91,4.47-4.21,8.99-5.89,13.51-5.08,13.75-10.34,27.32-15.76,40.69-.62,2.77-.62,5.37,0,7.82.89,3.57,1.87,7.24,2.92,11.06-3.54-2.6-6.26-5.65-8.19-9.11-.3-.55-1.05-.69-1.53-.28-4.64,3.87-7.65,8.96-9.06,15.31-.98-3.86-3.02-9.89-6.13-18.09-1.76-4.68,2.23-12.05,4.45-16.77.59-1.27,1.8-4.24,3.61-8.91,7.34-18.93,13.2-33.28,17.59-43.01,2.64-5.85,7.1-13.62,13.37-23.3,3.66-5.65,8.16-9.56,12.53-14.53,1.71-1.94,3.5-3.77,5.36-5.49,15.16-14.06,32.56-24.23,52.18-30.51,6.83-2.19,13.35-4.06,19.56-5.59.83-.21,1.69-.15,2.48.17l39.76,15.74c.72.29,1.05,1.1.74,1.8-.32.73-2.09,3.15-5.31,7.24-12.8,16.23-24.13,34.49-31.32,54.15-.17.44-.25.92-.25,1.4v8.72c0,.4.12.8.34,1.13l12.85,18.38c.34.5.48,1.1.37,1.69l-1.83,10.06c-.14.74.29,1.49,1.01,1.75,22.04,7.94,39.94,14.37,53.71,19.26,11.32,4.02,28.38,10.86,42.78,15.83,5.33,1.83,11.04,3.9,17.15,6.2,7.41,2.77,25.17,9.24,53.27,19.39,44.87,16.21,73.86,26.37,113.95,41.2,6.59,2.44,11.3,6.33,14.13,11.66,11.73,22.14-5.48,70.74-35.33,69.59-2.6-.1-6.91-1.47-12.93-4.1-36.7-16.07-58.4-25.46-65.08-28.17-6.14-2.49-9.9-4.03-11.26-4.64-29.59-13.04-50.2-21.99-61.84-26.88-27.77-11.68-44.32-19.18-77.25-33.68-16.58-7.28-38.41-15.97-55.58-23.98-.26-.12-.58,0-.7.26l-3.68,7.63c-.5,1.03-1.43,1.78-2.53,2.05-5.74,1.4-10.04,2.68-12.9,3.86-7.31,2.99-8.62,9.18-3.95,18.59"/>
    <path class="cls-9" d="M573.35,23.09l.5.28c.43.23.43.85,0,1.09-6.18,3.43-11.83,6.8-16.96,10.13-26.09,16.92-44.99,39.43-56.71,67.52-5.48,13.15-12.17,30.13-20.09,50.94-4.69-1.69-8.49-4.86-11.4-9.53,5.42-13.37,10.68-26.93,15.76-40.69,1.68-4.52,3.98-9.03,5.89-13.51,1.16-2.71,1.97-4.5,2.45-5.37,7.59-13.63,16.55-24.92,26.92-33.88,13.78-11.9,29.75-20.72,47.88-26.48,1.6-.51,3.51-.69,5.75-.51Z"/>
    <path class="cls-11" d="M522.99,199.25c-15.31-12.34-31.64-18.22-50.98-21.07l.96-6.39c.76.9,1.49.15,2.19-2.22,1.61-5.48,3.26-10.99,4.93-16.52,7.92-20.82,14.61-37.79,20.09-50.94,11.72-28.09,30.62-50.6,56.71-67.52,5.14-3.33,10.78-6.71,16.96-10.13.43-.23.43-.85,0-1.09l-.5-.28c5.49-.19,10.59,1.01,15.28,3.61.58.32.74,1.06.39,1.61-1.75,2.62-3.92,5.56-6.51,8.84-5.86,7.45-10.23,15.34-13.11,23.68-2.22,6.46-6.22,14.43-7.59,20.39-3.26,14.47,4.13,22.1,11.08,33.03,1.49,2.33,1.58,4.96.28,7.88-.78,1.76-4.82,12.02-12.1,30.76-1.89,4.86-3.18,8.45-3.85,10.75-2.09,7.09-3.47,14.81-9.76,16.55-6.14,1.69-12.25,4.38-16.98,8.63-2.63,2.35-5.19,7.04-7.49,10.42Z"/>
    <path class="cls-12" d="M342.12,53.34c-.37-.01-.59.41-.37.72l23.2,32.08c.41.58.4,1.36-.04,1.94l-26.96,34.19c-.39.5.01,1.21.63,1.16,12.09-1.05,20.93-.65,37.09-.23,1.49.03,2.85-.8,3.5-2.13l5.15-10.71c.34-.72,1.07-1.17,1.86-1.17h4.94c.84,0,1.49.74,1.36,1.57l-3.84,25.46c-.07.44-.45.77-.89.76l-68.26-.56c-.87-.01-1.62-.62-1.82-1.47-.19-.83-.06-2.27.43-4.34.12-.52.34-.99.67-1.4l29.72-37.74c.28-.34.28-.81.01-1.16-8.51-11-16.96-22.42-25.35-34.21-2.66-3.74-6.37-5.74-5.19-11.21.17-.78.85-1.34,1.65-1.34h66.55c.74,0,1.36.58,1.39,1.32l.91,20.63c.03.54-.39.98-.91,1.01l-5.3.23c-.67.03-1.29-.4-1.49-1.05-.87-2.81-1.83-5.78-2.89-8.92-.77-2.27-2.44-3.39-5.01-3.39-16.89.06-27.15.06-30.76-.01Z"/>
    <path class="cls-12" d="M289.14,179.02h-11.45c-.47,0-.87-.28-1.05-.69l-43.77-104.23c-.32-.74.23-1.57,1.03-1.57h11.45c.47,0,.87.28,1.05.69l43.77,104.23c.32.74-.23,1.57-1.03,1.57Z"/>
    <path class="cls-5" d="M224.05,145.92v.03c-.26.28-.69.3-.96.06-3.03-2.68-6.87-5.36-11.51-8-13.89-7.9-26.87-16.77-44.35-28.4-.45-.3-.56-.94-.22-1.36l10.12-12.85c.41-.52,1.2-.56,1.67-.08,11.25,11.57,24.34,25.09,35.58,39.01,3.13,3.87,6.33,7.42,9.65,10.68.26.25.28.66.03.92Z"/>
    <path class="cls-2" d="M480.09,153.05c-1.67,5.53-3.32,11.04-4.93,16.52-.7,2.37-1.43,3.11-2.19,2.22.1-3.57-.36-6.71-1.36-9.39-1.05-3.81-2.02-7.49-2.92-11.06-.62-2.45-.62-5.05,0-7.82,2.9,4.67,6.7,7.83,11.4,9.53Z"/>
    <path class="cls-9" d="M872.67,261.55l-276.7-102.8,4.14-10.3c.23-.56.87-.85,1.45-.65,7.26,2.56,18.66,6.68,34.18,12.35,98.08,35.78,174.66,63.56,229.71,83.3,5.84,2.09,8.26,4.16,8.14,10.42-.07,3.3-.37,5.87-.92,7.67Z"/>
    <path class="cls-13" d="M471.6,162.4c1.01,2.68,1.46,5.82,1.36,9.39l-.96,6.39-2.67,5.29c-3.8,6.72-8.81,7.23-15.09,9.07-6.55,1.94-10.3,15.12-12.24,21.34-7.43.48-20.05,6.79-16.48,16.63,1.03,2.85,1.67,4.96,1.87,6.29-3.25-5.27-5.88-10.78-7.89-16.54-.22-.62-.22-1.31.01-1.93,4.45-12.01,9.38-24.12,14.8-36.34.69-1.53,2.16-2.74,4.41-3.61,5.53-2.13,11.67-4.21,14.1-10.08,1.4-6.35,4.42-11.44,9.06-15.31.48-.41,1.23-.28,1.53.28,1.93,3.47,4.65,6.51,8.19,9.11Z"/>
    <path class="cls-11" d="M595.97,158.75l276.7,102.8c-1.21,8.61-5.11,16.22-11.67,22.84-3.4,3.43-7.34,3.91-11.81,1.46-4.23-2.31-10.44-5.07-18.64-8.27-10.75-4.2-29.78-12.58-57.09-25.14-.89-.41-5.99-2.56-15.28-6.44-9.43-3.94-17.69-7.38-28.29-11.63-12.71-5.08-27.2-11.55-43.51-19.39-6.88-3.3-13.37-6.13-19.44-8.48-10.59-4.09-16.12-6.03-26.23-10.66-14.66-6.71-31.32-13.92-49.98-21.66-.8-.33-1.09-1.29-.63-2.02l2.02-3.14c.1-.18.19-.36.26-.55l3.59-9.71Z"/>
    <path class="cls-5" d="M400.63,250.7c.04.17-.04.33-.19.39-.15.07-.33,0-.41-.14-.37-.63-2.95-4.78-7.74-12.42-2.48-3.94-4.9-8.18-7.27-12.71-4.28-8.16-9.66-17.95-16.18-29.34-3.72-6.5-7.37-14.35-10.66-20.64-1.07-2.05-.52-3.51,1.65-4.38,4.93-1.96,10.35-3.95,16.27-6,.66-.23,1.39.14,1.61.8,2.93,8.77,5.2,16.23,6.83,22.4,4.72,17.87,10.08,38.55,16.08,62.04Z"/>
    <path class="cls-2" d="M522.99,199.25c-.55,3.54.78,5.77,3.99,6.68,9.5,2.73,13.11,3.69,19.15,12.49l2.18,4.14c.26.51.34,1.1.22,1.67-.4,1.91-1.09,4.2-2.07,6.86-5.19,14.17-9.28,24.77-12.29,31.78-2.33,5.44-18.81,9.9-22.32,10.71-4.61,1.07-8.45-1.01-12.94-2.85-27.59-11.26-46.16-18.67-55.72-22.24-.59-.22-4.34-1.86-11.22-4.93-1.86-.83-3.37-3.07-4.57-6.75-.21-1.34-.84-3.44-1.87-6.29-3.57-9.84,9.05-16.15,16.48-16.63l-.12.94c-3.29,7.04-1.86,11.85,4.32,14.43,4.74,1.97,23.79,9.57,57.18,22.79.87.34,3.14.98,6.82,1.91,1.95.5,4.03-.21,5.29-1.8l2.86-3.65c1.28-1.61.55-3.99-1.4-4.64-20.06-6.54-39.76-14.43-59.1-23.68,3.28-11.24,6.88-21.6,10.84-31.09.84-2.02,1.06-3.9.66-5.62l2.67-5.29c19.34,2.85,35.67,8.73,50.98,21.07Z"/>
    <path class="cls-9" d="M457.84,220.17l-15.96-5.36.12-.94c1.94-6.22,5.69-19.4,12.24-21.34,6.28-1.84,11.29-2.35,15.09-9.07.4,1.72.18,3.59-.66,5.62-3.95,9.49-7.56,19.85-10.84,31.09Z"/>
    <path class="cls-12" d="M203.74,250.23c13.62,3.13,10.15,22.5,9.4,32.78-.56,7.7,2.16,15.71,11.28,13.89,1.02-.21,1.96.58,1.94,1.61l-.08,8.07c-.01.87-.84,1.47-1.67,1.24-4.1-1.18-12.75-.66-17.75-3.13-7.04-3.48-10.52-9.53-10.45-18.15.01-2.41.61-9.27,1.78-20.56.78-7.53-3.69-11.55-13.42-12.06-.28-.01-.5-.25-.5-.52v-7.86c0-.28.22-.5.5-.5,6.48.04,10.34-1.42,11.54-4.38,3.04-7.5.44-22.7.33-27.36-.26-10.99,4.71-17.47,14.94-19.45,1.57-.3,5.77-.73,12.6-1.27.92-.07,1.71.62,1.75,1.54l.29,6.48c.04.77-.59,1.4-1.36,1.36-9.11-.39-11.91,5.56-11.44,13.73.8,13.86,2.77,27.47-9.76,33.72-.36.18-.29.7.1.8Z"/>
    <path class="cls-5" d="M353.85,240.22c1.94,2.16,8.59,10.13,19.95,23.94,5.99,7.3,9.1,11.07,9.33,11.32,3.8,4.17,6.2,7.02,7.2,8.54,1.17,1.78,3.43,4.74,6.77,8.88.17.22.15.52-.06.7h-.01c-.17.17-.44.15-.61-.01-4.42-4.57-9.84-7.35-14.92-11.15-14.77-11.06-27.59-20.91-38.45-29.56-8.8-7.01-17.07-13.37-24.82-19.07-5.84-4.28-13.92-10.85-24.26-19.68-.39-.32-.43-.89-.08-1.27l16.84-18.81c.66-.74,1.71-1.01,2.64-.67.01.01.41.44,1.18,1.31,9.24,10.34,16.92,19.26,23.02,26.77,3.91,4.81,9.33,11.06,16.27,18.77Z"/>
    <path class="cls-4" d="M441.88,214.82l15.96,5.36c19.34,9.25,39.04,17.14,59.1,23.68,1.95.65,2.68,3.03,1.4,4.64l-2.86,3.65c-1.25,1.6-3.33,2.3-5.29,1.8-3.68-.94-5.95-1.57-6.82-1.91-33.39-13.22-52.44-20.82-57.18-22.79-6.18-2.57-7.61-7.39-4.32-14.43Z"/>
    <path class="cls-5" d="M525.6,302.9c2.88-1.86,4.8-3.19,5.75-3.98,3.77-3.17,9.95-8.62,18.56-16.36,9.02-8.11,18.61-15.41,26.45-22.37,8.83-7.85,15.42-12.72,27.96-22.55.85-.67,2.11-.47,2.71.45l11.55,17.82c.52.81.25,1.9-.61,2.37-7.72,4.19-22.61,11.99-44.65,23.41-8.44,4.38-16.09,8.1-22.94,11.17-14.63,6.54-22.4,9.95-23.28,10.27-.59.21-1.05.3-1.35.32-.29,0-.41-.39-.17-.54Z"/>
    <path class="cls-5" d="M362.06,302.26c-21.06-4.14-36.36-9.45-64.93-18.49-7.7-2.44-14.22-4.38-19.55-5.82-7.27-1.97-13.77-4.03-19.51-6.17-1.29-.48-1.94-1.94-1.43-3.22l7.7-19.43c.4-.99,1.57-1.42,2.51-.92,11.19,5.99,19.43,9.83,28.93,15.28,16.38,9.4,36.28,20.79,59.67,34.17,1.89,1.09,4.21,2.29,6.97,3.59.25.11.36.4.28.65-.08.26-.36.41-.62.36Z"/>
    <path class="cls-5" d="M587.06,303.6l73.75-26.68c1.01-.37,2.09.25,2.3,1.31l3.28,16.71c.21,1.03-.51,2.01-1.56,2.13-22.21,2.41-41.47,4.34-57.8,5.77-8.22.73-14.86,1.12-19.91,1.17-.11,0-.19-.07-.21-.18-.01-.1.04-.19.14-.23Z"/>
    <path class="cls-1" d="M570.22,331.57l.03,81.39-13.92-30.97c-.1-.22-.15-.45-.17-.69-.12-7.59-.19-15.04-.19-22.36,0-6.22-1.28-10.35-8.01-10.44-22.25-.3-48.93.61-75.3.52-20.36-.07-36.36-.15-48.01-.23-20.2-.15-41.12.8-57.6.32-6.22-.18-10.95,1.16-11.01,8-.04,4.97-.12,9.65-.23,14.04-.01.45-.29.88-.72,1.06-4.35,1.93-8.95,3.22-13.8,3.9l.08-44.32,228.85-.22Z"/>
    <path class="cls-10" d="M224.89,699.61l-5.33,1.43c-.98.26-1.69,1.1-1.79,2.11-1.39,13.95-1.6,27.98-.61,42.1.06.84.69,1.53,1.53,1.65,5.08.73,9.84,1.1,14.32,1.09,17.04-.04,31.16-.19,42.35-.48,15.43-.37,31.46-.44,48.05-.18,1.76.04,3.36.03,4.8-.01,1.12-.03,2.02-.88,2.11-1.98,1.25-15.57.95-30.72-.91-45.46,10.57-8.59,17.25-14.14,20.03-16.65,3.62-3.26,11.26-10.62,22.92-22.07l27.8-23.42c.19-.15.07-.47-.18-.45-27.37.96-54.88.51-82.52-1.38l5.66-13.27c.03-.06,0-.12-.06-.15l-.34-.15c-.22-.1-.48,0-.61.22-6.04,11.33-13.81,21.67-23.31,31.05-21.19,20.89-45.83,36.22-73.92,46.01ZM538.68,661.45c12.18,10.04,23.72,20.61,34.61,31.75,2.01,2.05,5,4.35,8.98,6.87-.26,1.91-.43,3.86-.51,5.81-.67,16.55-.98,26.15-.91,28.78.11,4.01.34,6.99.7,8.99.29,1.61,1.61,2.85,3.24,3.03,3.04.34,7.74.55,14.06.63.18.01,11.77-.25,34.78-.78,3.47-.08,9.79.21,18.94.87,10.78.77,21.49.98,32.13.61,1.64-.05,4.13-.37,7.5-.96,1.02-.18,1.82-.98,1.98-2,2.08-13.16.44-23.42-1.01-41.83-.03-.41-.26-.78-.62-.98-2.52-1.35-4.63-2.15-6.33-2.4-8.49-3.98-16.7-7.83-24.62-11.58-6.54-3.08-12.4-6.4-17.6-9.94-9.28-6.35-19.08-12.94-26.86-21.11-6.17-5.76-11.72-12.06-16.65-18.9-.26-.36-.48-.74-.66-1.14-1.4-3.07-3.06-5.93-4.97-8.58-.1-.14-.19-.29-.28-.44l-4.41-8.8c-.25-.5-.74-.81-1.29-.84-30.21-1.28-59.48-.65-87.81,1.93-11.41,1.03-21.51,3.33-30.29,6.9-18.9,7.66-24.59,24.4-25.07,43.54-.29,11.15.28,23.61,1.71,37.37.03.36.33.63.7.63,13.95.14,24.55.44,31.82.91,17.46,1.12,35.64,5.53,54.55,13.26,2.7,1.1,4.9,1.83,6.61,2.19.94.21,1.8-.54,1.75-1.49-.45-10.38-.37-30.79-1.5-48.26-.28-4.38-2.05-9.2-2.68-14.03M57.52,381.69c-2.27.01-5.05-.15-8.33-.47-3.18-.3-5.93-.11-8.29.58-.98.29-1.29,1.53-.56,2.23,4.02,3.9,6.93,8.32,11.33,12.31,13.46,12.21,23.4,20.96,36.59,28.67,9.16,5.34,15.87,9.07,20.18,11.21,5.71,2.82,17.02,7.46,33.88,13.92,7.82,2.99,19.07,6.17,33.73,9.53,14.88,3.41,37.57,5.27,48.46,7.39,2.27.44,4.6.59,7.01.44.4-.03.7-.36.7-.74l-.08-45.64.45-37.77c.01-.91-.59-1.69-1.47-1.91-1.02-.25-2.35-.37-4.01-.36-28.9.14-56.87.12-83.95-.03-38.99-.23-67.54-.01-85.65.65M257.34,331.8c1.89,7.56,2.62,15.32,2.16,23.27-1.07-.12-1.93.01-2.57.39-.39.22-.63.63-.62,1.09.15,20.17.15,40.34.01,60.5-.12,19.77.19,39.65.98,59.66-1.18,10.24-1.43,20.58-.76,31.01.06.85.7,1.54,1.56,1.67,7.72,1.09,13.09,1.89,16.12,2.37,12.47,1.98,23.23,7.31,32.27,15.99,2.97,2.86,5.36,5.14,7.16,6.82.43.4,1.12.1,1.12-.48l.05-96.65,26.09,34.75c.17.22.52.11.54-.17l.14-7.82.1,11.06c.01,20.91-.04,41.79-.17,62.62-.07,13.62,6.66,20.43,20.21,20.45,116.68.1,178.17.12,184.49.1,6.65-.04,10.84-.4,12.56-1.07,7.7-3.04,11.56-8.72,11.63-17.03.08-10.93.11-21.86.08-32.78,2.45-8.83,3.85-17.82,4.21-26.97.01-.45.15-.88.4-1.27,6.7-10.57,14.07-20.61,22.1-30.11.37,7.85.3,18.26-.19,31.23-.4,10.34-.21,23.54.55,39.6.15,2.99.08,5.31-.18,6.97-.04.26.11.5.36.58.23.08.51-.01.63-.25,2.62-4.86,6.32-8.04,9.17-11.5,15.79-19.19,33.91-35.33,54.35-48.42,7.64-4.9,16.29-8.58,24.15-13.11,16.11-9.27,30.77-15.09,49.73-22.35,6.75-2.57,13.12-3.7,20.14-5.85,9.66-2.95,18.27-4.46,28.51-5.98.91-.12,1.71-.7,2.13-1.53.8-1.57,2.95-5.65,6.43-12.24,6.48-12.27,8.83-25.03,7.35-38.85l.03-11.15c.01-.69-.55-1.25-1.24-1.24l-186.08.23-1.68-.48c-.37-.1-.63-.43-.66-.81-.4-7.42-1.57-14.8-3.54-22.11l216.22-.18c.45,0,.81.36.83.81.26,28.91.12,47.53-.4,55.85-.21,3.26-1.57,7.99-4.1,14.14-4.78,11.61-10.56,23.38-17.35,35.32-.58,1.02-1.6,1.71-2.75,1.89-33.4,5-66.84,16.89-96.22,31.64-15.6,7.83-30.45,17.06-44.57,27.69-32.08,24.16-62.52,60.48-50.73,103.26,4.25,15.46,17.79,31.89,29.5,42.12,22.91,19.98,49.21,33.26,78.9,39.85,1.23.28,2.11,1.36,2.11,2.63v83.77c0,.5-.4.89-.89.89h-143c-.56,0-1.13-.19-1.58-.55-19.62-15.27-42.02-25.88-67.2-31.85-41.94-9.93-83.03-7.52-123.28,7.26-15.02,5.52-28.82,13.18-41.39,22.99-1.38,1.07-3.04,1.65-5,1.75-6.4.32-12.36.47-17.9.45-28.02-.1-67.83-.11-119.43-.01-1.98.01-3.59-.1-4.82-.33-.59-.11-1.02-.62-1.02-1.23v-83.59c0-1.12.76-2.09,1.84-2.35,9.49-2.38,13.63-2.96,22.18-5.88,25.13-8.56,46.85-22.39,65.19-41.48,5.85-6.1,10.92-12.6,15.21-19.51,4.01-6.46,6.79-14.66,8.37-24.63,2.46-15.57-1.2-29.66-10.99-42.28-8.87-11.44-23.18-16.78-37.43-17.09-7.12-.17-14.94-.14-23.46.1-.83.03-1.5-.63-1.5-1.46v-13.93c0-.63-.48-1.16-1.1-1.23-11.52-1.23-21.79-2.62-30.84-4.19-3.62-.63-12.79-2.86-27.52-6.69-10.7-2.78-19.69-5.66-26.94-8.62-23.45-9.57-44.69-20.97-63.73-34.21-29.53-20.53-54.7-49.61-70.93-82.53-3.59-7.28-6.57-14.62-8.91-22.04-.12-.39.17-.77.56-.77h228.13c.72,0,1.31-.59,1.31-1.31v-23.81c0-.39.32-.7.7-.7l24.11-.03"/>
    <path class="cls-13" d="M298.99,331.86l3.94,23.28-43.42-.08c.45-7.94-.28-15.71-2.16-23.27l41.65.07Z"/>
    <path class="cls-2" d="M341.38,331.8l-.08,44.32.08,35.77c-8.15-7.1-15.57-11.61-26.28-11.98-.39-.01-.7.29-.7.67l-.26,17.72c-1.87-11.52-4.31-22.99-7.3-34.39-.81-3.07-1.57-8.05-2.27-14.93l8.78.06c.72.01,1.29-.56,1.29-1.28v-11.41c0-.72-.58-1.29-1.29-1.29l-10.42.1-3.94-23.28,42.39-.07Z"/>
    <path class="cls-2" d="M607.16,331.88c1.97,7.31,3.14,14.69,3.54,22.11.03.39.29.72.66.81l1.68.48-14.08.08c-.61,0-1.12.45-1.2,1.05-.66,4.58-.37,8.74.88,12.45-.26,7.7-1.32,14.09-3.15,19.19-4.52,12.53-14.94,23.79-25.11,34.12l-.12-9.21-.03-81.39,36.94.3Z"/>
    <path class="cls-4" d="M570.25,412.96l.12,9.21.21,19.26.08,56.45c-2.34-9.62-5.04-18.35-8.1-26.19-1.21-3.11-3.29-7.37-6.22-12.75-.04-.08-.07-.17-.07-.26l-.14-40.27c0-.37-.5-.5-.67-.17-9.84,18.41-22.7,34.46-38.59,48.16l-.32-4.03c-.03-.4-.37-.72-.78-.72h-21.17c-.34,0-.62-.32-.56-.66l1.69-11.35,2.13-14.1c.1-.65.65-1.12,1.29-1.12h24.51c.91,0,1.64-.73,1.64-1.64v-20.5c0-.66-.54-1.2-1.2-1.2h-20.31c-.48,0-.84-.43-.77-.91l4.39-29.15c.08-.51-.32-.98-.84-.98h-24.37c-.56,0-1.05.41-1.13.98l-4.43,29.37c-.08.55-.56.95-1.12.95h-26.3c-.45,0-.84-.34-.91-.8-.11-.92-.03-1.82.26-2.67l4.25-26.92c.08-.52-.32-.99-.85-.99h-23.65c-.84,0-1.54.61-1.68,1.42l-5.05,29.78-25.39.32c-.44.01-.8.37-.8.81v20.85c0,.73.59,1.34,1.32,1.32l4.61-.03,15.12.32c.55.01.98.52.89,1.07l-3.59,23.78c-.19,1.32-1.34,2.3-2.67,2.29l-19.38-.18c-5.08-3.95-10.45-7.38-16.14-10.27-6.46-3.28-12.9-4.32-18.32,1.45-5.58,5.92-8.47,13.11-12.53,21.69-.7,1.49-1.72,1.69-3.04.63l-.1-11.06-.21-52.28-.08-35.77c4.85-.67,9.44-1.97,13.8-3.9.43-.18.7-.61.72-1.06.11-4.39.19-9.07.23-14.04.07-6.84,4.79-8.18,11.01-8,16.48.48,37.41-.47,57.6-.32,11.65.08,27.65.17,48.01.23,26.36.08,53.05-.83,75.3-.52,6.73.08,8.01,4.21,8.01,10.44,0,7.32.07,14.77.19,22.36.01.23.07.47.17.69l13.92,30.97Z"/>
    <path class="cls-6" d="M2269.43,387.08c1.04-19.19,17.75-33.88,37.31-32.82,19.57,1.06,34.59,17.48,33.55,36.66-1.04,19.19-17.75,33.88-37.31,32.82-19.57-1.06-34.59-17.48-33.55-36.66Z"/>
    <path class="cls-9" d="M259.5,355.06l43.42.08,10.42-.1c.72,0,1.29.58,1.29,1.29v11.41c0,.72-.58,1.29-1.29,1.28l-8.78-.06c-8.47-.21-16.88.17-25.26,1.1-2.27.25-4.2.83-5.78,1.73-1.36.77-2.29,2.13-2.49,3.69l-13.73,101.18c-.78-20.01-1.1-39.89-.98-59.66.14-20.16.14-40.33-.01-60.5-.01-.45.23-.87.62-1.09.65-.37,1.5-.51,2.57-.39Z"/>
    <path class="cls-9" d="M613.04,355.28l186.08-.23c.69-.01,1.25.55,1.24,1.24l-.03,11.15c-.08.67-.48,1.01-1.18,1.02-66.58.21-133.42.33-200.51.4-1.25-3.7-1.54-7.86-.88-12.45.08-.59.59-1.05,1.2-1.05l14.08-.08Z"/>
    <path class="cls-6" d="M2608.39,363.56c.19,0,.36.17.36.36.22,38.32.3,71.86.23,100.63-.01,2.67-.3,4.89-.88,6.65-.28.84.76,1.49,1.39.88,2.29-2.18,4.98-6.6,7.96-9.16,11.72-10.09,24.44-15.9,38.14-17.4,15.24-1.67,32.34-.55,46.01,6.54,16.91,8.76,28.37,21.7,34.42,38.84,4.03,11.46,6.11,23.43,6.24,35.94.12,12.96.17,54.78.12,125.51-.01.41-.34.74-.74.74h-56.02c-.59,0-1.07-.48-1.06-1.07.21-21.19.25-57.86.14-110-.01-6.28-.62-12.47-1.83-18.57-3.52-17.72-14.19-27.15-32.02-28.32-11.98-.78-22.01,3.17-30.12,11.88-8.3,8.94-11.45,23.32-11.51,35.32-.15,38.12-.19,74.65-.14,109.57,0,.62-.5,1.12-1.12,1.12h-55.68c-.61,0-1.09-.48-1.09-1.09v-287.87c0-.28.22-.5.5-.5h56.71Z"/>
    <path class="cls-11" d="M800.33,367.44c1.47,13.82-.87,26.59-7.35,38.85-3.48,6.6-5.63,10.67-6.43,12.24-.43.83-1.23,1.4-2.13,1.53-10.24,1.51-18.85,3.03-28.51,5.98-7.02,2.15-13.4,3.28-20.14,5.85-18.96,7.26-33.62,13.08-49.73,22.35-7.86,4.53-16.51,8.21-24.15,13.11-20.44,13.09-38.56,29.23-54.35,48.42-2.85,3.46-6.55,6.64-9.17,11.5-.12.23-.4.33-.63.25-.25-.08-.4-.32-.36-.58.26-1.65.33-3.98.18-6.97-.76-16.05-.95-29.26-.55-39.6.5-12.97.56-23.38.19-31.23l-.15-21.73c-.01-.36-.34-.62-.7-.54-8.73,2.08-17.11,5.14-25.14,9.17-.39.19-.63.59-.63,1.02v4.36s-.19-19.26-.19-19.26c10.17-10.33,20.6-21.59,25.11-34.12,1.83-5.11,2.89-11.5,3.15-19.19,67.09-.07,133.93-.19,200.51-.4.7-.01,1.1-.34,1.18-1.02Z"/>
    <path class="cls-11" d="M304.56,368.98c.7,6.87,1.46,11.85,2.27,14.93,2.99,11.4,5.42,22.87,7.3,34.39l.69,19.1-.05,96.65c0,.58-.69.88-1.12.48-1.8-1.68-4.19-3.95-7.16-6.82-9.05-8.67-19.8-14-32.27-15.99-3.03-.48-8.4-1.28-16.12-2.37-.85-.12-1.5-.81-1.56-1.67-.67-10.42-.43-20.76.76-31.01l13.73-101.18c.21-1.56,1.13-2.92,2.49-3.69,1.58-.91,3.51-1.49,5.78-1.73,8.38-.94,16.8-1.31,25.26-1.1Z"/>
    <path class="cls-2" d="M448.59,407.89c-9.18-.61-18.19.5-26.98,3.29l5.05-29.78c.14-.81.84-1.42,1.68-1.42h23.65c.54,0,.94.47.85.99l-4.25,26.92Z"/>
    <path class="cls-13" d="M495.73,449.65c-9.42-.78-18.17-2.01-23.63-9.89-.12-.18-.4-.11-.43.11-.11,1.06-.41,1.96-.91,2.68l.83-6.84c.06-.43-.19-.83-.59-.98-.84-.3-1.83-.4-3-.29-5.74-2.12-11.04-3.08-15.89-2.88-16.15.69-29.57.69-40.28,0-3.62-.23-7.12.72-10.48,2.88l-4.61.03c-.73.01-1.32-.59-1.32-1.32v-20.85c0-.44.36-.8.8-.81l25.39-.32c8.8-2.8,17.8-3.9,26.98-3.29-.29.85-.37,1.75-.26,2.67.07.45.45.8.91.8h26.3c.55,0,1.03-.4,1.12-.95l4.43-29.37c.08-.56.56-.98,1.13-.98h24.37c.52,0,.92.47.84.98l-4.39,29.15c-.07.48.29.91.77.91h20.31c.66,0,1.2.54,1.2,1.2v20.5c0,.91-.73,1.64-1.64,1.64h-24.51c-.65,0-1.2.47-1.29,1.12l-2.13,14.1Z"/>
    <path class="cls-9" d="M232.15,421.11l-.29,4.58c-.01.18-.15.32-.32.32h-.01c-.17.03-.32-.11-.33-.28l-.99-16.36c-.07-1.23-1.01-2.23-2.22-2.41-2.52-.37-4.86-.63-7.01-.78-40.85-3.1-83.34-8.37-127.47-15.85-7.72-1.31-19.72-4.2-35.99-8.65,18.1-.66,46.66-.88,85.65-.65,27.08.15,55.06.17,83.95.03,1.65-.01,2.99.11,4.01.36.88.22,1.49,1.01,1.47,1.91l-.45,37.77Z"/>
    <path class="cls-11" d="M57.52,381.69c16.27,4.45,28.26,7.34,35.99,8.65,44.14,7.48,86.63,12.75,127.47,15.85,2.15.15,4.49.41,7.01.78,1.21.18,2.15,1.18,2.22,2.41l.99,16.36c.01.17.17.3.33.28h.01c.17,0,.3-.14.32-.32l.29-4.58.08,45.64c0,.39-.3.72-.7.74-2.41.15-4.74,0-7.01-.44-10.89-2.12-33.58-3.98-48.46-7.39-14.66-3.36-25.91-6.54-33.73-9.53-16.87-6.46-28.17-11.1-33.88-13.92-4.31-2.13-11.03-5.87-20.18-11.21-13.19-7.71-23.13-16.45-36.59-28.67-4.41-3.99-7.31-8.41-11.33-12.31-.73-.7-.41-1.94.56-2.23,2.35-.69,5.11-.88,8.29-.58,3.28.32,6.06.48,8.33.47Z"/>
    <path class="cls-6" d="M2396.71,448.76v-61.77c0-.23.19-.43.43-.43h55.99c.59,0,1.07.48,1.07,1.09v59.52c0,1.16.95,2.11,2.11,2.11h54.35c.45,0,.81.36.81.81v45.33c0,.18-.14.32-.3.32h-56.09c-.45,0-.81.36-.83.81-.15,29.78-.11,56.97.15,81.58.18,16.69,5.82,29.62,24.63,30.15,9.8.28,18.64-2.35,26.5-7.89.39-.28.92-.1,1.09.34l15.27,42.24c.29.78-.04,1.65-.77,2.05-27.4,15.01-61.73,18.6-90.48,5.09-11.4-5.36-20.18-13.7-25.86-25.4-5.16-10.67-7.81-21.86-7.92-33.55-.23-24.27-.3-55.83-.21-94.67,0-.47-.39-.85-.85-.85h-31.49c-.69,0-1.25-.56-1.25-1.25v-44.22c0-.37.29-.67.66-.67h32.24c.4,0,.73-.33.73-.73Z"/>
    <path class="cls-13" d="M341.38,411.89l.21,52.28-.14,7.82c-.01.28-.37.39-.54.17l-26.09-34.75-.69-19.1.26-17.72c0-.39.32-.69.7-.67,10.71.37,18.13,4.87,26.28,11.98Z"/>
    <path class="cls-3" d="M570.66,497.88l-.18,9.61c.03,10.92,0,21.85-.08,32.78-.07,8.32-3.94,13.99-11.63,17.03-1.72.67-5.91,1.03-12.56,1.07-6.32.03-67.81,0-184.49-.1-13.55-.01-20.28-6.83-20.21-20.45.12-20.83.18-41.7.17-62.62,1.32,1.06,2.34.85,3.04-.63,4.06-8.58,6.95-15.76,12.53-21.69,5.42-5.77,11.87-4.72,18.32-1.45,5.69,2.89,11.06,6.32,16.14,10.27l-4.41.11c-.34.01-.62.29-.62.63v21.69c0,.59.48,1.07,1.07,1.07h19.84c.62,0,1.1.56,1.01,1.18l-4.32,28.62c-.08.59.37,1.13.98,1.13h23.58c.98,0,1.82-.72,1.97-1.69l4.24-28.09c.1-.67.69-1.18,1.38-1.18h26.32c.44,0,.78.41.7.85l-5.25,28.9c-.12.67.4,1.29,1.09,1.29h24.12c.39,0,.72-.28.78-.65l5.25-28.87c.14-.8.84-1.38,1.65-1.38h24.74c.8,0,1.45-.66,1.43-1.46l-.4-17.49c15.89-13.7,28.75-29.75,38.59-48.16.18-.33.67-.21.67.17l.14,40.27c0,.1.03.18.07.26,2.93,5.38,5.01,9.64,6.22,12.75,3.06,7.83,5.75,16.56,8.1,26.19Z"/>
    <path class="cls-13" d="M597.19,449.14c-8.03,9.5-15.39,19.54-22.1,30.11-.25.39-.39.81-.4,1.27-.36,9.16-1.76,18.15-4.21,26.97l.18-9.61-.08-56.45v-4.36c-.01-.43.23-.83.62-1.02,8.03-4.03,16.41-7.09,25.14-9.17.36-.08.69.18.7.54l.15,21.73Z"/>
    <path class="cls-10" d="M468,434.45l-22.83.04c-.73,0-1.36.54-1.47,1.27l-3.76,24.93c-.11.72.44,1.36,1.16,1.36h25.22c.66,0,1.24-.48,1.35-1.14l3.1-18.35c.5-.73.8-1.62.91-2.68.03-.22.3-.29.43-.11,5.45,7.88,14.21,9.1,23.63,9.89l-1.69,11.35c-.05.34.22.66.56.66h21.17c.41,0,.76.32.78.72l.32,4.03.4,17.49c.01.8-.63,1.46-1.43,1.46h-24.74c-.81,0-1.51.58-1.65,1.38l-5.25,28.87c-.07.37-.4.65-.78.65h-24.12c-.69,0-1.21-.62-1.09-1.29l5.25-28.9c.08-.44-.26-.85-.7-.85h-26.32c-.69,0-1.28.51-1.38,1.18l-4.24,28.09c-.15.98-.99,1.69-1.97,1.69h-23.58c-.61,0-1.06-.54-.98-1.13l4.32-28.62c.1-.62-.39-1.18-1.01-1.18h-19.84c-.59,0-1.07-.48-1.07-1.07v-21.69c0-.34.28-.62.62-.63l4.41-.11,19.38.18c1.34.01,2.48-.96,2.67-2.29l3.59-23.78c.08-.55-.34-1.06-.89-1.07l-15.12-.32c3.36-2.16,6.86-3.11,10.48-2.88,10.71.69,24.13.69,40.28,0,4.85-.21,10.15.76,15.89,2.88Z"/>
    <path class="cls-4" d="M468,434.45c1.17-.11,2.16-.01,3,.29.4.15.65.55.59.98l-.83,6.84-3.1,18.35c-.11.66-.69,1.14-1.35,1.14h-25.22c-.72,0-1.27-.65-1.16-1.36l3.76-24.93c.11-.73.74-1.27,1.47-1.27l22.83-.04Z"/>
    <path class="cls-6" d="M1969.35,472.74c.08.72,1.01.98,1.45.4,5-6.43,11.67-12.38,20.05-17.82,7.64-4.97,15.92-8.07,24.82-9.29,11.47-1.58,22.11-1.39,31.91.56,17.65,3.51,32.44,14.97,42.39,30.07.4.59,1.27.61,1.68.03,5.84-8.14,13.22-15.01,22.14-20.63,16.36-10.31,36.47-13.18,55.47-10.52,12.93,1.8,24.59,6.97,34.98,15.52,16.2,13.33,23.58,33.4,25.69,53.77.4,3.92.61,14.44.62,31.58.04,47.82.05,83.11.04,105.87,0,.44-.36.8-.8.8h-55.46c-.95,0-1.72-.77-1.71-1.72.37-37.62.4-76.02.06-115.21-.01-2.42-.52-6.69-1.5-12.79-2.93-18.39-14.43-29-34.14-28.27-16.69.62-29.72,13.27-33.41,29.29-1.12,4.82-1.69,10.31-1.76,16.49-.45,43.78-.51,80.97-.14,111.58.01.32-.25.58-.56.58h-56.24c-.43,0-.76-.36-.72-.78.29-3.19.43-6.09.43-8.67-.17-56.22-.21-88.02-.11-95.39.18-14.07-.28-26.27-6.73-38.41-5.66-10.63-17.37-15.37-29.06-14.53-15.02,1.07-25.19,8.43-30.51,22.07-4.85,12.43-4.16,25.4-4.13,39.31.08,59.91.12,89.95.14,90.13.03,1.86.5,3.81.4,5.38-.04.54-.48.95-1.02.95h-56.82c-.55,0-1.01-.44-1.01-.99v-202.05c0-.32.26-.58.58-.58h49.33c.48,0,.89.37.95.85l2.71,22.43Z"/>
    <rect class="cls-6" x="2276.44" y="449.5" width="57.22" height="203.5" rx=".48" ry=".48"/>
    <g>
      <path class="cls-6" d="M1877.9,557.14c-2.41-18.12-11.32-34.59-25.26-46.14-8.89-7.38-20.71-12.31-31.64-16.98-14.58-6.22-31.18-10-49.32-14.73-8.32-2.18-17.76-5.23-24.52-8.72-9.47-4.89-14.52-12.39-15.16-22.53-1.54-24.82,24.75-33.72,44.35-32.67,21.19,1.13,38.93,9.4,53.27,24.81,1.36,1.47,3.79,4.2,7.24,8.18.34.4.96.43,1.34.06,10.01-9.84,21.17-20.2,33.5-31.03,1.29-1.13,2.85-2.84,4.65-5.14.26-.33.26-.8,0-1.13-16.55-21.33-40.6-38.07-66.98-43.6-27.67-5.8-60.19-4.9-85.85,6.66-11.8,5.31-21.34,11.7-28.65,19.17-15.28,15.61-22.91,34.63-22.9,57.06.01,20.13,7.02,43.22,23.17,55.8,10.09,7.86,22.14,14.42,36.14,19.66,2.12.78,19.78,6.1,52.98,15.93,16.77,4.97,34.38,12.72,33.47,33.6-.4,9.09-3.19,15.94-8.37,20.56-4.8,4.27-12.16,7.68-18.37,9.14-21.57,5.08-44.26.48-62.64-11.7-10.27-6.8-19.72-17.93-26.39-28.53-.25-.39-.78-.45-1.12-.14-12.5,11.96-26.05,23.3-40.66,33.97-.59.43-.78,1.23-.44,1.87,5.26,9.83,11.4,16.36,20.33,24.93,20.87,20.06,49.59,30.15,77.91,32.26,3.7.28,10.42.4,20.14.39,8.8-.01,15.47-.52,20.05-1.51,11.47-2.49,20.09-4.87,25.83-7.15,10.26-4.06,20.09-10.17,29.49-18.34,20.75-18.01,27.93-47.46,24.41-74.01Z"/>
      <path class="cls-6" d="M1651.08,638.21c-9.8-1.16-18.42-3.51-25.86-7.05-10.66-5.08-18.75-17.16-25.29-26.68-8.18-11.9-16.19-23.85-24.02-35.85-1.28-1.94-3.18-4.82-5.73-8.63-11.5-17.28-25.18-37.71-41.04-61.3-.51-.74-.5-1.72.03-2.46,7.21-10.09,15.24-21.23,24.08-33.44,13.15-18.15,22.59-33.21,35.08-48.96,9.06-11.44,19.16-20.34,34.12-23.74,6.84-1.56,12.1-2.42,15.81-2.6.43-.03.77-.39.77-.83v-12.71c0-.48-.39-.88-.87-.88h-92.2c-.5,0-.89.4-.89.88v12.65c0,.65.54,1.17,1.18,1.16,4.72-.06,9.82,1.01,15.28,3.17,4.25,1.69,6.86,4.49,7.79,8.39,1.53,6.39-3.52,14.09-7.04,19.47-1.47,2.26-16.05,23.02-43.71,62.27-.41.59-1.29.58-1.69-.03-18.81-28.49-34.1-51.98-45.87-70.47-2.41-3.79-4.13-7.39-5.14-10.81-3.5-11.79,19.74-11.63,25.58-12.05.45-.03.8-.4.8-.85v-13.23c0-.26-.22-.48-.48-.48h-115.47c-.18,0-.32.14-.32.32v12.9c0,.32.25.59.58.62,16.77,1.49,32.81,7.52,42.64,22.04,12.79,18.93,25.54,37.82,38.23,56.66,10.86,16.12,20.28,31.41,30.92,46.39.61.85.61,1.98.01,2.84l-36.11,51.52c-10.75,15.6-21.99,30.83-33.68,45.66-3.46,4.39-6.9,8.04-10.34,10.96-7.54,6.4-17.17,9.83-26.82,12.28-.62.17-1.07.67-1.17,1.31-1.45,10.24-3.68,20.43-6.7,30.57-5.81,19.41-17.65,37.22-38.18,43.3-18.75,5.62-33.23,4.56-57.05,4.24-10.37-.14-17.13-.15-20.29-.04-12.9.44-20.31-.12-20.31-14.72-.01-35.51-.04-68.31-.08-98.39,0-1.13.92-2.05,2.05-2.04,13.15.1,22.51.08,28.09-.04,20.07-.47,35.7,2.2,40.15,23.35.43,2,1.07,7.39,1.94,16.19.07.62.59,1.1,1.23,1.1h10.11c.58,0,1.05-.47,1.05-1.05l-.44-42.71.29-50.46c.01-.5-.4-.91-.89-.91h-10.28c-.56,0-1.02.48-.99,1.05.4,9.14-1.36,17.58-5.27,25.33-2.09,4.14-5.62,7.31-10.56,9.51-3.74,1.39-7.37,2.11-10.85,2.13-14.55.15-28.91.55-43.05,1.17-1.31.06-2.41-.99-2.41-2.31-.07-42.96-.11-73.7-.1-92.25,0-7.49,7.3-8.32,13.11-8.33,19.01-.06,37.82-.07,56.41-.04,12.49.01,23.82,2.75,33.99,8.22,21.7,11.63,26.86,37.02,29.72,60.84.08.66.63,1.16,1.29,1.16h10.39c.76,0,1.34-.66,1.25-1.4l-5.23-47.31-4.24-36.89c-.04-.39-.37-.69-.77-.69l-126.69.17-51.5-.04c-.15,0-.26-.11-.28-.25l-7.78-92.65c-.04-.52-.51-.91-1.03-.87-10.59.92-21.34,1.4-32.26,1.43-52.77.1-105.51.12-158.26.08-15.98.23-32.74-.22-50.29-1.36-.19-.01-.37.14-.39.33-3.7,40.37-6.25,63.84-7.53,91.6-.03.41.32.77.74.77h12.25c.25,0,.45-.19.47-.43.88-12.05,3-24.09,6.35-36.17,5.29-19.1,17.06-33.13,37.79-36.34,16.3-1.86,32.68-2.3,49.16-1.31.48.03.85.43.85.91.06,70.32.06,140.91.01,211.8-.01,5.25-.12,10.75-.34,16.51-.47,12.02-5.41,15.26-16.71,16.66-9.8,1.21-18.75,1.8-26.85,1.79-.48,0-.87.39-.87.85v13.19c0,.52.43.95.96.95h130.64c.23,0,.41-.18.41-.4v-13.49c0-.7-.55-1.28-1.25-1.31-12.71-.59-21.13-1.1-25.26-1.5-12.74-1.21-18.54-3.98-18.89-18.11-.26-10.62-.4-21.86-.4-33.73-.03-50.35.06-97.8.26-142.32.08-18.66-.4-33.31-.17-50.34.01-.76.59-1.38,1.35-1.42,13.09-.85,25.77-.74,38.07.32,13.04,1.13,26.81,4.13,35.59,13.47,10.55,11.21,15.2,26.27,16.64,41.62.8,8.48,1.28,14.76,1.43,18.84.01.36-.26.65-.61.65h-14.97c-.39,0-.69.3-.69.69v12.07c0,.9.73,1.62,1.61,1.61,7.1-.03,27.67.95,30.15,9.53,1.06,3.66,1.67,7.78,1.79,12.34.34,12.27.4,41.33.18,87.21-.15,31.7.5,75.92-.21,106.93-.1,4.45-.84,8.19-2.2,11.26-3.25,7.3-8.74,8-17.09,9.62-4.61.91-8.91,1.35-12.87,1.34-.76,0-1.38.62-1.38,1.38v11c0,.74.59,1.34,1.32,1.34h216.81c.45,0,.84-.36.87-.81.41-5.76,1.16-12.74,2.22-20.93.7-5.34,3.3-24.09,7.82-56.26.06-.36.37-.62.73-.62h72.58c.37,0,.67-.3.67-.69v-12.56c0-.61-.44-1.12-1.05-1.2-13.38-1.82-32.71-6-21.75-25.21,5.3-9.29,11.26-18.81,17.91-28.56,12.34-18.08,25.1-36.47,38.3-55.21.17-.23.52-.23.67.01,2.01,3.15,3.74,6.69,5.71,9.64,16.58,24.87,32.44,50.05,49.07,74.76,2.52,3.75,3.99,6.77,4.42,9.07,2.4,12.9-15.3,15.42-24.02,15.38-.39,0-.69.3-.69.69v13c0,.56.45,1.02,1.02,1.02h115.11c.33,0,.61-.28.61-.61v-13.22c0-.48-.36-.88-.83-.94Z"/>
    </g>
    <path class="cls-11" d="M617.16,657.21c-.3,4.01,2.99,7.1,5.25,9.69.85.98.98,2.01.39,3.11-.21.4-.39.62-.52.67-1.09.41-1.39,1.8-.58,2.63l11.33,11.55c.43.44.06,1.17-.55,1.07-3.4-.52-7.26-.66-11.56-.41-8.15.45-17.03.36-23.96.3-9.4-.07-14.79-.22-16.12-.45-4.93-.87-9.82-3.02-14.65-6.44-8.71-6.17-18.05-12.42-28-18.75-.29-.18-.61.17-.41.44.18.26.5.54.92.83.63,4.83,2.41,9.65,2.68,14.03,1.13,17.47,1.05,37.88,1.5,48.26.06.95-.81,1.69-1.75,1.49-1.71-.36-3.91-1.09-6.61-2.19-18.9-7.72-37.09-12.14-54.55-13.26-7.27-.47-17.87-.77-31.82-.91-.37,0-.67-.28-.7-.63-1.43-13.75-2-26.22-1.71-37.37.48-19.14,6.17-35.88,25.07-43.54,8.78-3.57,18.88-5.87,30.29-6.9,28.33-2.57,57.6-3.21,87.81-1.93.55.03,1.05.34,1.29.84l4.41,8.8c.08.15.18.3.28.44,1.91,2.64,3.57,5.51,4.97,8.58.18.4.4.78.66,1.14,4.93,6.84,10.48,13.15,16.65,18.9Z"/>
    <path class="cls-9" d="M317.46,635.9c-6.04,13.19-13.62,26.77-23.54,37.44-2.68,2.89-6.17,6.94-10.42,12.13-.15.19-.01.47.23.47h50.27c.19,0,.4-.05.56-.17,4.31-2.97,9.29-6.18,14.97-9.62,8.36-5.05,14.83-10.59,21.79-16.14.34-.28.85-.07.92.36l.12.78c-11.66,11.46-19.3,18.81-22.92,22.07-2.78,2.51-9.46,8.05-20.03,16.65-32.05.34-64.03.4-95.93.17-.28,0-1.72.12-4.35.39-1.72.17-3.13-.11-4.24-.81,28.09-9.79,52.73-25.13,73.92-46.01,9.5-9.38,17.26-19.72,23.31-31.05.12-.22.39-.32.61-.22l.34.15c.06.03.08.1.06.15l-5.66,13.27Z"/>
    <path class="cls-11" d="M317.46,635.9c27.65,1.89,55.15,2.34,82.52,1.38.25-.01.37.3.18.45l-27.8,23.42-.12-.78c-.07-.43-.58-.63-.92-.36-6.97,5.55-13.44,11.08-21.79,16.14-5.67,3.44-10.66,6.65-14.97,9.62-.17.11-.37.17-.56.17h-50.27c-.25,0-.39-.28-.23-.47,4.25-5.19,7.74-9.24,10.42-12.13,9.93-10.67,17.5-24.25,23.54-37.44Z"/>
    <path class="cls-9" d="M617.16,657.21c7.78,8.16,17.58,14.76,26.86,21.11,5.19,3.54,11.06,6.86,17.6,9.94,7.92,3.75,16.12,7.6,24.62,11.58l-103.96.23c-3.98-2.52-6.97-4.82-8.98-6.87-10.89-11.14-22.43-21.71-34.61-31.75-.43-.29-.74-.56-.92-.83-.19-.28.12-.62.41-.44,9.95,6.33,19.29,12.58,28,18.75,4.83,3.43,9.72,5.58,14.65,6.44,1.34.23,6.72.39,16.12.45,6.93.06,15.81.15,23.96-.3,4.31-.25,8.16-.11,11.56.41.61.1.98-.63.55-1.07l-11.33-11.55c-.81-.83-.51-2.22.58-2.63.14-.06.32-.28.52-.67.59-1.1.47-2.13-.39-3.11-2.26-2.59-5.55-5.69-5.25-9.69Z"/>
    <path class="cls-11" d="M582.27,700.08l103.96-.23c1.71.25,3.81,1.05,6.33,2.4.36.19.59.56.62.98,1.45,18.41,3.08,28.67,1.01,41.83-.17,1.02-.96,1.82-1.98,2-3.37.59-5.86.91-7.5.96-10.64.37-21.35.17-32.13-.61-9.16-.66-15.47-.95-18.94-.87-23.01.54-34.6.8-34.78.78-6.32-.08-11.01-.29-14.06-.63-1.62-.18-2.95-1.42-3.24-3.03-.36-2-.59-4.98-.7-8.99-.07-2.63.23-12.23.91-28.78.08-1.96.25-3.9.51-5.81Z"/>
    <path class="cls-11" d="M224.89,699.61c1.12.7,2.52.98,4.24.81,2.63-.26,4.08-.39,4.35-.39,31.9.23,63.88.18,95.93-.17,1.86,14.75,2.16,29.89.91,45.46-.08,1.1-.99,1.96-2.11,1.98-1.45.04-3.04.06-4.8.01-16.59-.26-32.62-.19-48.05.18-11.19.29-25.3.44-42.35.48-4.47.01-9.24-.36-14.32-1.09-.84-.12-1.47-.81-1.53-1.65-.99-14.13-.78-28.16.61-42.1.1-1.01.81-1.84,1.79-2.11l5.33-1.43Z"/>
    <path class="cls-7" d="M824.21,332.51c-.01-.45-.37-.81-.83-.81l-216.22.18-36.94-.3-228.85.22-42.39.07-41.65-.07-24.11.03c-.39,0-.7.32-.7.7v23.81c0,.72-.59,1.31-1.31,1.31H3.09c-.4,0-.69.39-.56.77,2.34,7.42,5.31,14.76,8.91,22.04,16.23,32.92,41.4,62,70.93,82.53,19.04,13.25,40.28,24.65,63.73,34.21,7.26,2.96,16.25,5.84,26.94,8.62,14.73,3.83,23.9,6.06,27.52,6.69,9.05,1.57,19.32,2.96,30.84,4.19.62.07,1.1.59,1.1,1.23v13.93c0,.83.67,1.49,1.5,1.46,8.52-.23,16.34-.26,23.46-.1,14.25.3,28.57,5.65,37.43,17.09,9.79,12.63,13.45,26.71,10.99,42.28-1.58,9.97-4.36,18.17-8.37,24.63-4.3,6.91-9.36,13.41-15.21,19.51-18.34,19.1-40.06,32.92-65.19,41.48-8.55,2.92-12.69,3.5-22.18,5.88-1.09.26-1.84,1.24-1.84,2.35v83.59c0,.61.43,1.12,1.02,1.23,1.23.23,2.84.34,4.82.33,51.6-.1,91.42-.08,119.43.01,5.53.01,11.5-.14,17.9-.45,1.96-.1,3.62-.67,5-1.75,12.57-9.82,26.36-17.47,41.39-22.99,40.24-14.77,81.34-17.18,123.28-7.26,25.18,5.96,47.58,16.58,67.2,31.85.45.36,1.02.55,1.58.55h143c.5,0,.89-.4.89-.89v-83.77c0-1.27-.88-2.35-2.11-2.63-29.7-6.58-55.99-19.87-78.9-39.85-11.72-10.23-25.25-26.66-29.5-42.12-11.79-42.78,18.66-79.1,50.73-103.26,14.11-10.63,28.97-19.85,44.57-27.69,29.38-14.75,62.82-26.64,96.22-31.64,1.16-.18,2.18-.87,2.75-1.89,6.79-11.94,12.57-23.71,17.35-35.32,2.53-6.15,3.9-10.88,4.1-14.14.52-8.32.66-26.93.4-55.85Z"/>
    <path class="cls-8" d="M889.16,237.89c-2.82-5.33-7.53-9.22-14.13-11.66-40.09-14.83-69.09-24.99-113.95-41.2-28.1-10.15-45.86-16.62-53.27-19.39-6.11-2.3-11.83-4.36-17.15-6.2-14.4-4.97-31.46-11.81-42.78-15.83-13.77-4.89-31.67-11.32-53.71-19.26-.72-.26-1.14-1.01-1.01-1.75l1.83-10.06c.11-.59-.03-1.2-.37-1.69l-12.85-18.38c-.22-.33-.34-.73-.34-1.13v-8.72c0-.48.08-.96.25-1.4,7.19-19.66,18.52-37.92,31.32-54.15,3.22-4.09,5-6.51,5.31-7.24.3-.7-.03-1.51-.74-1.8l-39.76-15.74c-.78-.32-1.65-.37-2.48-.17-6.21,1.53-12.74,3.4-19.56,5.59-19.62,6.28-37.02,16.45-52.18,30.51-1.86,1.72-3.65,3.55-5.36,5.49-4.36,4.97-8.87,8.88-12.53,14.53-6.26,9.68-10.72,17.44-13.37,23.3-4.39,9.73-10.26,24.08-17.59,43.01-1.8,4.67-3.02,7.64-3.61,8.91-2.22,4.72-6.21,12.09-4.45,16.77,3.11,8.21,5.15,14.24,6.13,18.09-2.42,5.87-8.56,7.94-14.1,10.08-2.24.87-3.72,2.08-4.41,3.61-5.42,12.21-10.35,24.33-14.8,36.34-.23.62-.23,1.31-.01,1.93,2.01,5.76,4.64,11.26,7.89,16.54,1.2,3.68,2.71,5.92,4.57,6.75,6.88,3.07,10.63,4.71,11.22,4.93,9.55,3.57,28.13,10.97,55.72,22.24,4.49,1.84,8.33,3.92,12.94,2.85,3.51-.81,19.99-5.27,22.32-10.71,3.02-7.01,7.1-17.61,12.29-31.78.98-2.66,1.67-4.94,2.07-6.86.12-.56.04-1.16-.22-1.67l-2.18-4.14c-4.67-9.4-3.36-15.6,3.95-18.59,2.86-1.17,7.16-2.45,12.9-3.86,1.1-.28,2.04-1.02,2.53-2.05l3.68-7.63c.12-.26.44-.39.7-.26,17.17,8.01,39,16.7,55.58,23.98,32.93,14.5,49.48,22,77.25,33.68,11.65,4.89,32.26,13.84,61.84,26.88,1.36.61,5.12,2.15,11.26,4.64,6.68,2.71,28.38,12.1,65.08,28.17,6.02,2.63,10.33,4.01,12.93,4.1,29.85,1.16,47.06-47.45,35.33-69.59Z"/>
  </g>
</svg>
