<?xml version="1.0" encoding="UTF-8" standalone="no"?>
<!-- Created with Inkscape (http://www.inkscape.org/) -->

<svg
   xmlns:dc="http://purl.org/dc/elements/1.1/"
   xmlns:cc="http://creativecommons.org/ns#"
   xmlns:rdf="http://www.w3.org/1999/02/22-rdf-syntax-ns#"
   xmlns:svg="http://www.w3.org/2000/svg"
   xmlns="http://www.w3.org/2000/svg"
   xmlns:sodipodi="http://sodipodi.sourceforge.net/DTD/sodipodi-0.dtd"
   xmlns:inkscape="http://www.inkscape.org/namespaces/inkscape"
   id="svg2871"
   version="1.1"
   inkscape:version="0.47 r22583"
   width="273"
   height="83"
   sodipodi:docname="Marie_Curie_Signature.png">
  <metadata
     id="metadata2877">
    <rdf:RDF>
      <cc:Work
         rdf:about="">
        <dc:format>image/svg+xml</dc:format>
        <dc:type
           rdf:resource="http://purl.org/dc/dcmitype/StillImage" />
        <dc:title></dc:title>
      </cc:Work>
    </rdf:RDF>
  </metadata>
  <defs
     id="defs2875">
    <inkscape:perspective
       sodipodi:type="inkscape:persp3d"
       inkscape:vp_x="0 : 0.5 : 1"
       inkscape:vp_y="0 : 1000 : 0"
       inkscape:vp_z="1 : 0.5 : 1"
       inkscape:persp3d-origin="0.5 : 0.33333333 : 1"
       id="perspective2879" />
  </defs>
  <sodipodi:namedview
     pagecolor="#ffffff"
     bordercolor="#666666"
     borderopacity="1"
     objecttolerance="10"
     gridtolerance="10"
     guidetolerance="10"
     inkscape:pageopacity="0"
     inkscape:pageshadow="2"
     inkscape:window-width="640"
     inkscape:window-height="483"
     id="namedview2873"
     showgrid="false"
     inkscape:zoom="1.978022"
     inkscape:cx="165.15333"
     inkscape:cy="67.472187"
     inkscape:window-x="0"
     inkscape:window-y="0"
     inkscape:window-maximized="0"
     inkscape:current-layer="svg2871" />
  <path
     style="fill:#000000"
     d="M 51.443388,56.9084 C 50.659055,55.639323 67.170745,38.938324 83,24.989985 94.828436,14.567066 95.33187,13.704538 88.75,15.138564 c -5.560704,1.211539 -16.972698,4.910682 -18.262144,5.919586 -0.55668,0.435564 -3.70668,1.795608 -7,3.022321 -11.048432,4.115375 -43.728228,21.122707 -44.22299,23.014681 -0.449958,1.720643 -5.820148,3.682899 -6.959911,2.543137 -1.335648,-1.335648 1.002759,-3.532458 8.333712,-7.829081 18.639563,-10.924525 51.24471,-25.821282 63.271296,-28.907618 9.414568,-2.416024 10.76023,-2.386358 12.181091,0.268545 1.052492,1.966601 0.514535,2.787256 -5.735815,8.75 -3.79348,3.618926 -10.841877,10.125776 -15.663103,14.459666 -4.821227,4.333891 -8.582557,8.063111 -8.358513,8.287155 0.224045,0.224045 3.728134,-1.78034 7.786865,-4.454188 14.869163,-9.795643 24.50346,-13.939447 27.431382,-11.798501 1.99577,1.459345 1.49783,2.706612 -3.092771,7.74693 -5.28899,5.807127 -4.757532,5.925646 3.528031,0.786779 16.36516,-10.149999 18.90493,-6.953298 5.51287,6.938838 -4.675,4.849572 -8.5,9.532396 -8.5,10.406277 0,2.295262 -1.574525,2.924501 -3.004983,1.200905 -1.652771,-1.991468 -0.219264,-4.078725 9.095843,-13.243996 4.05269,-3.9875 6.9105,-7.25 6.3507,-7.25 -0.55981,0 -7.75067,4.241271 -15.979694,9.425046 -9.468998,5.964881 -15.317258,9.078816 -15.929908,8.481959 -0.616293,-0.600407 2.238761,-4.139973 7.85736,-9.741196 C 95.267917,35.311576 98.913815,31 97.676808,31 95.824536,31 85.616025,36.537723 76.5,42.487602 70.45,46.436337 63.475,50.870514 61,52.34133 c -2.475,1.470816 -5.469617,3.372129 -6.654705,4.225139 -1.634946,1.176812 -2.334946,1.259293 -2.901907,0.341931 z M 209.26797,56 c -1.20247,-1.404385 -2.94994,-2 -5.86777,-2 -2.37526,0 -4.66162,-0.610065 -5.33723,-1.424124 -1.0226,-1.232165 -1.64134,-1.232165 -4.59032,0 C 188.96214,54.460484 184,54.447396 184,52.550891 c 0,-0.79701 1.58725,-2.659762 3.52722,-4.139449 6.08412,-4.640588 2.96834,-3.819142 -5.66404,1.493267 -8.83524,5.437255 -11.21334,6.078904 -12.69792,3.426102 -0.78388,-1.400704 -1.39505,-1.486405 -3.79969,-0.53281 -4.99067,1.979117 -8.74806,1.928949 -9.16768,-0.122405 -0.20526,-1.003422 0.41099,-2.690922 1.36944,-3.75 2.24586,-2.481637 1.77649,-2.428941 -4.69649,0.527276 -2.95396,1.349079 -8.00919,3.137698 -11.23384,3.974709 -6.92844,1.79839 -9.637,0.911287 -9.637,-3.156298 0,-2.042432 2.2608,-4.875324 9.75779,-12.227002 C 157.09993,22.999529 173.54447,13 182.94391,13 187.70014,13 188,13.151611 188,15.556371 c 0,3.70628 -4.60004,7.417547 -16.47267,13.289989 -10.97089,5.426424 -17.59025,7.17624 -19.89889,5.260237 -1.10577,-0.917705 -2.90782,0.474252 -9.00542,6.956035 C 138.43036,45.519459 135,49.578614 135,50.082977 c 0,2.880069 10.93339,-0.175587 25.27451,-7.063701 5.44733,-2.616381 9.42879,-3.96079 10.5,-3.545502 1.81657,0.70425 1.59925,0.955465 -7.31437,8.455112 -4.47027,3.761148 -1.34604,3.591749 6.67992,-0.362192 10.16473,-5.007591 12.9231,-4.696115 6.61895,0.747412 -2.7057,2.33633 -2.83456,2.61214 -0.75901,1.62452 1.375,-0.654274 3.85134,-2.196233 5.50297,-3.426577 4.31346,-3.213211 12.45247,-6.743127 14.09473,-6.112933 2.21126,0.848541 1.66783,2.535353 -1.9977,6.200884 -4.34158,4.34158 -2.15877,4.498571 5.30977,0.381885 C 201.88514,45.341848 204.69764,44 205.15977,44 c 1.68499,0 0.7741,2.154137 -1.90977,4.516365 l -2.75,2.420433 3.3788,0.0316 c 2.48384,0.02323 4.40494,-0.895459 7.25288,-3.468399 2.87153,-2.594256 4.77908,-3.5 7.3712,-3.5 5.23512,0 4.42612,2.458607 -2.0029,6.086918 -3.025,1.707209 -5.24845,3.511056 -4.94098,4.008549 0.86937,1.406659 11.71441,1.066466 20.23316,-0.634684 20.40999,-4.075773 26.67605,-5.838084 28.99184,-8.153875 2.35149,-2.351489 4.216,-2.308537 4.216,0.09712 0,2.612177 -3.94942,4.699372 -13.60048,7.187596 -12.50203,3.223261 -26.08893,5.367313 -34.15931,5.390438 -5.0364,0.01443 -6.59446,-0.372934 -7.97224,-1.982063 z m -48.1437,-25.539046 c 5.11822,-1.800196 17.1719,-7.884783 21.12573,-10.664071 7.65057,-5.377857 -1.51741,-5.118183 -12.17222,0.344766 -5.7201,2.932814 -8.07778,4.684051 -8.07778,6 0,1.022093 -0.5625,1.868357 -1.25,1.880587 -1.58842,0.02826 -6.63875,3.925604 -5.12573,3.955528 0.61835,0.01223 3.09335,-0.670335 5.5,-1.51681 z M 108,54.076725 C 108,52.486536 113.10832,47 114.58889,47 c 1.97761,0 1.79282,0.628467 -1.33889,4.553399 -2.60585,3.265878 -5.25,4.536746 -5.25,2.523326 z M 216.65108,37.244454 c -0.81807,-1.323659 1.57196,-6.227036 3.0399,-6.236652 2.44668,-0.01603 2.47385,2.281909 0.0556,4.700174 -1.375,1.375 -2.76797,2.066415 -3.09549,1.536478 z"
     id="path2883" />
</svg>
