<?xml version="1.0" encoding="UTF-8"?>
<svg id="Layer_2" data-name="Layer 2" xmlns="http://www.w3.org/2000/svg" viewBox="0 0 886.13 285">
  <defs>
    <style>
      .cls-1 {
        font-size: 144.46px;
      }

      .cls-1, .cls-2 {
        fill: #010101;
        font-family: Ebrima, Ebrima;
      }

      .cls-3 {
        fill: #fffdfd;
      }

      .cls-4 {
        fill: #2a80af;
      }

      .cls-2 {
        font-size: 46.4px;
      }

      .cls-5 {
        fill: #125a7f;
      }
    </style>
  </defs>
  <g id="Layer_1-2" data-name="Layer 1">
    <path class="cls-4" d="M28.5,0C12.76,0,0,12.76,0,28.5v228c0,15.74,12.76,28.5,28.5,28.5h193c15.74,0,28.5-12.76,28.5-28.5V70L176,0H28.5Z"/>
    <text class="cls-1" transform="translate(282.84 180.41)"><tspan x="0" y="0">TeXSmith</tspan></text>
    <text class="cls-2" transform="translate(298.84 228.75)"><tspan x="0" y="0">Markdown to LaTeX </tspan></text>
    <path class="cls-5" d="M176,55.5c0,8.01,6.49,14.5,14.5,14.5h59.5L176,0v55.5Z"/>
    <path class="cls-3" d="M26.08,120.67l3.74-52.51h119.92l3.74,52.51h-8.37c-.48-6.1-.89-10.79-1.25-14.05-.36-3.27-1.16-7.04-2.41-11.33-1.25-4.28-2.82-7.44-4.72-9.48-1.9-2.03-4.57-3.78-8.02-5.23-3.45-1.45-7.66-2.18-12.65-2.18h-13.54v126.6h27.26v10.24c-6.41-.44-19.72-.65-39.91-.65s-33.5.22-39.91.65v-10.24h27.26v-126.6h-13.72c-4.99,0-9.24.76-12.74,2.29-3.51,1.53-6.21,3.31-8.11,5.34-1.9,2.04-3.45,5.16-4.63,9.37-1.19,4.21-1.99,7.95-2.41,11.22-.42,3.27-.8,7.95-1.16,14.05h-8.37Z"/>
    <path class="cls-3" d="M192.21,188.29c4.46-2.06,8.71-4.12,12.77-6.18,4.05-2.06,7.27-3.57,9.68-4.53,2.4-.96,4.32-1.44,5.77-1.44,2.4,0,4.48.81,6.23,2.42,1.75,1.61,2.63,3.62,2.63,6.02,0,1.37-.43,2.8-1.29,4.27-.86,1.48-1.77,2.42-2.73,2.83-8.85,3.5-18.6,6.04-29.24,7.62,1.92,1.79,4.29,4.15,7.1,7.1,2.81,2.95,4.29,4.53,4.43,4.74,1.03,1.44,2.47,3.23,4.32,5.35,1.85,2.13,3.14,3.79,3.86,4.99.72,1.2,1.08,2.66,1.08,4.38,0,2.2-.82,4.12-2.47,5.77-1.65,1.65-3.78,2.47-6.38,2.47s-5.54-2.02-8.8-6.07c-3.26-4.05-7.46-11.32-12.61-21.83-5.22,9.47-8.72,15.72-10.5,18.74-1.79,3.02-3.5,5.3-5.15,6.85-1.65,1.54-3.54,2.32-5.66,2.32-2.54,0-4.65-.88-6.33-2.63-1.68-1.75-2.52-3.62-2.52-5.61,0-1.85.34-3.26,1.03-4.22,6.31-8.58,12.9-16.02,19.77-22.34-5.77-.89-10.91-1.89-15.44-2.99-4.53-1.1-9.33-2.71-14.41-4.84-.82-.41-1.63-1.35-2.42-2.83-.79-1.47-1.18-2.83-1.18-4.07,0-2.4.88-4.41,2.62-6.02,1.75-1.61,3.76-2.42,6.02-2.42,1.65,0,3.71.5,6.18,1.49,2.47,1,5.61,2.44,9.42,4.32,3.81,1.89,8.15,4,13.02,6.33-.89-4.32-1.63-9.28-2.21-14.88-.58-5.59-.88-9.42-.88-11.48,0-2.54.81-4.72,2.42-6.54,1.61-1.82,3.69-2.73,6.23-2.73s4.51.91,6.12,2.73c1.61,1.82,2.42,4.24,2.42,7.26,0,.82-.12,2.45-.36,4.89-.24,2.44-.58,5.39-1.03,8.85-.45,3.47-.94,7.43-1.49,11.89Z"/>
  </g>
</svg>