<?xml version="1.0" encoding="UTF-8"?>
<svg id="Layer_2" xmlns="http://www.w3.org/2000/svg" version="1.1" viewBox="0 0 259.8 295.7">
  <!-- Generator: Adobe Illustrator 29.8.2, SVG Export Plug-In . SVG Version: 2.1.1 Build 3)  -->
  <defs>
    <style>
      .st0 {
        fill: #2a80af;
      }

      .st0, .st1 {
        stroke-linecap: round;
        stroke-linejoin: bevel;
        stroke-width: 1.8px;
      }

      .st0, .st1, .st2 {
        stroke: #fefcfb;
      }

      .st1 {
        fill: #125a7f;
      }

      .st2 {
        fill: #fffdfd;
        stroke-miterlimit: 10;
        stroke-width: .5px;
      }
    </style>
  </defs>
  <g id="Layer_1-2">
    <path class="st0" d="M32.4,6.1c-15.7,0-28.5,12.8-28.5,28.5v228c0,15.7,12.8,28.5,28.5,28.5h193c15.7,0,28.5-12.8,28.5-28.5V76.1L179.9,6.1H32.4Z"/>
    <path class="st1" d="M179.9,61.6c0,8,6.5,14.5,14.5,14.5h59.5L179.9,6.1v55.5Z"/>
    <path class="st2" d="M30,126.8l3.7-52.5h119.9l3.7,52.5h-8.4c-.5-6.1-.9-10.8-1.2-14.1-.4-3.3-1.2-7-2.4-11.3-1.2-4.3-2.8-7.4-4.7-9.5-1.9-2-4.6-3.8-8-5.2-3.4-1.4-7.7-2.2-12.7-2.2h-13.5v126.6h27.3v10.2c-6.4-.4-19.7-.6-39.9-.6s-33.5.2-39.9.6v-10.2h27.3v-126.6h-13.7c-5,0-9.2.8-12.7,2.3-3.5,1.5-6.2,3.3-8.1,5.3-1.9,2-3.5,5.2-4.6,9.4-1.2,4.2-2,7.9-2.4,11.2-.4,3.3-.8,7.9-1.2,14.1h-8.4,0Z"/>
    <path class="st2" d="M196.2,194.4c4.5-2.1,8.7-4.1,12.8-6.2,4.1-2.1,7.3-3.6,9.7-4.5,2.4-1,4.3-1.4,5.8-1.4,2.4,0,4.5.8,6.2,2.4s2.6,3.6,2.6,6-.4,2.8-1.3,4.3c-.9,1.5-1.8,2.4-2.7,2.8-8.9,3.5-18.6,6-29.2,7.6,1.9,1.8,4.3,4.1,7.1,7.1,2.8,2.9,4.3,4.5,4.4,4.7,1,1.4,2.5,3.2,4.3,5.4,1.9,2.1,3.1,3.8,3.9,5,.7,1.2,1.1,2.7,1.1,4.4s-.8,4.1-2.5,5.8c-1.6,1.6-3.8,2.5-6.4,2.5s-5.5-2-8.8-6.1c-3.3-4.1-7.5-11.3-12.6-21.8-5.2,9.5-8.7,15.7-10.5,18.7-1.8,3-3.5,5.3-5.1,6.9-1.6,1.5-3.5,2.3-5.7,2.3s-4.6-.9-6.3-2.6c-1.7-1.8-2.5-3.6-2.5-5.6s.3-3.3,1-4.2c6.3-8.6,12.9-16,19.8-22.3-5.8-.9-10.9-1.9-15.4-3s-9.3-2.7-14.4-4.8c-.8-.4-1.6-1.4-2.4-2.8-.8-1.5-1.2-2.8-1.2-4.1,0-2.4.9-4.4,2.6-6,1.8-1.6,3.8-2.4,6-2.4s3.7.5,6.2,1.5c2.5,1,5.6,2.4,9.4,4.3,3.8,1.9,8.1,4,13,6.3-.9-4.3-1.6-9.3-2.2-14.9-.6-5.6-.9-9.4-.9-11.5s.8-4.7,2.4-6.5c1.6-1.8,3.7-2.7,6.2-2.7s4.5.9,6.1,2.7c1.6,1.8,2.4,4.2,2.4,7.3s-.1,2.4-.4,4.9-.6,5.4-1,8.9c-.4,3.5-.9,7.4-1.5,11.9h0Z"/>
  </g>
</svg>